<?xml version="1.0" encoding="utf-8" standalone="no"?>
<!DOCTYPE svg PUBLIC "-//W3C//DTD SVG 1.1//EN"
  "http://www.w3.org/Graphics/SVG/1.1/DTD/svg11.dtd">
<svg xmlns:xlink="http://www.w3.org/1999/xlink" width="707.221406pt" height="568.8pt" viewBox="0 0 707.221406 568.8" xmlns="http://www.w3.org/2000/svg" version="1.1">
 <metadata>
  <rdf:RDF xmlns:dc="http://purl.org/dc/elements/1.1/" xmlns:cc="http://creativecommons.org/ns#" xmlns:rdf="http://www.w3.org/1999/02/22-rdf-syntax-ns#">
   <cc:Work>
    <dc:type rdf:resource="http://purl.org/dc/dcmitype/StillImage"/>
    <dc:date>2025-12-31T19:26:45.559441</dc:date>
    <dc:format>image/svg+xml</dc:format>
    <dc:creator>
     <cc:Agent>
      <dc:title>Matplotlib v3.9.1, https://matplotlib.org/</dc:title>
     </cc:Agent>
    </dc:creator>
   </cc:Work>
  </rdf:RDF>
 </metadata>
 <defs>
  <style type="text/css">*{stroke-linejoin: round; stroke-linecap: butt}</style>
 </defs>
 <g id="figure_1">
  <g id="patch_1">
   <path d="M 0 568.8 
L 707.221406 568.8 
L 707.221406 0 
L 0 0 
z
" style="fill: #ffffff"/>
  </g>
  <g id="axes_1">
   <g id="patch_2">
    <path d="M 118.8 173.52 
L 565.2 173.52 
Q 570.78 173.52 570.78 168.9 
L 570.78 113.46 
Q 570.78 108.84 565.2 108.84 
L 118.8 108.84 
Q 113.22 108.84 113.22 113.46 
L 113.22 168.9 
Q 113.22 173.52 118.8 173.52 
z
" clip-path="url(#p47c01a7ebd)" style="fill: #3498db; opacity: 0.3; stroke: #3498db; stroke-width: 2; stroke-linejoin: miter"/>
   </g>
   <g id="patch_3">
    <path d="M 118.8 312.12 
L 565.2 312.12 
Q 570.78 312.12 570.78 307.5 
L 570.78 215.1 
Q 570.78 210.48 565.2 210.48 
L 118.8 210.48 
Q 113.22 210.48 113.22 215.1 
L 113.22 307.5 
Q 113.22 312.12 118.8 312.12 
z
" clip-path="url(#p47c01a7ebd)" style="fill: #e74c3c; opacity: 0.3; stroke: #e74c3c; stroke-width: 2; stroke-linejoin: miter"/>
   </g>
   <g id="patch_4">
    <path d="M 118.8 413.76 
L 565.2 413.76 
Q 570.78 413.76 570.78 409.14 
L 570.78 353.7 
Q 570.78 349.08 565.2 349.08 
L 118.8 349.08 
Q 113.22 349.08 113.22 353.7 
L 113.22 409.14 
Q 113.22 413.76 118.8 413.76 
z
" clip-path="url(#p47c01a7ebd)" style="fill: #2ecc71; opacity: 0.3; stroke: #2ecc71; stroke-width: 2; stroke-linejoin: miter"/>
   </g>
   <g id="text_1">
    <!-- GRU4Rec Architecture -->
    <g transform="translate(229.386094 30.3) scale(0.18 -0.18)">
     <defs>
      <path id="DejaVuSans-Bold-47" d="M 4781 347 
Q 4331 128 3847 18 
Q 3363 -91 2847 -91 
Q 1681 -91 1000 561 
Q 319 1213 319 2328 
Q 319 3456 1012 4103 
Q 1706 4750 2913 4750 
Q 3378 4750 3804 4662 
Q 4231 4575 4609 4403 
L 4609 3438 
Q 4219 3659 3833 3768 
Q 3447 3878 3059 3878 
Q 2341 3878 1952 3476 
Q 1563 3075 1563 2328 
Q 1563 1588 1938 1184 
Q 2313 781 3003 781 
Q 3191 781 3352 804 
Q 3513 828 3641 878 
L 3641 1784 
L 2906 1784 
L 2906 2591 
L 4781 2591 
L 4781 347 
z
" transform="scale(0.015625)"/>
      <path id="DejaVuSans-Bold-52" d="M 2297 2597 
Q 2675 2597 2839 2737 
Q 3003 2878 3003 3200 
Q 3003 3519 2839 3656 
Q 2675 3794 2297 3794 
L 1791 3794 
L 1791 2597 
L 2297 2597 
z
M 1791 1766 
L 1791 0 
L 588 0 
L 588 4666 
L 2425 4666 
Q 3347 4666 3776 4356 
Q 4206 4047 4206 3378 
Q 4206 2916 3982 2619 
Q 3759 2322 3309 2181 
Q 3556 2125 3751 1926 
Q 3947 1728 4147 1325 
L 4800 0 
L 3519 0 
L 2950 1159 
Q 2778 1509 2601 1637 
Q 2425 1766 2131 1766 
L 1791 1766 
z
" transform="scale(0.015625)"/>
      <path id="DejaVuSans-Bold-55" d="M 588 4666 
L 1791 4666 
L 1791 1869 
Q 1791 1291 1980 1042 
Q 2169 794 2597 794 
Q 3028 794 3217 1042 
Q 3406 1291 3406 1869 
L 3406 4666 
L 4609 4666 
L 4609 1869 
Q 4609 878 4112 393 
Q 3616 -91 2597 -91 
Q 1581 -91 1084 393 
Q 588 878 588 1869 
L 588 4666 
z
" transform="scale(0.015625)"/>
      <path id="DejaVuSans-Bold-34" d="M 2356 3675 
L 1038 1722 
L 2356 1722 
L 2356 3675 
z
M 2156 4666 
L 3494 4666 
L 3494 1722 
L 4159 1722 
L 4159 850 
L 3494 850 
L 3494 0 
L 2356 0 
L 2356 850 
L 288 850 
L 288 1881 
L 2156 4666 
z
" transform="scale(0.015625)"/>
      <path id="DejaVuSans-Bold-65" d="M 4031 1759 
L 4031 1441 
L 1416 1441 
Q 1456 1047 1700 850 
Q 1944 653 2381 653 
Q 2734 653 3104 758 
Q 3475 863 3866 1075 
L 3866 213 
Q 3469 63 3072 -14 
Q 2675 -91 2278 -91 
Q 1328 -91 801 392 
Q 275 875 275 1747 
Q 275 2603 792 3093 
Q 1309 3584 2216 3584 
Q 3041 3584 3536 3087 
Q 4031 2591 4031 1759 
z
M 2881 2131 
Q 2881 2450 2695 2645 
Q 2509 2841 2209 2841 
Q 1884 2841 1681 2658 
Q 1478 2475 1428 2131 
L 2881 2131 
z
" transform="scale(0.015625)"/>
      <path id="DejaVuSans-Bold-63" d="M 3366 3391 
L 3366 2478 
Q 3138 2634 2908 2709 
Q 2678 2784 2431 2784 
Q 1963 2784 1702 2511 
Q 1441 2238 1441 1747 
Q 1441 1256 1702 982 
Q 1963 709 2431 709 
Q 2694 709 2930 787 
Q 3166 866 3366 1019 
L 3366 103 
Q 3103 6 2833 -42 
Q 2563 -91 2291 -91 
Q 1344 -91 809 395 
Q 275 881 275 1747 
Q 275 2613 809 3098 
Q 1344 3584 2291 3584 
Q 2566 3584 2833 3536 
Q 3100 3488 3366 3391 
z
" transform="scale(0.015625)"/>
      <path id="DejaVuSans-Bold-20" transform="scale(0.015625)"/>
      <path id="DejaVuSans-Bold-41" d="M 3419 850 
L 1538 850 
L 1241 0 
L 31 0 
L 1759 4666 
L 3194 4666 
L 4922 0 
L 3713 0 
L 3419 850 
z
M 1838 1716 
L 3116 1716 
L 2478 3572 
L 1838 1716 
z
" transform="scale(0.015625)"/>
      <path id="DejaVuSans-Bold-72" d="M 3138 2547 
Q 2991 2616 2845 2648 
Q 2700 2681 2553 2681 
Q 2122 2681 1889 2404 
Q 1656 2128 1656 1613 
L 1656 0 
L 538 0 
L 538 3500 
L 1656 3500 
L 1656 2925 
Q 1872 3269 2151 3426 
Q 2431 3584 2822 3584 
Q 2878 3584 2943 3579 
Q 3009 3575 3134 3559 
L 3138 2547 
z
" transform="scale(0.015625)"/>
      <path id="DejaVuSans-Bold-68" d="M 4056 2131 
L 4056 0 
L 2931 0 
L 2931 347 
L 2931 1625 
Q 2931 2084 2911 2256 
Q 2891 2428 2841 2509 
Q 2775 2619 2662 2680 
Q 2550 2741 2406 2741 
Q 2056 2741 1856 2470 
Q 1656 2200 1656 1722 
L 1656 0 
L 538 0 
L 538 4863 
L 1656 4863 
L 1656 2988 
Q 1909 3294 2193 3439 
Q 2478 3584 2822 3584 
Q 3428 3584 3742 3212 
Q 4056 2841 4056 2131 
z
" transform="scale(0.015625)"/>
      <path id="DejaVuSans-Bold-69" d="M 538 3500 
L 1656 3500 
L 1656 0 
L 538 0 
L 538 3500 
z
M 538 4863 
L 1656 4863 
L 1656 3950 
L 538 3950 
L 538 4863 
z
" transform="scale(0.015625)"/>
      <path id="DejaVuSans-Bold-74" d="M 1759 4494 
L 1759 3500 
L 2913 3500 
L 2913 2700 
L 1759 2700 
L 1759 1216 
Q 1759 972 1856 886 
Q 1953 800 2241 800 
L 2816 800 
L 2816 0 
L 1856 0 
Q 1194 0 917 276 
Q 641 553 641 1216 
L 641 2700 
L 84 2700 
L 84 3500 
L 641 3500 
L 641 4494 
L 1759 4494 
z
" transform="scale(0.015625)"/>
      <path id="DejaVuSans-Bold-75" d="M 500 1363 
L 500 3500 
L 1625 3500 
L 1625 3150 
Q 1625 2866 1622 2436 
Q 1619 2006 1619 1863 
Q 1619 1441 1641 1255 
Q 1663 1069 1716 984 
Q 1784 875 1895 815 
Q 2006 756 2150 756 
Q 2500 756 2700 1025 
Q 2900 1294 2900 1772 
L 2900 3500 
L 4019 3500 
L 4019 0 
L 2900 0 
L 2900 506 
Q 2647 200 2364 54 
Q 2081 -91 1741 -91 
Q 1134 -91 817 281 
Q 500 653 500 1363 
z
" transform="scale(0.015625)"/>
     </defs>
     <use xlink:href="#DejaVuSans-Bold-47"/>
     <use xlink:href="#DejaVuSans-Bold-52" x="82.080078"/>
     <use xlink:href="#DejaVuSans-Bold-55" x="159.082031"/>
     <use xlink:href="#DejaVuSans-Bold-34" x="240.283203"/>
     <use xlink:href="#DejaVuSans-Bold-52" x="309.863281"/>
     <use xlink:href="#DejaVuSans-Bold-65" x="386.865234"/>
     <use xlink:href="#DejaVuSans-Bold-63" x="454.6875"/>
     <use xlink:href="#DejaVuSans-Bold-20" x="513.964844"/>
     <use xlink:href="#DejaVuSans-Bold-41" x="548.779297"/>
     <use xlink:href="#DejaVuSans-Bold-72" x="626.171875"/>
     <use xlink:href="#DejaVuSans-Bold-63" x="675.488281"/>
     <use xlink:href="#DejaVuSans-Bold-68" x="734.765625"/>
     <use xlink:href="#DejaVuSans-Bold-69" x="805.957031"/>
     <use xlink:href="#DejaVuSans-Bold-74" x="840.234375"/>
     <use xlink:href="#DejaVuSans-Bold-65" x="888.037109"/>
     <use xlink:href="#DejaVuSans-Bold-63" x="955.859375"/>
     <use xlink:href="#DejaVuSans-Bold-74" x="1015.136719"/>
     <use xlink:href="#DejaVuSans-Bold-75" x="1062.939453"/>
     <use xlink:href="#DejaVuSans-Bold-72" x="1134.130859"/>
     <use xlink:href="#DejaVuSans-Bold-65" x="1183.447266"/>
    </g>
   </g>
   <g id="text_2">
    <!-- Input Session: [item₁, item₂, item₃, ...] -->
    <g transform="translate(228.009375 76.5) scale(0.12 -0.12)">
     <defs>
      <path id="DejaVuSans-Oblique-49" d="M 1081 4666 
L 1716 4666 
L 806 0 
L 172 0 
L 1081 4666 
z
" transform="scale(0.015625)"/>
      <path id="DejaVuSans-Oblique-6e" d="M 3566 2113 
L 3156 0 
L 2578 0 
L 2988 2091 
Q 3016 2238 3031 2350 
Q 3047 2463 3047 2528 
Q 3047 2791 2881 2937 
Q 2716 3084 2419 3084 
Q 1956 3084 1622 2776 
Q 1288 2469 1184 1941 
L 800 0 
L 225 0 
L 903 3500 
L 1478 3500 
L 1363 2950 
Q 1603 3253 1940 3418 
Q 2278 3584 2650 3584 
Q 3113 3584 3367 3334 
Q 3622 3084 3622 2631 
Q 3622 2519 3608 2391 
Q 3594 2263 3566 2113 
z
" transform="scale(0.015625)"/>
      <path id="DejaVuSans-Oblique-70" d="M 3175 2156 
Q 3175 2616 2975 2859 
Q 2775 3103 2400 3103 
Q 2144 3103 1911 2972 
Q 1678 2841 1497 2591 
Q 1319 2344 1212 1994 
Q 1106 1644 1106 1300 
Q 1106 863 1306 627 
Q 1506 391 1875 391 
Q 2147 391 2380 519 
Q 2613 647 2778 891 
Q 2956 1147 3065 1494 
Q 3175 1841 3175 2156 
z
M 1394 2969 
Q 1625 3272 1939 3428 
Q 2253 3584 2638 3584 
Q 3175 3584 3472 3232 
Q 3769 2881 3769 2247 
Q 3769 1728 3584 1258 
Q 3400 788 3053 416 
Q 2822 169 2531 39 
Q 2241 -91 1919 -91 
Q 1547 -91 1294 64 
Q 1041 219 916 525 
L 556 -1331 
L -19 -1331 
L 922 3500 
L 1497 3500 
L 1394 2969 
z
" transform="scale(0.015625)"/>
      <path id="DejaVuSans-Oblique-75" d="M 428 1388 
L 838 3500 
L 1416 3500 
L 1006 1409 
Q 975 1256 961 1147 
Q 947 1038 947 966 
Q 947 700 1109 554 
Q 1272 409 1569 409 
Q 2031 409 2368 721 
Q 2706 1034 2809 1563 
L 3194 3500 
L 3769 3500 
L 3091 0 
L 2516 0 
L 2631 550 
Q 2388 244 2052 76 
Q 1716 -91 1338 -91 
Q 878 -91 622 161 
Q 366 413 366 863 
Q 366 956 381 1097 
Q 397 1238 428 1388 
z
" transform="scale(0.015625)"/>
      <path id="DejaVuSans-Oblique-74" d="M 2706 3500 
L 2619 3053 
L 1472 3053 
L 1100 1153 
Q 1081 1047 1072 975 
Q 1063 903 1063 863 
Q 1063 663 1183 572 
Q 1303 481 1569 481 
L 2150 481 
L 2053 0 
L 1503 0 
Q 991 0 739 200 
Q 488 400 488 806 
Q 488 878 497 964 
Q 506 1050 525 1153 
L 897 3053 
L 409 3053 
L 500 3500 
L 978 3500 
L 1172 4494 
L 1747 4494 
L 1556 3500 
L 2706 3500 
z
" transform="scale(0.015625)"/>
      <path id="DejaVuSans-Oblique-20" transform="scale(0.015625)"/>
      <path id="DejaVuSans-Oblique-53" d="M 3859 4513 
L 3738 3897 
Q 3422 4066 3111 4152 
Q 2800 4238 2509 4238 
Q 1944 4238 1609 3991 
Q 1275 3744 1275 3334 
Q 1275 3109 1398 2989 
Q 1522 2869 2034 2731 
L 2413 2638 
Q 3053 2472 3303 2217 
Q 3553 1963 3553 1503 
Q 3553 797 2998 353 
Q 2444 -91 1538 -91 
Q 1166 -91 791 -17 
Q 416 56 38 206 
L 166 856 
Q 513 641 861 531 
Q 1209 422 1556 422 
Q 2147 422 2503 684 
Q 2859 947 2859 1369 
Q 2859 1650 2717 1795 
Q 2575 1941 2106 2059 
L 1728 2156 
Q 1081 2325 845 2545 
Q 609 2766 609 3163 
Q 609 3859 1145 4304 
Q 1681 4750 2541 4750 
Q 2875 4750 3203 4690 
Q 3531 4631 3859 4513 
z
" transform="scale(0.015625)"/>
      <path id="DejaVuSans-Oblique-65" d="M 3078 2063 
Q 3088 2113 3092 2166 
Q 3097 2219 3097 2272 
Q 3097 2653 2873 2875 
Q 2650 3097 2266 3097 
Q 1838 3097 1509 2826 
Q 1181 2556 1013 2059 
L 3078 2063 
z
M 3578 1613 
L 903 1613 
Q 884 1494 878 1425 
Q 872 1356 872 1306 
Q 872 872 1139 634 
Q 1406 397 1894 397 
Q 2269 397 2603 481 
Q 2938 566 3225 728 
L 3116 159 
Q 2806 34 2476 -28 
Q 2147 -91 1806 -91 
Q 1078 -91 686 257 
Q 294 606 294 1247 
Q 294 1794 489 2264 
Q 684 2734 1063 3103 
Q 1306 3334 1642 3459 
Q 1978 3584 2356 3584 
Q 2950 3584 3301 3228 
Q 3653 2872 3653 2272 
Q 3653 2128 3634 1964 
Q 3616 1800 3578 1613 
z
" transform="scale(0.015625)"/>
      <path id="DejaVuSans-Oblique-73" d="M 3200 3397 
L 3091 2853 
Q 2863 2978 2609 3040 
Q 2356 3103 2088 3103 
Q 1634 3103 1373 2948 
Q 1113 2794 1113 2528 
Q 1113 2219 1719 2053 
Q 1766 2041 1788 2034 
L 1972 1978 
Q 2547 1819 2739 1644 
Q 2931 1469 2931 1166 
Q 2931 609 2489 259 
Q 2047 -91 1331 -91 
Q 1053 -91 747 -37 
Q 441 16 72 128 
L 184 722 
Q 500 559 806 475 
Q 1113 391 1394 391 
Q 1816 391 2080 572 
Q 2344 753 2344 1031 
Q 2344 1331 1650 1516 
L 1591 1531 
L 1394 1581 
Q 956 1697 753 1886 
Q 550 2075 550 2369 
Q 550 2928 970 3256 
Q 1391 3584 2113 3584 
Q 2397 3584 2667 3537 
Q 2938 3491 3200 3397 
z
" transform="scale(0.015625)"/>
      <path id="DejaVuSans-Oblique-69" d="M 1172 4863 
L 1747 4863 
L 1606 4134 
L 1031 4134 
L 1172 4863 
z
M 909 3500 
L 1484 3500 
L 800 0 
L 225 0 
L 909 3500 
z
" transform="scale(0.015625)"/>
      <path id="DejaVuSans-Oblique-6f" d="M 1625 -91 
Q 1009 -91 651 289 
Q 294 669 294 1325 
Q 294 1706 417 2101 
Q 541 2497 738 2766 
Q 1047 3184 1428 3384 
Q 1809 3584 2291 3584 
Q 2888 3584 3255 3212 
Q 3622 2841 3622 2241 
Q 3622 1825 3500 1412 
Q 3378 1000 3181 728 
Q 2875 309 2494 109 
Q 2113 -91 1625 -91 
z
M 891 1344 
Q 891 869 1089 633 
Q 1288 397 1691 397 
Q 2269 397 2648 901 
Q 3028 1406 3028 2181 
Q 3028 2634 2825 2865 
Q 2622 3097 2228 3097 
Q 1903 3097 1650 2945 
Q 1397 2794 1197 2484 
Q 1050 2253 970 1956 
Q 891 1659 891 1344 
z
" transform="scale(0.015625)"/>
      <path id="DejaVuSans-Oblique-3a" d="M 978 3309 
L 1638 3309 
L 1484 2516 
L 825 2516 
L 978 3309 
z
M 488 794 
L 1147 794 
L 991 0 
L 331 0 
L 488 794 
z
" transform="scale(0.015625)"/>
      <path id="DejaVuSans-Oblique-5b" d="M 1363 4863 
L 2688 4863 
L 2597 4416 
L 1850 4416 
L 916 -397 
L 1663 -397 
L 1581 -844 
L 256 -844 
L 1363 4863 
z
" transform="scale(0.015625)"/>
      <path id="DejaVuSans-Oblique-6d" d="M 5747 2113 
L 5338 0 
L 4763 0 
L 5166 2094 
Q 5191 2228 5203 2325 
Q 5216 2422 5216 2491 
Q 5216 2772 5059 2928 
Q 4903 3084 4622 3084 
Q 4203 3084 3875 2770 
Q 3547 2456 3450 1953 
L 3066 0 
L 2491 0 
L 2900 2094 
Q 2925 2209 2937 2307 
Q 2950 2406 2950 2484 
Q 2950 2769 2794 2926 
Q 2638 3084 2363 3084 
Q 1938 3084 1609 2770 
Q 1281 2456 1184 1953 
L 800 0 
L 225 0 
L 909 3500 
L 1484 3500 
L 1375 2956 
Q 1609 3263 1923 3423 
Q 2238 3584 2597 3584 
Q 2978 3584 3223 3384 
Q 3469 3184 3519 2828 
Q 3781 3197 4126 3390 
Q 4472 3584 4856 3584 
Q 5306 3584 5551 3325 
Q 5797 3066 5797 2591 
Q 5797 2488 5784 2364 
Q 5772 2241 5747 2113 
z
" transform="scale(0.015625)"/>
      <path id="DejaVuSans-Oblique-2081" d="M 488 343 
L 1125 343 
L 1497 2253 
L 781 2125 
L 850 2487 
L 1569 2609 
L 2022 2609 
L 1581 343 
L 2222 343 
L 2150 0 
L 422 0 
L 488 343 
z
" transform="scale(0.015625)"/>
      <path id="DejaVuSans-Oblique-2c" d="M 575 794 
L 1234 794 
L 1131 256 
L 422 -744 
L 19 -744 
L 469 256 
L 575 794 
z
" transform="scale(0.015625)"/>
      <path id="DejaVuSans-Oblique-2082" d="M 2059 1318 
L 856 356 
L 2234 356 
L 2163 0 
L 231 0 
L 300 343 
L 1619 1406 
Q 1803 1550 1893 1684 
Q 1984 1818 1984 1943 
Q 1984 2112 1853 2216 
Q 1722 2321 1503 2321 
Q 1331 2321 1125 2268 
Q 919 2215 659 2103 
L 738 2487 
Q 975 2575 1187 2618 
Q 1400 2662 1600 2662 
Q 1984 2662 2223 2484 
Q 2463 2306 2463 2028 
Q 2463 1834 2363 1657 
Q 2263 1481 2059 1318 
z
" transform="scale(0.015625)"/>
      <path id="DejaVuSans-Oblique-2083" d="M 672 2553 
Q 931 2609 1128 2635 
Q 1325 2662 1497 2662 
Q 1888 2662 2122 2498 
Q 2356 2334 2356 2065 
Q 2356 1825 2178 1646 
Q 2000 1468 1697 1412 
Q 1931 1362 2056 1215 
Q 2181 1068 2181 843 
Q 2181 446 1832 199 
Q 1484 -47 909 -47 
Q 709 -47 506 -14 
Q 303 18 103 81 
L 178 459 
Q 344 375 519 334 
Q 694 293 891 293 
Q 1275 293 1492 437 
Q 1709 581 1709 837 
Q 1709 1031 1557 1129 
Q 1406 1228 1100 1228 
L 831 1228 
L 903 1565 
L 1191 1565 
Q 1509 1565 1689 1677 
Q 1869 1790 1869 1990 
Q 1869 2156 1741 2238 
Q 1613 2321 1356 2321 
Q 1181 2321 987 2288 
Q 794 2256 603 2193 
L 672 2553 
z
" transform="scale(0.015625)"/>
      <path id="DejaVuSans-Oblique-2e" d="M 525 794 
L 1184 794 
L 1031 0 
L 372 0 
L 525 794 
z
" transform="scale(0.015625)"/>
      <path id="DejaVuSans-Oblique-5d" d="M 2188 4863 
L 1081 -844 
L -244 -844 
L -159 -397 
L 588 -397 
L 1522 4416 
L 781 4416 
L 863 4863 
L 2188 4863 
z
" transform="scale(0.015625)"/>
     </defs>
     <use xlink:href="#DejaVuSans-Oblique-49"/>
     <use xlink:href="#DejaVuSans-Oblique-6e" x="29.492188"/>
     <use xlink:href="#DejaVuSans-Oblique-70" x="92.871094"/>
     <use xlink:href="#DejaVuSans-Oblique-75" x="156.347656"/>
     <use xlink:href="#DejaVuSans-Oblique-74" x="219.726562"/>
     <use xlink:href="#DejaVuSans-Oblique-20" x="258.935547"/>
     <use xlink:href="#DejaVuSans-Oblique-53" x="290.722656"/>
     <use xlink:href="#DejaVuSans-Oblique-65" x="354.199219"/>
     <use xlink:href="#DejaVuSans-Oblique-73" x="415.722656"/>
     <use xlink:href="#DejaVuSans-Oblique-73" x="467.822266"/>
     <use xlink:href="#DejaVuSans-Oblique-69" x="519.921875"/>
     <use xlink:href="#DejaVuSans-Oblique-6f" x="547.705078"/>
     <use xlink:href="#DejaVuSans-Oblique-6e" x="608.886719"/>
     <use xlink:href="#DejaVuSans-Oblique-3a" x="672.265625"/>
     <use xlink:href="#DejaVuSans-Oblique-20" x="705.957031"/>
     <use xlink:href="#DejaVuSans-Oblique-5b" x="737.744141"/>
     <use xlink:href="#DejaVuSans-Oblique-69" x="776.757812"/>
     <use xlink:href="#DejaVuSans-Oblique-74" x="804.541016"/>
     <use xlink:href="#DejaVuSans-Oblique-65" x="843.75"/>
     <use xlink:href="#DejaVuSans-Oblique-6d" x="905.273438"/>
     <use xlink:href="#DejaVuSans-Oblique-2081" x="1002.685547"/>
     <use xlink:href="#DejaVuSans-Oblique-2c" x="1042.773438"/>
     <use xlink:href="#DejaVuSans-Oblique-20" x="1074.560547"/>
     <use xlink:href="#DejaVuSans-Oblique-69" x="1106.347656"/>
     <use xlink:href="#DejaVuSans-Oblique-74" x="1134.130859"/>
     <use xlink:href="#DejaVuSans-Oblique-65" x="1173.339844"/>
     <use xlink:href="#DejaVuSans-Oblique-6d" x="1234.863281"/>
     <use xlink:href="#DejaVuSans-Oblique-2082" x="1332.275391"/>
     <use xlink:href="#DejaVuSans-Oblique-2c" x="1372.363281"/>
     <use xlink:href="#DejaVuSans-Oblique-20" x="1404.150391"/>
     <use xlink:href="#DejaVuSans-Oblique-69" x="1435.9375"/>
     <use xlink:href="#DejaVuSans-Oblique-74" x="1463.720703"/>
     <use xlink:href="#DejaVuSans-Oblique-65" x="1502.929688"/>
     <use xlink:href="#DejaVuSans-Oblique-6d" x="1564.453125"/>
     <use xlink:href="#DejaVuSans-Oblique-2083" x="1661.865234"/>
     <use xlink:href="#DejaVuSans-Oblique-2c" x="1701.953125"/>
     <use xlink:href="#DejaVuSans-Oblique-20" x="1733.740234"/>
     <use xlink:href="#DejaVuSans-Oblique-2e" x="1765.527344"/>
     <use xlink:href="#DejaVuSans-Oblique-2e" x="1797.314453"/>
     <use xlink:href="#DejaVuSans-Oblique-2e" x="1829.101562"/>
     <use xlink:href="#DejaVuSans-Oblique-5d" x="1860.888672"/>
    </g>
   </g>
   <g id="text_3">
    <!-- Embedding Layer -->
    <g style="fill: #3498db" transform="translate(273.585937 141.18) scale(0.14 -0.14)">
     <defs>
      <path id="DejaVuSans-Bold-45" d="M 588 4666 
L 3834 4666 
L 3834 3756 
L 1791 3756 
L 1791 2888 
L 3713 2888 
L 3713 1978 
L 1791 1978 
L 1791 909 
L 3903 909 
L 3903 0 
L 588 0 
L 588 4666 
z
" transform="scale(0.015625)"/>
      <path id="DejaVuSans-Bold-6d" d="M 3781 2919 
Q 3994 3244 4286 3414 
Q 4578 3584 4928 3584 
Q 5531 3584 5847 3212 
Q 6163 2841 6163 2131 
L 6163 0 
L 5038 0 
L 5038 1825 
Q 5041 1866 5042 1909 
Q 5044 1953 5044 2034 
Q 5044 2406 4934 2573 
Q 4825 2741 4581 2741 
Q 4263 2741 4089 2478 
Q 3916 2216 3909 1719 
L 3909 0 
L 2784 0 
L 2784 1825 
Q 2784 2406 2684 2573 
Q 2584 2741 2328 2741 
Q 2006 2741 1831 2477 
Q 1656 2213 1656 1722 
L 1656 0 
L 531 0 
L 531 3500 
L 1656 3500 
L 1656 2988 
Q 1863 3284 2130 3434 
Q 2397 3584 2719 3584 
Q 3081 3584 3359 3409 
Q 3638 3234 3781 2919 
z
" transform="scale(0.015625)"/>
      <path id="DejaVuSans-Bold-62" d="M 2400 722 
Q 2759 722 2948 984 
Q 3138 1247 3138 1747 
Q 3138 2247 2948 2509 
Q 2759 2772 2400 2772 
Q 2041 2772 1848 2508 
Q 1656 2244 1656 1747 
Q 1656 1250 1848 986 
Q 2041 722 2400 722 
z
M 1656 2988 
Q 1888 3294 2169 3439 
Q 2450 3584 2816 3584 
Q 3463 3584 3878 3070 
Q 4294 2556 4294 1747 
Q 4294 938 3878 423 
Q 3463 -91 2816 -91 
Q 2450 -91 2169 54 
Q 1888 200 1656 506 
L 1656 0 
L 538 0 
L 538 4863 
L 1656 4863 
L 1656 2988 
z
" transform="scale(0.015625)"/>
      <path id="DejaVuSans-Bold-64" d="M 2919 2988 
L 2919 4863 
L 4044 4863 
L 4044 0 
L 2919 0 
L 2919 506 
Q 2688 197 2409 53 
Q 2131 -91 1766 -91 
Q 1119 -91 703 423 
Q 288 938 288 1747 
Q 288 2556 703 3070 
Q 1119 3584 1766 3584 
Q 2128 3584 2408 3439 
Q 2688 3294 2919 2988 
z
M 2181 722 
Q 2541 722 2730 984 
Q 2919 1247 2919 1747 
Q 2919 2247 2730 2509 
Q 2541 2772 2181 2772 
Q 1825 2772 1636 2509 
Q 1447 2247 1447 1747 
Q 1447 1247 1636 984 
Q 1825 722 2181 722 
z
" transform="scale(0.015625)"/>
      <path id="DejaVuSans-Bold-6e" d="M 4056 2131 
L 4056 0 
L 2931 0 
L 2931 347 
L 2931 1631 
Q 2931 2084 2911 2256 
Q 2891 2428 2841 2509 
Q 2775 2619 2662 2680 
Q 2550 2741 2406 2741 
Q 2056 2741 1856 2470 
Q 1656 2200 1656 1722 
L 1656 0 
L 538 0 
L 538 3500 
L 1656 3500 
L 1656 2988 
Q 1909 3294 2193 3439 
Q 2478 3584 2822 3584 
Q 3428 3584 3742 3212 
Q 4056 2841 4056 2131 
z
" transform="scale(0.015625)"/>
      <path id="DejaVuSans-Bold-67" d="M 2919 594 
Q 2688 288 2409 144 
Q 2131 0 1766 0 
Q 1125 0 706 504 
Q 288 1009 288 1791 
Q 288 2575 706 3076 
Q 1125 3578 1766 3578 
Q 2131 3578 2409 3434 
Q 2688 3291 2919 2981 
L 2919 3500 
L 4044 3500 
L 4044 353 
Q 4044 -491 3511 -936 
Q 2978 -1381 1966 -1381 
Q 1638 -1381 1331 -1331 
Q 1025 -1281 716 -1178 
L 716 -306 
Q 1009 -475 1290 -558 
Q 1572 -641 1856 -641 
Q 2406 -641 2662 -400 
Q 2919 -159 2919 353 
L 2919 594 
z
M 2181 2772 
Q 1834 2772 1640 2515 
Q 1447 2259 1447 1791 
Q 1447 1309 1634 1061 
Q 1822 813 2181 813 
Q 2531 813 2725 1069 
Q 2919 1325 2919 1791 
Q 2919 2259 2725 2515 
Q 2531 2772 2181 2772 
z
" transform="scale(0.015625)"/>
      <path id="DejaVuSans-Bold-4c" d="M 588 4666 
L 1791 4666 
L 1791 909 
L 3903 909 
L 3903 0 
L 588 0 
L 588 4666 
z
" transform="scale(0.015625)"/>
      <path id="DejaVuSans-Bold-61" d="M 2106 1575 
Q 1756 1575 1579 1456 
Q 1403 1338 1403 1106 
Q 1403 894 1545 773 
Q 1688 653 1941 653 
Q 2256 653 2472 879 
Q 2688 1106 2688 1447 
L 2688 1575 
L 2106 1575 
z
M 3816 1997 
L 3816 0 
L 2688 0 
L 2688 519 
Q 2463 200 2181 54 
Q 1900 -91 1497 -91 
Q 953 -91 614 226 
Q 275 544 275 1050 
Q 275 1666 698 1953 
Q 1122 2241 2028 2241 
L 2688 2241 
L 2688 2328 
Q 2688 2594 2478 2717 
Q 2269 2841 1825 2841 
Q 1466 2841 1156 2769 
Q 847 2697 581 2553 
L 581 3406 
Q 941 3494 1303 3539 
Q 1666 3584 2028 3584 
Q 2975 3584 3395 3211 
Q 3816 2838 3816 1997 
z
" transform="scale(0.015625)"/>
      <path id="DejaVuSans-Bold-79" d="M 78 3500 
L 1197 3500 
L 2138 1125 
L 2938 3500 
L 4056 3500 
L 2584 -331 
Q 2363 -916 2067 -1148 
Q 1772 -1381 1288 -1381 
L 641 -1381 
L 641 -647 
L 991 -647 
Q 1275 -647 1404 -556 
Q 1534 -466 1606 -231 
L 1638 -134 
L 78 3500 
z
" transform="scale(0.015625)"/>
     </defs>
     <use xlink:href="#DejaVuSans-Bold-45"/>
     <use xlink:href="#DejaVuSans-Bold-6d" x="68.310547"/>
     <use xlink:href="#DejaVuSans-Bold-62" x="172.509766"/>
     <use xlink:href="#DejaVuSans-Bold-65" x="244.091797"/>
     <use xlink:href="#DejaVuSans-Bold-64" x="311.914062"/>
     <use xlink:href="#DejaVuSans-Bold-64" x="383.496094"/>
     <use xlink:href="#DejaVuSans-Bold-69" x="455.078125"/>
     <use xlink:href="#DejaVuSans-Bold-6e" x="489.355469"/>
     <use xlink:href="#DejaVuSans-Bold-67" x="560.546875"/>
     <use xlink:href="#DejaVuSans-Bold-20" x="632.128906"/>
     <use xlink:href="#DejaVuSans-Bold-4c" x="666.943359"/>
     <use xlink:href="#DejaVuSans-Bold-61" x="730.664062"/>
     <use xlink:href="#DejaVuSans-Bold-79" x="795.019531"/>
     <use xlink:href="#DejaVuSans-Bold-65" x="860.205078"/>
     <use xlink:href="#DejaVuSans-Bold-72" x="928.027344"/>
    </g>
   </g>
   <g id="text_4">
    <!-- Items → Dense Vectors -->
    <g transform="translate(284.741406 159.66) scale(0.1 -0.1)">
     <defs>
      <path id="DejaVuSans-49" d="M 628 4666 
L 1259 4666 
L 1259 0 
L 628 0 
L 628 4666 
z
" transform="scale(0.015625)"/>
      <path id="DejaVuSans-74" d="M 1172 4494 
L 1172 3500 
L 2356 3500 
L 2356 3053 
L 1172 3053 
L 1172 1153 
Q 1172 725 1289 603 
Q 1406 481 1766 481 
L 2356 481 
L 2356 0 
L 1766 0 
Q 1100 0 847 248 
Q 594 497 594 1153 
L 594 3053 
L 172 3053 
L 172 3500 
L 594 3500 
L 594 4494 
L 1172 4494 
z
" transform="scale(0.015625)"/>
      <path id="DejaVuSans-65" d="M 3597 1894 
L 3597 1613 
L 953 1613 
Q 991 1019 1311 708 
Q 1631 397 2203 397 
Q 2534 397 2845 478 
Q 3156 559 3463 722 
L 3463 178 
Q 3153 47 2828 -22 
Q 2503 -91 2169 -91 
Q 1331 -91 842 396 
Q 353 884 353 1716 
Q 353 2575 817 3079 
Q 1281 3584 2069 3584 
Q 2775 3584 3186 3129 
Q 3597 2675 3597 1894 
z
M 3022 2063 
Q 3016 2534 2758 2815 
Q 2500 3097 2075 3097 
Q 1594 3097 1305 2825 
Q 1016 2553 972 2059 
L 3022 2063 
z
" transform="scale(0.015625)"/>
      <path id="DejaVuSans-6d" d="M 3328 2828 
Q 3544 3216 3844 3400 
Q 4144 3584 4550 3584 
Q 5097 3584 5394 3201 
Q 5691 2819 5691 2113 
L 5691 0 
L 5113 0 
L 5113 2094 
Q 5113 2597 4934 2840 
Q 4756 3084 4391 3084 
Q 3944 3084 3684 2787 
Q 3425 2491 3425 1978 
L 3425 0 
L 2847 0 
L 2847 2094 
Q 2847 2600 2669 2842 
Q 2491 3084 2119 3084 
Q 1678 3084 1418 2786 
Q 1159 2488 1159 1978 
L 1159 0 
L 581 0 
L 581 3500 
L 1159 3500 
L 1159 2956 
Q 1356 3278 1631 3431 
Q 1906 3584 2284 3584 
Q 2666 3584 2933 3390 
Q 3200 3197 3328 2828 
z
" transform="scale(0.015625)"/>
      <path id="DejaVuSans-73" d="M 2834 3397 
L 2834 2853 
Q 2591 2978 2328 3040 
Q 2066 3103 1784 3103 
Q 1356 3103 1142 2972 
Q 928 2841 928 2578 
Q 928 2378 1081 2264 
Q 1234 2150 1697 2047 
L 1894 2003 
Q 2506 1872 2764 1633 
Q 3022 1394 3022 966 
Q 3022 478 2636 193 
Q 2250 -91 1575 -91 
Q 1294 -91 989 -36 
Q 684 19 347 128 
L 347 722 
Q 666 556 975 473 
Q 1284 391 1588 391 
Q 1994 391 2212 530 
Q 2431 669 2431 922 
Q 2431 1156 2273 1281 
Q 2116 1406 1581 1522 
L 1381 1569 
Q 847 1681 609 1914 
Q 372 2147 372 2553 
Q 372 3047 722 3315 
Q 1072 3584 1716 3584 
Q 2034 3584 2315 3537 
Q 2597 3491 2834 3397 
z
" transform="scale(0.015625)"/>
      <path id="DejaVuSans-20" transform="scale(0.015625)"/>
      <path id="DejaVuSans-2192" d="M 5050 2147 
L 5050 1866 
L 3822 638 
L 3447 1013 
L 4175 1741 
L 366 1741 
L 366 2272 
L 4175 2272 
L 3447 3000 
L 3822 3375 
L 5050 2147 
z
" transform="scale(0.015625)"/>
      <path id="DejaVuSans-44" d="M 1259 4147 
L 1259 519 
L 2022 519 
Q 2988 519 3436 956 
Q 3884 1394 3884 2338 
Q 3884 3275 3436 3711 
Q 2988 4147 2022 4147 
L 1259 4147 
z
M 628 4666 
L 1925 4666 
Q 3281 4666 3915 4102 
Q 4550 3538 4550 2338 
Q 4550 1131 3912 565 
Q 3275 0 1925 0 
L 628 0 
L 628 4666 
z
" transform="scale(0.015625)"/>
      <path id="DejaVuSans-6e" d="M 3513 2113 
L 3513 0 
L 2938 0 
L 2938 2094 
Q 2938 2591 2744 2837 
Q 2550 3084 2163 3084 
Q 1697 3084 1428 2787 
Q 1159 2491 1159 1978 
L 1159 0 
L 581 0 
L 581 3500 
L 1159 3500 
L 1159 2956 
Q 1366 3272 1645 3428 
Q 1925 3584 2291 3584 
Q 2894 3584 3203 3211 
Q 3513 2838 3513 2113 
z
" transform="scale(0.015625)"/>
      <path id="DejaVuSans-56" d="M 1831 0 
L 50 4666 
L 709 4666 
L 2188 738 
L 3669 4666 
L 4325 4666 
L 2547 0 
L 1831 0 
z
" transform="scale(0.015625)"/>
      <path id="DejaVuSans-63" d="M 3122 3366 
L 3122 2828 
Q 2878 2963 2633 3030 
Q 2388 3097 2138 3097 
Q 1578 3097 1268 2742 
Q 959 2388 959 1747 
Q 959 1106 1268 751 
Q 1578 397 2138 397 
Q 2388 397 2633 464 
Q 2878 531 3122 666 
L 3122 134 
Q 2881 22 2623 -34 
Q 2366 -91 2075 -91 
Q 1284 -91 818 406 
Q 353 903 353 1747 
Q 353 2603 823 3093 
Q 1294 3584 2113 3584 
Q 2378 3584 2631 3529 
Q 2884 3475 3122 3366 
z
" transform="scale(0.015625)"/>
      <path id="DejaVuSans-6f" d="M 1959 3097 
Q 1497 3097 1228 2736 
Q 959 2375 959 1747 
Q 959 1119 1226 758 
Q 1494 397 1959 397 
Q 2419 397 2687 759 
Q 2956 1122 2956 1747 
Q 2956 2369 2687 2733 
Q 2419 3097 1959 3097 
z
M 1959 3584 
Q 2709 3584 3137 3096 
Q 3566 2609 3566 1747 
Q 3566 888 3137 398 
Q 2709 -91 1959 -91 
Q 1206 -91 779 398 
Q 353 888 353 1747 
Q 353 2609 779 3096 
Q 1206 3584 1959 3584 
z
" transform="scale(0.015625)"/>
      <path id="DejaVuSans-72" d="M 2631 2963 
Q 2534 3019 2420 3045 
Q 2306 3072 2169 3072 
Q 1681 3072 1420 2755 
Q 1159 2438 1159 1844 
L 1159 0 
L 581 0 
L 581 3500 
L 1159 3500 
L 1159 2956 
Q 1341 3275 1631 3429 
Q 1922 3584 2338 3584 
Q 2397 3584 2469 3576 
Q 2541 3569 2628 3553 
L 2631 2963 
z
" transform="scale(0.015625)"/>
     </defs>
     <use xlink:href="#DejaVuSans-49"/>
     <use xlink:href="#DejaVuSans-74" x="29.492188"/>
     <use xlink:href="#DejaVuSans-65" x="68.701172"/>
     <use xlink:href="#DejaVuSans-6d" x="130.224609"/>
     <use xlink:href="#DejaVuSans-73" x="227.636719"/>
     <use xlink:href="#DejaVuSans-20" x="279.736328"/>
     <use xlink:href="#DejaVuSans-2192" x="311.523438"/>
     <use xlink:href="#DejaVuSans-20" x="395.3125"/>
     <use xlink:href="#DejaVuSans-44" x="427.099609"/>
     <use xlink:href="#DejaVuSans-65" x="504.101562"/>
     <use xlink:href="#DejaVuSans-6e" x="565.625"/>
     <use xlink:href="#DejaVuSans-73" x="629.003906"/>
     <use xlink:href="#DejaVuSans-65" x="681.103516"/>
     <use xlink:href="#DejaVuSans-20" x="742.626953"/>
     <use xlink:href="#DejaVuSans-56" x="774.414062"/>
     <use xlink:href="#DejaVuSans-65" x="835.072266"/>
     <use xlink:href="#DejaVuSans-63" x="896.595703"/>
     <use xlink:href="#DejaVuSans-74" x="951.576172"/>
     <use xlink:href="#DejaVuSans-6f" x="990.785156"/>
     <use xlink:href="#DejaVuSans-72" x="1051.966797"/>
     <use xlink:href="#DejaVuSans-73" x="1093.080078"/>
    </g>
   </g>
   <g id="patch_5">
    <path d="M 342 175.519819 
Q 342 187.379925 342 197.003962 
" style="fill: none; stroke: #000000; stroke-width: 2; stroke-linecap: round"/>
    <path d="M 344.4 192.203962 
L 342 197.003962 
L 339.6 192.203962 
" style="fill: none; stroke: #000000; stroke-width: 2; stroke-linecap: round"/>
   </g>
   <g id="text_5">
    <!-- GRU Layers -->
    <g style="fill: #e74c3c" transform="translate(296.848906 233.58) scale(0.14 -0.14)">
     <defs>
      <path id="DejaVuSans-Bold-73" d="M 3272 3391 
L 3272 2541 
Q 2913 2691 2578 2766 
Q 2244 2841 1947 2841 
Q 1628 2841 1473 2761 
Q 1319 2681 1319 2516 
Q 1319 2381 1436 2309 
Q 1553 2238 1856 2203 
L 2053 2175 
Q 2913 2066 3209 1816 
Q 3506 1566 3506 1031 
Q 3506 472 3093 190 
Q 2681 -91 1863 -91 
Q 1516 -91 1145 -36 
Q 775 19 384 128 
L 384 978 
Q 719 816 1070 734 
Q 1422 653 1784 653 
Q 2113 653 2278 743 
Q 2444 834 2444 1013 
Q 2444 1163 2330 1236 
Q 2216 1309 1875 1350 
L 1678 1375 
Q 931 1469 631 1722 
Q 331 1975 331 2491 
Q 331 3047 712 3315 
Q 1094 3584 1881 3584 
Q 2191 3584 2531 3537 
Q 2872 3491 3272 3391 
z
" transform="scale(0.015625)"/>
     </defs>
     <use xlink:href="#DejaVuSans-Bold-47"/>
     <use xlink:href="#DejaVuSans-Bold-52" x="82.080078"/>
     <use xlink:href="#DejaVuSans-Bold-55" x="159.082031"/>
     <use xlink:href="#DejaVuSans-Bold-20" x="240.283203"/>
     <use xlink:href="#DejaVuSans-Bold-4c" x="275.097656"/>
     <use xlink:href="#DejaVuSans-Bold-61" x="338.818359"/>
     <use xlink:href="#DejaVuSans-Bold-79" x="403.173828"/>
     <use xlink:href="#DejaVuSans-Bold-65" x="468.359375"/>
     <use xlink:href="#DejaVuSans-Bold-72" x="536.181641"/>
     <use xlink:href="#DejaVuSans-Bold-73" x="585.498047"/>
    </g>
   </g>
   <g id="text_6">
    <!-- hₜ = GRU(hₜ₋₁, xₜ) -->
    <g transform="translate(276.980625 261.3) scale(0.12 -0.12)">
     <defs>
      <path id="DejaVuSansMono-68" d="M 3284 2169 
L 3284 0 
L 2706 0 
L 2706 2169 
Q 2706 2641 2540 2862 
Q 2375 3084 2022 3084 
Q 1619 3084 1401 2798 
Q 1184 2513 1184 1978 
L 1184 0 
L 609 0 
L 609 4863 
L 1184 4863 
L 1184 2975 
Q 1338 3275 1600 3429 
Q 1863 3584 2222 3584 
Q 2756 3584 3020 3232 
Q 3284 2881 3284 2169 
z
" transform="scale(0.015625)"/>
      <path id="DejaVuSansMono-209c" d="M 1991 2515 
L 1991 1959 
L 2813 1959 
L 2813 1709 
L 1991 1709 
L 1991 646 
Q 1991 428 2083 342 
Q 2175 256 2406 256 
L 2813 256 
L 2813 0 
L 2372 0 
Q 1963 0 1795 145 
Q 1628 290 1628 646 
L 1628 1709 
L 1041 1709 
L 1041 1959 
L 1628 1959 
L 1628 2515 
L 1991 2515 
z
" transform="scale(0.015625)"/>
      <path id="DejaVuSansMono-20" transform="scale(0.015625)"/>
      <path id="DejaVuSansMono-3d" d="M 275 1638 
L 3578 1638 
L 3578 1100 
L 275 1100 
L 275 1638 
z
M 275 2906 
L 3578 2906 
L 3578 2375 
L 275 2375 
L 275 2906 
z
" transform="scale(0.015625)"/>
      <path id="DejaVuSansMono-47" d="M 3450 384 
Q 3197 150 2880 29 
Q 2563 -91 2194 -91 
Q 1306 -91 812 545 
Q 319 1181 319 2328 
Q 319 3472 819 4111 
Q 1319 4750 2209 4750 
Q 2503 4750 2772 4667 
Q 3041 4584 3291 4416 
L 3291 3769 
Q 3038 4009 2772 4123 
Q 2506 4238 2209 4238 
Q 1594 4238 1286 3761 
Q 978 3284 978 2328 
Q 978 1356 1276 889 
Q 1575 422 2194 422 
Q 2403 422 2561 470 
Q 2719 519 2847 622 
L 2847 1875 
L 2169 1875 
L 2169 2394 
L 3450 2394 
L 3450 384 
z
" transform="scale(0.015625)"/>
      <path id="DejaVuSansMono-52" d="M 2375 2203 
Q 2619 2141 2791 1967 
Q 2963 1794 3219 1275 
L 3853 0 
L 3175 0 
L 2619 1178 
Q 2378 1681 2186 1826 
Q 1994 1972 1684 1972 
L 1081 1972 
L 1081 0 
L 447 0 
L 447 4666 
L 1747 4666 
Q 2516 4666 2925 4319 
Q 3334 3972 3334 3316 
Q 3334 2853 3082 2561 
Q 2831 2269 2375 2203 
z
M 1081 4147 
L 1081 2491 
L 1772 2491 
Q 2225 2491 2447 2694 
Q 2669 2897 2669 3316 
Q 2669 3719 2433 3933 
Q 2197 4147 1747 4147 
L 1081 4147 
z
" transform="scale(0.015625)"/>
      <path id="DejaVuSansMono-55" d="M 459 1791 
L 459 4666 
L 1094 4666 
L 1094 1503 
Q 1094 1163 1112 1017 
Q 1131 872 1178 794 
Q 1278 609 1467 515 
Q 1656 422 1925 422 
Q 2197 422 2384 515 
Q 2572 609 2675 794 
Q 2722 872 2740 1015 
Q 2759 1159 2759 1497 
L 2759 4666 
L 3391 4666 
L 3391 1791 
Q 3391 1075 3302 773 
Q 3213 472 2994 275 
Q 2788 91 2522 0 
Q 2256 -91 1925 -91 
Q 1597 -91 1331 0 
Q 1066 91 856 275 
Q 641 469 550 776 
Q 459 1084 459 1791 
z
" transform="scale(0.015625)"/>
      <path id="DejaVuSansMono-28" d="M 2766 4856 
Q 2350 4144 2145 3436 
Q 1941 2728 1941 2009 
Q 1941 1294 2145 584 
Q 2350 -125 2766 -844 
L 2266 -844 
Q 1794 -100 1562 604 
Q 1331 1309 1331 2009 
Q 1331 2706 1562 3412 
Q 1794 4119 2266 4856 
L 2766 4856 
z
" transform="scale(0.015625)"/>
      <path id="DejaVuSansMono-208b" d="M 888 1271 
L 2969 1271 
L 2969 975 
L 888 975 
L 888 1271 
z
" transform="scale(0.015625)"/>
      <path id="DejaVuSansMono-2081" d="M 1131 343 
L 1772 343 
L 1772 2253 
L 1075 2125 
L 1075 2487 
L 1791 2609 
L 2222 2609 
L 2222 343 
L 2859 343 
L 2859 0 
L 1131 0 
L 1131 343 
z
" transform="scale(0.015625)"/>
      <path id="DejaVuSansMono-2c" d="M 1569 947 
L 2356 947 
L 2356 300 
L 1741 -897 
L 1259 -897 
L 1569 300 
L 1569 947 
z
" transform="scale(0.015625)"/>
      <path id="DejaVuSansMono-78" d="M 3494 3500 
L 2241 1825 
L 3616 0 
L 2950 0 
L 1925 1403 
L 903 0 
L 238 0 
L 1613 1825 
L 359 3500 
L 997 3500 
L 1925 2234 
L 2847 3500 
L 3494 3500 
z
" transform="scale(0.015625)"/>
      <path id="DejaVuSansMono-29" d="M 1088 4856 
L 1588 4856 
Q 2059 4119 2290 3412 
Q 2522 2706 2522 2009 
Q 2522 1306 2290 600 
Q 2059 -106 1588 -844 
L 1088 -844 
Q 1503 -119 1708 590 
Q 1913 1300 1913 2009 
Q 1913 2722 1708 3431 
Q 1503 4141 1088 4856 
z
" transform="scale(0.015625)"/>
     </defs>
     <use xlink:href="#DejaVuSansMono-68"/>
     <use xlink:href="#DejaVuSansMono-209c" x="60.205078"/>
     <use xlink:href="#DejaVuSansMono-20" x="120.410156"/>
     <use xlink:href="#DejaVuSansMono-3d" x="180.615234"/>
     <use xlink:href="#DejaVuSansMono-20" x="240.820312"/>
     <use xlink:href="#DejaVuSansMono-47" x="301.025391"/>
     <use xlink:href="#DejaVuSansMono-52" x="361.230469"/>
     <use xlink:href="#DejaVuSansMono-55" x="421.435547"/>
     <use xlink:href="#DejaVuSansMono-28" x="481.640625"/>
     <use xlink:href="#DejaVuSansMono-68" x="541.845703"/>
     <use xlink:href="#DejaVuSansMono-209c" x="602.050781"/>
     <use xlink:href="#DejaVuSansMono-208b" x="662.255859"/>
     <use xlink:href="#DejaVuSansMono-2081" x="722.460938"/>
     <use xlink:href="#DejaVuSansMono-2c" x="782.666016"/>
     <use xlink:href="#DejaVuSansMono-20" x="842.871094"/>
     <use xlink:href="#DejaVuSansMono-78" x="903.076172"/>
     <use xlink:href="#DejaVuSansMono-209c" x="963.28125"/>
     <use xlink:href="#DejaVuSansMono-29" x="1023.486328"/>
    </g>
   </g>
   <g id="text_7">
    <!-- Learns sequential patterns -->
    <g transform="translate(275.192969 289.02) scale(0.1 -0.1)">
     <defs>
      <path id="DejaVuSans-4c" d="M 628 4666 
L 1259 4666 
L 1259 531 
L 3531 531 
L 3531 0 
L 628 0 
L 628 4666 
z
" transform="scale(0.015625)"/>
      <path id="DejaVuSans-61" d="M 2194 1759 
Q 1497 1759 1228 1600 
Q 959 1441 959 1056 
Q 959 750 1161 570 
Q 1363 391 1709 391 
Q 2188 391 2477 730 
Q 2766 1069 2766 1631 
L 2766 1759 
L 2194 1759 
z
M 3341 1997 
L 3341 0 
L 2766 0 
L 2766 531 
Q 2569 213 2275 61 
Q 1981 -91 1556 -91 
Q 1019 -91 701 211 
Q 384 513 384 1019 
Q 384 1609 779 1909 
Q 1175 2209 1959 2209 
L 2766 2209 
L 2766 2266 
Q 2766 2663 2505 2880 
Q 2244 3097 1772 3097 
Q 1472 3097 1187 3025 
Q 903 2953 641 2809 
L 641 3341 
Q 956 3463 1253 3523 
Q 1550 3584 1831 3584 
Q 2591 3584 2966 3190 
Q 3341 2797 3341 1997 
z
" transform="scale(0.015625)"/>
      <path id="DejaVuSans-71" d="M 947 1747 
Q 947 1113 1208 752 
Q 1469 391 1925 391 
Q 2381 391 2643 752 
Q 2906 1113 2906 1747 
Q 2906 2381 2643 2742 
Q 2381 3103 1925 3103 
Q 1469 3103 1208 2742 
Q 947 2381 947 1747 
z
M 2906 525 
Q 2725 213 2448 61 
Q 2172 -91 1784 -91 
Q 1150 -91 751 415 
Q 353 922 353 1747 
Q 353 2572 751 3078 
Q 1150 3584 1784 3584 
Q 2172 3584 2448 3432 
Q 2725 3281 2906 2969 
L 2906 3500 
L 3481 3500 
L 3481 -1331 
L 2906 -1331 
L 2906 525 
z
" transform="scale(0.015625)"/>
      <path id="DejaVuSans-75" d="M 544 1381 
L 544 3500 
L 1119 3500 
L 1119 1403 
Q 1119 906 1312 657 
Q 1506 409 1894 409 
Q 2359 409 2629 706 
Q 2900 1003 2900 1516 
L 2900 3500 
L 3475 3500 
L 3475 0 
L 2900 0 
L 2900 538 
Q 2691 219 2414 64 
Q 2138 -91 1772 -91 
Q 1169 -91 856 284 
Q 544 659 544 1381 
z
M 1991 3584 
L 1991 3584 
z
" transform="scale(0.015625)"/>
      <path id="DejaVuSans-69" d="M 603 3500 
L 1178 3500 
L 1178 0 
L 603 0 
L 603 3500 
z
M 603 4863 
L 1178 4863 
L 1178 4134 
L 603 4134 
L 603 4863 
z
" transform="scale(0.015625)"/>
      <path id="DejaVuSans-6c" d="M 603 4863 
L 1178 4863 
L 1178 0 
L 603 0 
L 603 4863 
z
" transform="scale(0.015625)"/>
      <path id="DejaVuSans-70" d="M 1159 525 
L 1159 -1331 
L 581 -1331 
L 581 3500 
L 1159 3500 
L 1159 2969 
Q 1341 3281 1617 3432 
Q 1894 3584 2278 3584 
Q 2916 3584 3314 3078 
Q 3713 2572 3713 1747 
Q 3713 922 3314 415 
Q 2916 -91 2278 -91 
Q 1894 -91 1617 61 
Q 1341 213 1159 525 
z
M 3116 1747 
Q 3116 2381 2855 2742 
Q 2594 3103 2138 3103 
Q 1681 3103 1420 2742 
Q 1159 2381 1159 1747 
Q 1159 1113 1420 752 
Q 1681 391 2138 391 
Q 2594 391 2855 752 
Q 3116 1113 3116 1747 
z
" transform="scale(0.015625)"/>
     </defs>
     <use xlink:href="#DejaVuSans-4c"/>
     <use xlink:href="#DejaVuSans-65" x="53.962891"/>
     <use xlink:href="#DejaVuSans-61" x="115.486328"/>
     <use xlink:href="#DejaVuSans-72" x="176.765625"/>
     <use xlink:href="#DejaVuSans-6e" x="216.128906"/>
     <use xlink:href="#DejaVuSans-73" x="279.507812"/>
     <use xlink:href="#DejaVuSans-20" x="331.607422"/>
     <use xlink:href="#DejaVuSans-73" x="363.394531"/>
     <use xlink:href="#DejaVuSans-65" x="415.494141"/>
     <use xlink:href="#DejaVuSans-71" x="477.017578"/>
     <use xlink:href="#DejaVuSans-75" x="540.494141"/>
     <use xlink:href="#DejaVuSans-65" x="603.873047"/>
     <use xlink:href="#DejaVuSans-6e" x="665.396484"/>
     <use xlink:href="#DejaVuSans-74" x="728.775391"/>
     <use xlink:href="#DejaVuSans-69" x="767.984375"/>
     <use xlink:href="#DejaVuSans-61" x="795.767578"/>
     <use xlink:href="#DejaVuSans-6c" x="857.046875"/>
     <use xlink:href="#DejaVuSans-20" x="884.830078"/>
     <use xlink:href="#DejaVuSans-70" x="916.617188"/>
     <use xlink:href="#DejaVuSans-61" x="980.09375"/>
     <use xlink:href="#DejaVuSans-74" x="1041.373047"/>
     <use xlink:href="#DejaVuSans-74" x="1080.582031"/>
     <use xlink:href="#DejaVuSans-65" x="1119.791016"/>
     <use xlink:href="#DejaVuSans-72" x="1181.314453"/>
     <use xlink:href="#DejaVuSans-6e" x="1220.677734"/>
     <use xlink:href="#DejaVuSans-73" x="1284.056641"/>
    </g>
   </g>
   <g id="patch_6">
    <path d="M 342 314.119819 
Q 342 325.979925 342 335.603962 
" style="fill: none; stroke: #000000; stroke-width: 2; stroke-linecap: round"/>
    <path d="M 344.4 330.803962 
L 342 335.603962 
L 339.6 330.803962 
" style="fill: none; stroke: #000000; stroke-width: 2; stroke-linecap: round"/>
   </g>
   <g id="text_8">
    <!-- Output Layer -->
    <g style="fill: #2ecc71" transform="translate(290.215312 381.42) scale(0.14 -0.14)">
     <defs>
      <path id="DejaVuSans-Bold-4f" d="M 2719 3878 
Q 2169 3878 1866 3472 
Q 1563 3066 1563 2328 
Q 1563 1594 1866 1187 
Q 2169 781 2719 781 
Q 3272 781 3575 1187 
Q 3878 1594 3878 2328 
Q 3878 3066 3575 3472 
Q 3272 3878 2719 3878 
z
M 2719 4750 
Q 3844 4750 4481 4106 
Q 5119 3463 5119 2328 
Q 5119 1197 4481 553 
Q 3844 -91 2719 -91 
Q 1597 -91 958 553 
Q 319 1197 319 2328 
Q 319 3463 958 4106 
Q 1597 4750 2719 4750 
z
" transform="scale(0.015625)"/>
      <path id="DejaVuSans-Bold-70" d="M 1656 506 
L 1656 -1331 
L 538 -1331 
L 538 3500 
L 1656 3500 
L 1656 2988 
Q 1888 3294 2169 3439 
Q 2450 3584 2816 3584 
Q 3463 3584 3878 3070 
Q 4294 2556 4294 1747 
Q 4294 938 3878 423 
Q 3463 -91 2816 -91 
Q 2450 -91 2169 54 
Q 1888 200 1656 506 
z
M 2400 2772 
Q 2041 2772 1848 2508 
Q 1656 2244 1656 1747 
Q 1656 1250 1848 986 
Q 2041 722 2400 722 
Q 2759 722 2948 984 
Q 3138 1247 3138 1747 
Q 3138 2247 2948 2509 
Q 2759 2772 2400 2772 
z
" transform="scale(0.015625)"/>
     </defs>
     <use xlink:href="#DejaVuSans-Bold-4f"/>
     <use xlink:href="#DejaVuSans-Bold-75" x="85.009766"/>
     <use xlink:href="#DejaVuSans-Bold-74" x="156.201172"/>
     <use xlink:href="#DejaVuSans-Bold-70" x="204.003906"/>
     <use xlink:href="#DejaVuSans-Bold-75" x="275.585938"/>
     <use xlink:href="#DejaVuSans-Bold-74" x="346.777344"/>
     <use xlink:href="#DejaVuSans-Bold-20" x="394.580078"/>
     <use xlink:href="#DejaVuSans-Bold-4c" x="429.394531"/>
     <use xlink:href="#DejaVuSans-Bold-61" x="493.115234"/>
     <use xlink:href="#DejaVuSans-Bold-79" x="557.470703"/>
     <use xlink:href="#DejaVuSans-Bold-65" x="622.65625"/>
     <use xlink:href="#DejaVuSans-Bold-72" x="690.478516"/>
    </g>
   </g>
   <g id="text_9">
    <!-- Score for each item in catalog -->
    <g transform="translate(266.804687 399.9) scale(0.1 -0.1)">
     <defs>
      <path id="DejaVuSans-53" d="M 3425 4513 
L 3425 3897 
Q 3066 4069 2747 4153 
Q 2428 4238 2131 4238 
Q 1616 4238 1336 4038 
Q 1056 3838 1056 3469 
Q 1056 3159 1242 3001 
Q 1428 2844 1947 2747 
L 2328 2669 
Q 3034 2534 3370 2195 
Q 3706 1856 3706 1288 
Q 3706 609 3251 259 
Q 2797 -91 1919 -91 
Q 1588 -91 1214 -16 
Q 841 59 441 206 
L 441 856 
Q 825 641 1194 531 
Q 1563 422 1919 422 
Q 2459 422 2753 634 
Q 3047 847 3047 1241 
Q 3047 1584 2836 1778 
Q 2625 1972 2144 2069 
L 1759 2144 
Q 1053 2284 737 2584 
Q 422 2884 422 3419 
Q 422 4038 858 4394 
Q 1294 4750 2059 4750 
Q 2388 4750 2728 4690 
Q 3069 4631 3425 4513 
z
" transform="scale(0.015625)"/>
      <path id="DejaVuSans-66" d="M 2375 4863 
L 2375 4384 
L 1825 4384 
Q 1516 4384 1395 4259 
Q 1275 4134 1275 3809 
L 1275 3500 
L 2222 3500 
L 2222 3053 
L 1275 3053 
L 1275 0 
L 697 0 
L 697 3053 
L 147 3053 
L 147 3500 
L 697 3500 
L 697 3744 
Q 697 4328 969 4595 
Q 1241 4863 1831 4863 
L 2375 4863 
z
" transform="scale(0.015625)"/>
      <path id="DejaVuSans-68" d="M 3513 2113 
L 3513 0 
L 2938 0 
L 2938 2094 
Q 2938 2591 2744 2837 
Q 2550 3084 2163 3084 
Q 1697 3084 1428 2787 
Q 1159 2491 1159 1978 
L 1159 0 
L 581 0 
L 581 4863 
L 1159 4863 
L 1159 2956 
Q 1366 3272 1645 3428 
Q 1925 3584 2291 3584 
Q 2894 3584 3203 3211 
Q 3513 2838 3513 2113 
z
" transform="scale(0.015625)"/>
      <path id="DejaVuSans-67" d="M 2906 1791 
Q 2906 2416 2648 2759 
Q 2391 3103 1925 3103 
Q 1463 3103 1205 2759 
Q 947 2416 947 1791 
Q 947 1169 1205 825 
Q 1463 481 1925 481 
Q 2391 481 2648 825 
Q 2906 1169 2906 1791 
z
M 3481 434 
Q 3481 -459 3084 -895 
Q 2688 -1331 1869 -1331 
Q 1566 -1331 1297 -1286 
Q 1028 -1241 775 -1147 
L 775 -588 
Q 1028 -725 1275 -790 
Q 1522 -856 1778 -856 
Q 2344 -856 2625 -561 
Q 2906 -266 2906 331 
L 2906 616 
Q 2728 306 2450 153 
Q 2172 0 1784 0 
Q 1141 0 747 490 
Q 353 981 353 1791 
Q 353 2603 747 3093 
Q 1141 3584 1784 3584 
Q 2172 3584 2450 3431 
Q 2728 3278 2906 2969 
L 2906 3500 
L 3481 3500 
L 3481 434 
z
" transform="scale(0.015625)"/>
     </defs>
     <use xlink:href="#DejaVuSans-53"/>
     <use xlink:href="#DejaVuSans-63" x="63.476562"/>
     <use xlink:href="#DejaVuSans-6f" x="118.457031"/>
     <use xlink:href="#DejaVuSans-72" x="179.638672"/>
     <use xlink:href="#DejaVuSans-65" x="218.501953"/>
     <use xlink:href="#DejaVuSans-20" x="280.025391"/>
     <use xlink:href="#DejaVuSans-66" x="311.8125"/>
     <use xlink:href="#DejaVuSans-6f" x="347.017578"/>
     <use xlink:href="#DejaVuSans-72" x="408.199219"/>
     <use xlink:href="#DejaVuSans-20" x="449.3125"/>
     <use xlink:href="#DejaVuSans-65" x="481.099609"/>
     <use xlink:href="#DejaVuSans-61" x="542.623047"/>
     <use xlink:href="#DejaVuSans-63" x="603.902344"/>
     <use xlink:href="#DejaVuSans-68" x="658.882812"/>
     <use xlink:href="#DejaVuSans-20" x="722.261719"/>
     <use xlink:href="#DejaVuSans-69" x="754.048828"/>
     <use xlink:href="#DejaVuSans-74" x="781.832031"/>
     <use xlink:href="#DejaVuSans-65" x="821.041016"/>
     <use xlink:href="#DejaVuSans-6d" x="882.564453"/>
     <use xlink:href="#DejaVuSans-20" x="979.976562"/>
     <use xlink:href="#DejaVuSans-69" x="1011.763672"/>
     <use xlink:href="#DejaVuSans-6e" x="1039.546875"/>
     <use xlink:href="#DejaVuSans-20" x="1102.925781"/>
     <use xlink:href="#DejaVuSans-63" x="1134.712891"/>
     <use xlink:href="#DejaVuSans-61" x="1189.693359"/>
     <use xlink:href="#DejaVuSans-74" x="1250.972656"/>
     <use xlink:href="#DejaVuSans-61" x="1290.181641"/>
     <use xlink:href="#DejaVuSans-6c" x="1351.460938"/>
     <use xlink:href="#DejaVuSans-6f" x="1379.244141"/>
     <use xlink:href="#DejaVuSans-67" x="1440.425781"/>
    </g>
   </g>
   <g id="patch_7">
    <path d="M 342 415.759819 
Q 342 427.619925 342 437.243962 
" style="fill: none; stroke: #000000; stroke-width: 2; stroke-linecap: round"/>
    <path d="M 344.4 432.443962 
L 342 437.243962 
L 339.6 432.443962 
" style="fill: none; stroke: #000000; stroke-width: 2; stroke-linecap: round"/>
   </g>
   <g id="text_10">
    <!-- Top-K Recommendations -->
    <g transform="translate(244.712031 459.96) scale(0.14 -0.14)">
     <defs>
      <path id="DejaVuSans-Bold-54" d="M 31 4666 
L 4331 4666 
L 4331 3756 
L 2784 3756 
L 2784 0 
L 1581 0 
L 1581 3756 
L 31 3756 
L 31 4666 
z
" transform="scale(0.015625)"/>
      <path id="DejaVuSans-Bold-6f" d="M 2203 2784 
Q 1831 2784 1636 2517 
Q 1441 2250 1441 1747 
Q 1441 1244 1636 976 
Q 1831 709 2203 709 
Q 2569 709 2762 976 
Q 2956 1244 2956 1747 
Q 2956 2250 2762 2517 
Q 2569 2784 2203 2784 
z
M 2203 3584 
Q 3106 3584 3614 3096 
Q 4122 2609 4122 1747 
Q 4122 884 3614 396 
Q 3106 -91 2203 -91 
Q 1297 -91 786 396 
Q 275 884 275 1747 
Q 275 2609 786 3096 
Q 1297 3584 2203 3584 
z
" transform="scale(0.015625)"/>
      <path id="DejaVuSans-Bold-2d" d="M 347 2297 
L 2309 2297 
L 2309 1388 
L 347 1388 
L 347 2297 
z
" transform="scale(0.015625)"/>
      <path id="DejaVuSans-Bold-4b" d="M 588 4666 
L 1791 4666 
L 1791 2963 
L 3525 4666 
L 4922 4666 
L 2675 2456 
L 5153 0 
L 3647 0 
L 1791 1838 
L 1791 0 
L 588 0 
L 588 4666 
z
" transform="scale(0.015625)"/>
     </defs>
     <use xlink:href="#DejaVuSans-Bold-54"/>
     <use xlink:href="#DejaVuSans-Bold-6f" x="54.962891"/>
     <use xlink:href="#DejaVuSans-Bold-70" x="123.664062"/>
     <use xlink:href="#DejaVuSans-Bold-2d" x="195.246094"/>
     <use xlink:href="#DejaVuSans-Bold-4b" x="236.75"/>
     <use xlink:href="#DejaVuSans-Bold-20" x="314.240234"/>
     <use xlink:href="#DejaVuSans-Bold-52" x="349.054688"/>
     <use xlink:href="#DejaVuSans-Bold-65" x="426.056641"/>
     <use xlink:href="#DejaVuSans-Bold-63" x="493.878906"/>
     <use xlink:href="#DejaVuSans-Bold-6f" x="553.15625"/>
     <use xlink:href="#DejaVuSans-Bold-6d" x="621.857422"/>
     <use xlink:href="#DejaVuSans-Bold-6d" x="726.056641"/>
     <use xlink:href="#DejaVuSans-Bold-65" x="830.255859"/>
     <use xlink:href="#DejaVuSans-Bold-6e" x="898.078125"/>
     <use xlink:href="#DejaVuSans-Bold-64" x="969.269531"/>
     <use xlink:href="#DejaVuSans-Bold-61" x="1040.851562"/>
     <use xlink:href="#DejaVuSans-Bold-74" x="1108.332031"/>
     <use xlink:href="#DejaVuSans-Bold-69" x="1156.134766"/>
     <use xlink:href="#DejaVuSans-Bold-6f" x="1190.412109"/>
     <use xlink:href="#DejaVuSans-Bold-6e" x="1259.113281"/>
     <use xlink:href="#DejaVuSans-Bold-73" x="1330.304688"/>
    </g>
   </g>
   <g id="text_11">
    <!-- [item₄₂, item₁₇, item₈₉, ...] -->
    <g transform="translate(237.246562 483.06) scale(0.12 -0.12)">
     <defs>
      <path id="DejaVuSansMono-5b" d="M 1447 4863 
L 2772 4863 
L 2772 4416 
L 2022 4416 
L 2022 -397 
L 2772 -397 
L 2772 -844 
L 1447 -844 
L 1447 4863 
z
" transform="scale(0.015625)"/>
      <path id="DejaVuSansMono-69" d="M 800 3500 
L 2272 3500 
L 2272 447 
L 3413 447 
L 3413 0 
L 556 0 
L 556 447 
L 1697 447 
L 1697 3053 
L 800 3053 
L 800 3500 
z
M 1697 4863 
L 2272 4863 
L 2272 4134 
L 1697 4134 
L 1697 4863 
z
" transform="scale(0.015625)"/>
      <path id="DejaVuSansMono-74" d="M 1919 4494 
L 1919 3500 
L 3225 3500 
L 3225 3053 
L 1919 3053 
L 1919 1153 
Q 1919 766 2066 612 
Q 2213 459 2578 459 
L 3225 459 
L 3225 0 
L 2522 0 
Q 1875 0 1609 259 
Q 1344 519 1344 1153 
L 1344 3053 
L 409 3053 
L 409 3500 
L 1344 3500 
L 1344 4494 
L 1919 4494 
z
" transform="scale(0.015625)"/>
      <path id="DejaVuSansMono-65" d="M 3475 1894 
L 3475 1613 
L 984 1613 
L 984 1594 
Q 984 1022 1282 709 
Q 1581 397 2125 397 
Q 2400 397 2700 484 
Q 3000 572 3341 750 
L 3341 178 
Q 3013 44 2708 -23 
Q 2403 -91 2119 -91 
Q 1303 -91 843 398 
Q 384 888 384 1747 
Q 384 2584 834 3084 
Q 1284 3584 2034 3584 
Q 2703 3584 3089 3131 
Q 3475 2678 3475 1894 
z
M 2900 2063 
Q 2888 2569 2661 2833 
Q 2434 3097 2009 3097 
Q 1594 3097 1325 2822 
Q 1056 2547 1006 2059 
L 2900 2063 
z
" transform="scale(0.015625)"/>
      <path id="DejaVuSansMono-6d" d="M 2113 3144 
Q 2219 3369 2383 3476 
Q 2547 3584 2778 3584 
Q 3200 3584 3373 3257 
Q 3547 2931 3547 2028 
L 3547 0 
L 3022 0 
L 3022 2003 
Q 3022 2744 2939 2923 
Q 2856 3103 2638 3103 
Q 2388 3103 2295 2911 
Q 2203 2719 2203 2003 
L 2203 0 
L 1678 0 
L 1678 2003 
Q 1678 2753 1589 2928 
Q 1500 3103 1269 3103 
Q 1041 3103 952 2911 
Q 863 2719 863 2003 
L 863 0 
L 341 0 
L 341 3500 
L 863 3500 
L 863 3200 
Q 966 3388 1120 3486 
Q 1275 3584 1472 3584 
Q 1709 3584 1867 3475 
Q 2025 3366 2113 3144 
z
" transform="scale(0.015625)"/>
      <path id="DejaVuSansMono-2084" d="M 1972 2609 
L 2478 2609 
L 2478 928 
L 2841 928 
L 2841 581 
L 2478 581 
L 2478 0 
L 2047 0 
L 2047 581 
L 838 581 
L 838 959 
L 1972 2609 
z
M 2047 2218 
L 1191 928 
L 2047 928 
L 2047 2218 
z
" transform="scale(0.015625)"/>
      <path id="DejaVuSansMono-2082" d="M 1509 356 
L 2791 356 
L 2791 0 
L 1006 0 
L 1006 343 
L 1728 1050 
Q 2044 1353 2170 1543 
Q 2297 1734 2297 1893 
Q 2297 2084 2140 2202 
Q 1984 2321 1728 2321 
Q 1575 2321 1398 2265 
Q 1222 2209 1025 2096 
L 1025 2487 
Q 1228 2575 1417 2618 
Q 1606 2662 1791 2662 
Q 2234 2662 2503 2454 
Q 2772 2246 2772 1912 
Q 2772 1734 2656 1548 
Q 2541 1362 2169 996 
L 1509 356 
z
" transform="scale(0.015625)"/>
      <path id="DejaVuSansMono-2087" d="M 991 2609 
L 2816 2609 
L 2816 2459 
L 1778 0 
L 1369 0 
L 2378 2312 
L 991 2312 
L 991 2609 
z
" transform="scale(0.015625)"/>
      <path id="DejaVuSansMono-2088" d="M 1925 1240 
Q 1663 1240 1522 1106 
Q 1378 975 1378 734 
Q 1378 493 1522 359 
Q 1669 225 1925 225 
Q 2191 225 2331 356 
Q 2475 490 2475 734 
Q 2475 975 2331 1106 
Q 2184 1240 1925 1240 
z
M 1584 1387 
Q 1334 1443 1194 1600 
Q 1053 1759 1053 1981 
Q 1053 2290 1288 2475 
Q 1522 2656 1925 2656 
Q 2331 2656 2566 2475 
Q 2800 2290 2800 1981 
Q 2800 1759 2659 1600 
Q 2519 1443 2269 1387 
Q 2559 1328 2713 1153 
Q 2869 978 2869 700 
Q 2869 346 2619 150 
Q 2369 -50 1925 -50 
Q 1484 -50 1234 146 
Q 984 346 984 696 
Q 984 978 1141 1153 
Q 1294 1328 1584 1387 
z
M 1444 1946 
Q 1444 1737 1566 1628 
Q 1691 1515 1925 1515 
Q 2163 1515 2288 1628 
Q 2409 1737 2409 1946 
Q 2409 2159 2287 2271 
Q 2166 2384 1925 2384 
Q 1691 2384 1566 2271 
Q 1444 2159 1444 1946 
z
" transform="scale(0.015625)"/>
      <path id="DejaVuSansMono-2089" d="M 1859 1159 
Q 2109 1159 2250 1321 
Q 2394 1484 2394 1775 
Q 2394 2062 2250 2225 
Q 2109 2387 1859 2387 
Q 1600 2387 1466 2231 
Q 1334 2078 1334 1775 
Q 1334 1468 1466 1312 
Q 1597 1159 1859 1159 
z
M 1159 56 
L 1159 381 
Q 1284 318 1421 284 
Q 1559 250 1706 250 
Q 2081 250 2272 503 
Q 2463 753 2463 1246 
Q 2372 1071 2206 977 
Q 2041 884 1828 884 
Q 1403 884 1178 1115 
Q 950 1350 950 1778 
Q 950 2200 1184 2431 
Q 1422 2662 1850 2662 
Q 2356 2662 2591 2337 
Q 2825 2009 2825 1306 
Q 2825 646 2544 300 
Q 2259 -47 1722 -47 
Q 1581 -47 1438 -22 
Q 1294 6 1159 56 
z
" transform="scale(0.015625)"/>
      <path id="DejaVuSansMono-2e" d="M 1528 953 
L 2316 953 
L 2316 0 
L 1528 0 
L 1528 953 
z
" transform="scale(0.015625)"/>
      <path id="DejaVuSansMono-5d" d="M 2406 4863 
L 2406 -844 
L 1081 -844 
L 1081 -397 
L 1831 -397 
L 1831 4416 
L 1081 4416 
L 1081 4863 
L 2406 4863 
z
" transform="scale(0.015625)"/>
     </defs>
     <use xlink:href="#DejaVuSansMono-5b"/>
     <use xlink:href="#DejaVuSansMono-69" x="60.205078"/>
     <use xlink:href="#DejaVuSansMono-74" x="120.410156"/>
     <use xlink:href="#DejaVuSansMono-65" x="180.615234"/>
     <use xlink:href="#DejaVuSansMono-6d" x="240.820312"/>
     <use xlink:href="#DejaVuSansMono-2084" x="301.025391"/>
     <use xlink:href="#DejaVuSansMono-2082" x="361.230469"/>
     <use xlink:href="#DejaVuSansMono-2c" x="421.435547"/>
     <use xlink:href="#DejaVuSansMono-20" x="481.640625"/>
     <use xlink:href="#DejaVuSansMono-69" x="541.845703"/>
     <use xlink:href="#DejaVuSansMono-74" x="602.050781"/>
     <use xlink:href="#DejaVuSansMono-65" x="662.255859"/>
     <use xlink:href="#DejaVuSansMono-6d" x="722.460938"/>
     <use xlink:href="#DejaVuSansMono-2081" x="782.666016"/>
     <use xlink:href="#DejaVuSansMono-2087" x="842.871094"/>
     <use xlink:href="#DejaVuSansMono-2c" x="903.076172"/>
     <use xlink:href="#DejaVuSansMono-20" x="963.28125"/>
     <use xlink:href="#DejaVuSansMono-69" x="1023.486328"/>
     <use xlink:href="#DejaVuSansMono-74" x="1083.691406"/>
     <use xlink:href="#DejaVuSansMono-65" x="1143.896484"/>
     <use xlink:href="#DejaVuSansMono-6d" x="1204.101562"/>
     <use xlink:href="#DejaVuSansMono-2088" x="1264.306641"/>
     <use xlink:href="#DejaVuSansMono-2089" x="1324.511719"/>
     <use xlink:href="#DejaVuSansMono-2c" x="1384.716797"/>
     <use xlink:href="#DejaVuSansMono-20" x="1444.921875"/>
     <use xlink:href="#DejaVuSansMono-2e" x="1505.126953"/>
     <use xlink:href="#DejaVuSansMono-2e" x="1565.332031"/>
     <use xlink:href="#DejaVuSansMono-2e" x="1625.537109"/>
     <use xlink:href="#DejaVuSansMono-5d" x="1685.742188"/>
    </g>
   </g>
   <g id="text_12">
    <!-- d = 100-500 -->
    <g style="fill: #95a5a6" transform="translate(621 141.18) scale(0.09 -0.09)">
     <defs>
      <path id="DejaVuSans-64" d="M 2906 2969 
L 2906 4863 
L 3481 4863 
L 3481 0 
L 2906 0 
L 2906 525 
Q 2725 213 2448 61 
Q 2172 -91 1784 -91 
Q 1150 -91 751 415 
Q 353 922 353 1747 
Q 353 2572 751 3078 
Q 1150 3584 1784 3584 
Q 2172 3584 2448 3432 
Q 2725 3281 2906 2969 
z
M 947 1747 
Q 947 1113 1208 752 
Q 1469 391 1925 391 
Q 2381 391 2643 752 
Q 2906 1113 2906 1747 
Q 2906 2381 2643 2742 
Q 2381 3103 1925 3103 
Q 1469 3103 1208 2742 
Q 947 2381 947 1747 
z
" transform="scale(0.015625)"/>
      <path id="DejaVuSans-3d" d="M 678 2906 
L 4684 2906 
L 4684 2381 
L 678 2381 
L 678 2906 
z
M 678 1631 
L 4684 1631 
L 4684 1100 
L 678 1100 
L 678 1631 
z
" transform="scale(0.015625)"/>
      <path id="DejaVuSans-31" d="M 794 531 
L 1825 531 
L 1825 4091 
L 703 3866 
L 703 4441 
L 1819 4666 
L 2450 4666 
L 2450 531 
L 3481 531 
L 3481 0 
L 794 0 
L 794 531 
z
" transform="scale(0.015625)"/>
      <path id="DejaVuSans-30" d="M 2034 4250 
Q 1547 4250 1301 3770 
Q 1056 3291 1056 2328 
Q 1056 1369 1301 889 
Q 1547 409 2034 409 
Q 2525 409 2770 889 
Q 3016 1369 3016 2328 
Q 3016 3291 2770 3770 
Q 2525 4250 2034 4250 
z
M 2034 4750 
Q 2819 4750 3233 4129 
Q 3647 3509 3647 2328 
Q 3647 1150 3233 529 
Q 2819 -91 2034 -91 
Q 1250 -91 836 529 
Q 422 1150 422 2328 
Q 422 3509 836 4129 
Q 1250 4750 2034 4750 
z
" transform="scale(0.015625)"/>
      <path id="DejaVuSans-2d" d="M 313 2009 
L 1997 2009 
L 1997 1497 
L 313 1497 
L 313 2009 
z
" transform="scale(0.015625)"/>
      <path id="DejaVuSans-35" d="M 691 4666 
L 3169 4666 
L 3169 4134 
L 1269 4134 
L 1269 2991 
Q 1406 3038 1543 3061 
Q 1681 3084 1819 3084 
Q 2600 3084 3056 2656 
Q 3513 2228 3513 1497 
Q 3513 744 3044 326 
Q 2575 -91 1722 -91 
Q 1428 -91 1123 -41 
Q 819 9 494 109 
L 494 744 
Q 775 591 1075 516 
Q 1375 441 1709 441 
Q 2250 441 2565 725 
Q 2881 1009 2881 1497 
Q 2881 1984 2565 2268 
Q 2250 2553 1709 2553 
Q 1456 2553 1204 2497 
Q 953 2441 691 2322 
L 691 4666 
z
" transform="scale(0.015625)"/>
     </defs>
     <use xlink:href="#DejaVuSans-64"/>
     <use xlink:href="#DejaVuSans-20" x="63.476562"/>
     <use xlink:href="#DejaVuSans-3d" x="95.263672"/>
     <use xlink:href="#DejaVuSans-20" x="179.052734"/>
     <use xlink:href="#DejaVuSans-31" x="210.839844"/>
     <use xlink:href="#DejaVuSans-30" x="274.462891"/>
     <use xlink:href="#DejaVuSans-30" x="338.085938"/>
     <use xlink:href="#DejaVuSans-2d" x="401.708984"/>
     <use xlink:href="#DejaVuSans-35" x="437.792969"/>
     <use xlink:href="#DejaVuSans-30" x="501.416016"/>
     <use xlink:href="#DejaVuSans-30" x="565.039062"/>
    </g>
   </g>
   <g id="text_13">
    <!-- h = 100-1000 -->
    <g style="fill: #95a5a6" transform="translate(621 261.3) scale(0.09 -0.09)">
     <use xlink:href="#DejaVuSans-68"/>
     <use xlink:href="#DejaVuSans-20" x="63.378906"/>
     <use xlink:href="#DejaVuSans-3d" x="95.166016"/>
     <use xlink:href="#DejaVuSans-20" x="178.955078"/>
     <use xlink:href="#DejaVuSans-31" x="210.742188"/>
     <use xlink:href="#DejaVuSans-30" x="274.365234"/>
     <use xlink:href="#DejaVuSans-30" x="337.988281"/>
     <use xlink:href="#DejaVuSans-2d" x="401.611328"/>
     <use xlink:href="#DejaVuSans-31" x="437.695312"/>
     <use xlink:href="#DejaVuSans-30" x="501.318359"/>
     <use xlink:href="#DejaVuSans-30" x="564.941406"/>
     <use xlink:href="#DejaVuSans-30" x="628.564453"/>
    </g>
   </g>
   <g id="text_14">
    <!-- |V| = catalog size -->
    <g style="fill: #95a5a6" transform="translate(621 381.42) scale(0.09 -0.09)">
     <defs>
      <path id="DejaVuSans-7c" d="M 1344 4891 
L 1344 -1509 
L 813 -1509 
L 813 4891 
L 1344 4891 
z
" transform="scale(0.015625)"/>
      <path id="DejaVuSans-7a" d="M 353 3500 
L 3084 3500 
L 3084 2975 
L 922 459 
L 3084 459 
L 3084 0 
L 275 0 
L 275 525 
L 2438 3041 
L 353 3041 
L 353 3500 
z
" transform="scale(0.015625)"/>
     </defs>
     <use xlink:href="#DejaVuSans-7c"/>
     <use xlink:href="#DejaVuSans-56" x="33.691406"/>
     <use xlink:href="#DejaVuSans-7c" x="102.099609"/>
     <use xlink:href="#DejaVuSans-20" x="135.791016"/>
     <use xlink:href="#DejaVuSans-3d" x="167.578125"/>
     <use xlink:href="#DejaVuSans-20" x="251.367188"/>
     <use xlink:href="#DejaVuSans-63" x="283.154297"/>
     <use xlink:href="#DejaVuSans-61" x="338.134766"/>
     <use xlink:href="#DejaVuSans-74" x="399.414062"/>
     <use xlink:href="#DejaVuSans-61" x="438.623047"/>
     <use xlink:href="#DejaVuSans-6c" x="499.902344"/>
     <use xlink:href="#DejaVuSans-6f" x="527.685547"/>
     <use xlink:href="#DejaVuSans-67" x="588.867188"/>
     <use xlink:href="#DejaVuSans-20" x="652.34375"/>
     <use xlink:href="#DejaVuSans-73" x="684.130859"/>
     <use xlink:href="#DejaVuSans-69" x="736.230469"/>
     <use xlink:href="#DejaVuSans-7a" x="764.013672"/>
     <use xlink:href="#DejaVuSans-65" x="816.503906"/>
    </g>
   </g>
  </g>
 </g>
 <defs>
  <clipPath id="p47c01a7ebd">
   <rect x="7.2" y="7.2" width="669.6" height="554.4"/>
  </clipPath>
 </defs>
</svg>
