<?xml version="1.0" encoding="utf-8" standalone="no"?>
<!DOCTYPE svg PUBLIC "-//W3C//DTD SVG 1.1//EN"
  "http://www.w3.org/Graphics/SVG/1.1/DTD/svg11.dtd">
<svg xmlns:xlink="http://www.w3.org/1999/xlink" width="996.61875pt" height="347.443625pt" viewBox="0 0 996.61875 347.443625" xmlns="http://www.w3.org/2000/svg" version="1.1">
 <metadata>
  <rdf:RDF xmlns:dc="http://purl.org/dc/elements/1.1/" xmlns:cc="http://creativecommons.org/ns#" xmlns:rdf="http://www.w3.org/1999/02/22-rdf-syntax-ns#">
   <cc:Work>
    <dc:type rdf:resource="http://purl.org/dc/dcmitype/StillImage"/>
    <dc:date>2025-12-31T19:26:42.502105</dc:date>
    <dc:format>image/svg+xml</dc:format>
    <dc:creator>
     <cc:Agent>
      <dc:title>Matplotlib v3.9.1, https://matplotlib.org/</dc:title>
     </cc:Agent>
    </dc:creator>
   </cc:Work>
  </rdf:RDF>
 </metadata>
 <defs>
  <style type="text/css">*{stroke-linejoin: round; stroke-linecap: butt}</style>
 </defs>
 <g id="figure_1">
  <g id="patch_1">
   <path d="M 0 347.443625 
L 996.61875 347.443625 
L 996.61875 0 
L 0 0 
z
" style="fill: #ffffff"/>
  </g>
  <g id="axes_1">
   <g id="patch_2">
    <path d="M 52.71875 306.016125 
L 492.875184 306.016125 
L 492.875184 39.624125 
L 52.71875 39.624125 
z
" style="fill: #ffffff"/>
   </g>
   <g id="patch_3">
    <path d="M 72.725861 306.016125 
L 76.727283 306.016125 
L 76.727283 52.309458 
L 72.725861 52.309458 
z
" clip-path="url(#p6fff24e22b)" style="fill: #2ecc71; opacity: 0.7"/>
   </g>
   <g id="patch_4">
    <path d="M 76.727283 306.016125 
L 80.728705 306.016125 
L 80.728705 169.056345 
L 76.727283 169.056345 
z
" clip-path="url(#p6fff24e22b)" style="fill: #2ecc71; opacity: 0.7"/>
   </g>
   <g id="patch_5">
    <path d="M 80.728705 306.016125 
L 84.730127 306.016125 
L 84.730127 210.527627 
L 80.728705 210.527627 
z
" clip-path="url(#p6fff24e22b)" style="fill: #2ecc71; opacity: 0.7"/>
   </g>
   <g id="patch_6">
    <path d="M 84.730127 306.016125 
L 88.731549 306.016125 
L 88.731549 233.528506 
L 84.730127 233.528506 
z
" clip-path="url(#p6fff24e22b)" style="fill: #2ecc71; opacity: 0.7"/>
   </g>
   <g id="patch_7">
    <path d="M 88.731549 306.016125 
L 92.732971 306.016125 
L 92.732971 238.755978 
L 88.731549 238.755978 
z
" clip-path="url(#p6fff24e22b)" style="fill: #2ecc71; opacity: 0.7"/>
   </g>
   <g id="patch_8">
    <path d="M 92.732971 306.016125 
L 96.734393 306.016125 
L 96.734393 247.816931 
L 92.732971 247.816931 
z
" clip-path="url(#p6fff24e22b)" style="fill: #2ecc71; opacity: 0.7"/>
   </g>
   <g id="patch_9">
    <path d="M 96.734393 306.016125 
L 100.735816 306.016125 
L 100.735816 260.711363 
L 96.734393 260.711363 
z
" clip-path="url(#p6fff24e22b)" style="fill: #2ecc71; opacity: 0.7"/>
   </g>
   <g id="patch_10">
    <path d="M 100.735816 306.016125 
L 104.737238 306.016125 
L 104.737238 262.802352 
L 100.735816 262.802352 
z
" clip-path="url(#p6fff24e22b)" style="fill: #2ecc71; opacity: 0.7"/>
   </g>
   <g id="patch_11">
    <path d="M 104.737238 306.016125 
L 108.73866 306.016125 
L 108.73866 263.847847 
L 104.737238 263.847847 
z
" clip-path="url(#p6fff24e22b)" style="fill: #2ecc71; opacity: 0.7"/>
   </g>
   <g id="patch_12">
    <path d="M 108.73866 306.016125 
L 112.740082 306.016125 
L 112.740082 266.98433 
L 108.73866 266.98433 
z
" clip-path="url(#p6fff24e22b)" style="fill: #2ecc71; opacity: 0.7"/>
   </g>
   <g id="patch_13">
    <path d="M 112.740082 306.016125 
L 116.741504 306.016125 
L 116.741504 274.302792 
L 112.740082 274.302792 
z
" clip-path="url(#p6fff24e22b)" style="fill: #2ecc71; opacity: 0.7"/>
   </g>
   <g id="patch_14">
    <path d="M 116.741504 306.016125 
L 120.742926 306.016125 
L 120.742926 275.348286 
L 116.741504 275.348286 
z
" clip-path="url(#p6fff24e22b)" style="fill: #2ecc71; opacity: 0.7"/>
   </g>
   <g id="patch_15">
    <path d="M 120.742926 306.016125 
L 124.744348 306.016125 
L 124.744348 277.787773 
L 120.742926 277.787773 
z
" clip-path="url(#p6fff24e22b)" style="fill: #2ecc71; opacity: 0.7"/>
   </g>
   <g id="patch_16">
    <path d="M 124.744348 306.016125 
L 128.74577 306.016125 
L 128.74577 278.833268 
L 124.744348 278.833268 
z
" clip-path="url(#p6fff24e22b)" style="fill: #2ecc71; opacity: 0.7"/>
   </g>
   <g id="patch_17">
    <path d="M 128.74577 306.016125 
L 132.747193 306.016125 
L 132.747193 279.181766 
L 128.74577 279.181766 
z
" clip-path="url(#p6fff24e22b)" style="fill: #2ecc71; opacity: 0.7"/>
   </g>
   <g id="patch_18">
    <path d="M 132.747193 306.016125 
L 136.748615 306.016125 
L 136.748615 280.575759 
L 132.747193 280.575759 
z
" clip-path="url(#p6fff24e22b)" style="fill: #2ecc71; opacity: 0.7"/>
   </g>
   <g id="patch_19">
    <path d="M 136.748615 306.016125 
L 140.750037 306.016125 
L 140.750037 282.666748 
L 136.748615 282.666748 
z
" clip-path="url(#p6fff24e22b)" style="fill: #2ecc71; opacity: 0.7"/>
   </g>
   <g id="patch_20">
    <path d="M 140.750037 306.016125 
L 144.751459 306.016125 
L 144.751459 282.666748 
L 140.750037 282.666748 
z
" clip-path="url(#p6fff24e22b)" style="fill: #2ecc71; opacity: 0.7"/>
   </g>
   <g id="patch_21">
    <path d="M 144.751459 306.016125 
L 148.752881 306.016125 
L 148.752881 282.666748 
L 144.751459 282.666748 
z
" clip-path="url(#p6fff24e22b)" style="fill: #2ecc71; opacity: 0.7"/>
   </g>
   <g id="patch_22">
    <path d="M 148.752881 306.016125 
L 152.754303 306.016125 
L 152.754303 283.363744 
L 148.752881 283.363744 
z
" clip-path="url(#p6fff24e22b)" style="fill: #2ecc71; opacity: 0.7"/>
   </g>
   <g id="patch_23">
    <path d="M 152.754303 306.016125 
L 156.755725 306.016125 
L 156.755725 284.06074 
L 152.754303 284.06074 
z
" clip-path="url(#p6fff24e22b)" style="fill: #2ecc71; opacity: 0.7"/>
   </g>
   <g id="patch_24">
    <path d="M 156.755725 306.016125 
L 160.757148 306.016125 
L 160.757148 284.06074 
L 156.755725 284.06074 
z
" clip-path="url(#p6fff24e22b)" style="fill: #2ecc71; opacity: 0.7"/>
   </g>
   <g id="patch_25">
    <path d="M 160.757148 306.016125 
L 164.75857 306.016125 
L 164.75857 286.848726 
L 160.757148 286.848726 
z
" clip-path="url(#p6fff24e22b)" style="fill: #2ecc71; opacity: 0.7"/>
   </g>
   <g id="patch_26">
    <path d="M 164.75857 306.016125 
L 168.759992 306.016125 
L 168.759992 287.545722 
L 164.75857 287.545722 
z
" clip-path="url(#p6fff24e22b)" style="fill: #2ecc71; opacity: 0.7"/>
   </g>
   <g id="patch_27">
    <path d="M 168.759992 306.016125 
L 172.761414 306.016125 
L 172.761414 287.545722 
L 168.759992 287.545722 
z
" clip-path="url(#p6fff24e22b)" style="fill: #2ecc71; opacity: 0.7"/>
   </g>
   <g id="patch_28">
    <path d="M 172.761414 306.016125 
L 176.762836 306.016125 
L 176.762836 287.89422 
L 172.761414 287.89422 
z
" clip-path="url(#p6fff24e22b)" style="fill: #2ecc71; opacity: 0.7"/>
   </g>
   <g id="patch_29">
    <path d="M 176.762836 306.016125 
L 180.764258 306.016125 
L 180.764258 288.591217 
L 176.762836 288.591217 
z
" clip-path="url(#p6fff24e22b)" style="fill: #2ecc71; opacity: 0.7"/>
   </g>
   <g id="patch_30">
    <path d="M 180.764258 306.016125 
L 184.76568 306.016125 
L 184.76568 290.333707 
L 180.764258 290.333707 
z
" clip-path="url(#p6fff24e22b)" style="fill: #2ecc71; opacity: 0.7"/>
   </g>
   <g id="patch_31">
    <path d="M 184.76568 306.016125 
L 188.767102 306.016125 
L 188.767102 290.682206 
L 184.76568 290.682206 
z
" clip-path="url(#p6fff24e22b)" style="fill: #2ecc71; opacity: 0.7"/>
   </g>
   <g id="patch_32">
    <path d="M 188.767102 306.016125 
L 192.768525 306.016125 
L 192.768525 291.030704 
L 188.767102 291.030704 
z
" clip-path="url(#p6fff24e22b)" style="fill: #2ecc71; opacity: 0.7"/>
   </g>
   <g id="patch_33">
    <path d="M 192.768525 306.016125 
L 196.769947 306.016125 
L 196.769947 291.030704 
L 192.768525 291.030704 
z
" clip-path="url(#p6fff24e22b)" style="fill: #2ecc71; opacity: 0.7"/>
   </g>
   <g id="patch_34">
    <path d="M 196.769947 306.016125 
L 200.771369 306.016125 
L 200.771369 291.379202 
L 196.769947 291.379202 
z
" clip-path="url(#p6fff24e22b)" style="fill: #2ecc71; opacity: 0.7"/>
   </g>
   <g id="patch_35">
    <path d="M 200.771369 306.016125 
L 204.772791 306.016125 
L 204.772791 292.076198 
L 200.771369 292.076198 
z
" clip-path="url(#p6fff24e22b)" style="fill: #2ecc71; opacity: 0.7"/>
   </g>
   <g id="patch_36">
    <path d="M 204.772791 306.016125 
L 208.774213 306.016125 
L 208.774213 292.076198 
L 204.772791 292.076198 
z
" clip-path="url(#p6fff24e22b)" style="fill: #2ecc71; opacity: 0.7"/>
   </g>
   <g id="patch_37">
    <path d="M 208.774213 306.016125 
L 212.775635 306.016125 
L 212.775635 292.076198 
L 208.774213 292.076198 
z
" clip-path="url(#p6fff24e22b)" style="fill: #2ecc71; opacity: 0.7"/>
   </g>
   <g id="patch_38">
    <path d="M 212.775635 306.016125 
L 216.777057 306.016125 
L 216.777057 292.773195 
L 212.775635 292.773195 
z
" clip-path="url(#p6fff24e22b)" style="fill: #2ecc71; opacity: 0.7"/>
   </g>
   <g id="patch_39">
    <path d="M 216.777057 306.016125 
L 220.778479 306.016125 
L 220.778479 293.470191 
L 216.777057 293.470191 
z
" clip-path="url(#p6fff24e22b)" style="fill: #2ecc71; opacity: 0.7"/>
   </g>
   <g id="patch_40">
    <path d="M 220.778479 306.016125 
L 224.779902 306.016125 
L 224.779902 293.470191 
L 220.778479 293.470191 
z
" clip-path="url(#p6fff24e22b)" style="fill: #2ecc71; opacity: 0.7"/>
   </g>
   <g id="patch_41">
    <path d="M 224.779902 306.016125 
L 228.781324 306.016125 
L 228.781324 293.818689 
L 224.779902 293.818689 
z
" clip-path="url(#p6fff24e22b)" style="fill: #2ecc71; opacity: 0.7"/>
   </g>
   <g id="patch_42">
    <path d="M 228.781324 306.016125 
L 232.782746 306.016125 
L 232.782746 293.818689 
L 228.781324 293.818689 
z
" clip-path="url(#p6fff24e22b)" style="fill: #2ecc71; opacity: 0.7"/>
   </g>
   <g id="patch_43">
    <path d="M 232.782746 306.016125 
L 236.784168 306.016125 
L 236.784168 293.818689 
L 232.782746 293.818689 
z
" clip-path="url(#p6fff24e22b)" style="fill: #2ecc71; opacity: 0.7"/>
   </g>
   <g id="patch_44">
    <path d="M 236.784168 306.016125 
L 240.78559 306.016125 
L 240.78559 294.167187 
L 236.784168 294.167187 
z
" clip-path="url(#p6fff24e22b)" style="fill: #2ecc71; opacity: 0.7"/>
   </g>
   <g id="patch_45">
    <path d="M 240.78559 306.016125 
L 244.787012 306.016125 
L 244.787012 294.167187 
L 240.78559 294.167187 
z
" clip-path="url(#p6fff24e22b)" style="fill: #2ecc71; opacity: 0.7"/>
   </g>
   <g id="patch_46">
    <path d="M 244.787012 306.016125 
L 248.788434 306.016125 
L 248.788434 294.864184 
L 244.787012 294.864184 
z
" clip-path="url(#p6fff24e22b)" style="fill: #2ecc71; opacity: 0.7"/>
   </g>
   <g id="patch_47">
    <path d="M 248.788434 306.016125 
L 252.789857 306.016125 
L 252.789857 294.864184 
L 248.788434 294.864184 
z
" clip-path="url(#p6fff24e22b)" style="fill: #2ecc71; opacity: 0.7"/>
   </g>
   <g id="patch_48">
    <path d="M 252.789857 306.016125 
L 256.791279 306.016125 
L 256.791279 294.864184 
L 252.789857 294.864184 
z
" clip-path="url(#p6fff24e22b)" style="fill: #2ecc71; opacity: 0.7"/>
   </g>
   <g id="patch_49">
    <path d="M 256.791279 306.016125 
L 260.792701 306.016125 
L 260.792701 295.212682 
L 256.791279 295.212682 
z
" clip-path="url(#p6fff24e22b)" style="fill: #2ecc71; opacity: 0.7"/>
   </g>
   <g id="patch_50">
    <path d="M 260.792701 306.016125 
L 264.794123 306.016125 
L 264.794123 295.212682 
L 260.792701 295.212682 
z
" clip-path="url(#p6fff24e22b)" style="fill: #2ecc71; opacity: 0.7"/>
   </g>
   <g id="patch_51">
    <path d="M 264.794123 306.016125 
L 268.795545 306.016125 
L 268.795545 295.212682 
L 264.794123 295.212682 
z
" clip-path="url(#p6fff24e22b)" style="fill: #2ecc71; opacity: 0.7"/>
   </g>
   <g id="patch_52">
    <path d="M 268.795545 306.016125 
L 272.796967 306.016125 
L 272.796967 295.56118 
L 268.795545 295.56118 
z
" clip-path="url(#p6fff24e22b)" style="fill: #2ecc71; opacity: 0.7"/>
   </g>
   <g id="patch_53">
    <path d="M 272.796967 306.016125 
L 276.798389 306.016125 
L 276.798389 295.56118 
L 272.796967 295.56118 
z
" clip-path="url(#p6fff24e22b)" style="fill: #2ecc71; opacity: 0.7"/>
   </g>
   <g id="patch_54">
    <path d="M 276.798389 306.016125 
L 280.799811 306.016125 
L 280.799811 295.56118 
L 276.798389 295.56118 
z
" clip-path="url(#p6fff24e22b)" style="fill: #2ecc71; opacity: 0.7"/>
   </g>
   <g id="patch_55">
    <path d="M 280.799811 306.016125 
L 284.801234 306.016125 
L 284.801234 295.56118 
L 280.799811 295.56118 
z
" clip-path="url(#p6fff24e22b)" style="fill: #2ecc71; opacity: 0.7"/>
   </g>
   <g id="patch_56">
    <path d="M 284.801234 306.016125 
L 288.802656 306.016125 
L 288.802656 295.56118 
L 284.801234 295.56118 
z
" clip-path="url(#p6fff24e22b)" style="fill: #2ecc71; opacity: 0.7"/>
   </g>
   <g id="patch_57">
    <path d="M 288.802656 306.016125 
L 292.804078 306.016125 
L 292.804078 295.56118 
L 288.802656 295.56118 
z
" clip-path="url(#p6fff24e22b)" style="fill: #2ecc71; opacity: 0.7"/>
   </g>
   <g id="patch_58">
    <path d="M 292.804078 306.016125 
L 296.8055 306.016125 
L 296.8055 295.909678 
L 292.804078 295.909678 
z
" clip-path="url(#p6fff24e22b)" style="fill: #2ecc71; opacity: 0.7"/>
   </g>
   <g id="patch_59">
    <path d="M 296.8055 306.016125 
L 300.806922 306.016125 
L 300.806922 295.909678 
L 296.8055 295.909678 
z
" clip-path="url(#p6fff24e22b)" style="fill: #2ecc71; opacity: 0.7"/>
   </g>
   <g id="patch_60">
    <path d="M 300.806922 306.016125 
L 304.808344 306.016125 
L 304.808344 295.909678 
L 300.806922 295.909678 
z
" clip-path="url(#p6fff24e22b)" style="fill: #2ecc71; opacity: 0.7"/>
   </g>
   <g id="patch_61">
    <path d="M 304.808344 306.016125 
L 308.809766 306.016125 
L 308.809766 296.606674 
L 304.808344 296.606674 
z
" clip-path="url(#p6fff24e22b)" style="fill: #2ecc71; opacity: 0.7"/>
   </g>
   <g id="patch_62">
    <path d="M 308.809766 306.016125 
L 312.811188 306.016125 
L 312.811188 296.606674 
L 308.809766 296.606674 
z
" clip-path="url(#p6fff24e22b)" style="fill: #2ecc71; opacity: 0.7"/>
   </g>
   <g id="patch_63">
    <path d="M 312.811188 306.016125 
L 316.812611 306.016125 
L 316.812611 296.606674 
L 312.811188 296.606674 
z
" clip-path="url(#p6fff24e22b)" style="fill: #2ecc71; opacity: 0.7"/>
   </g>
   <g id="patch_64">
    <path d="M 316.812611 306.016125 
L 320.814033 306.016125 
L 320.814033 296.606674 
L 316.812611 296.606674 
z
" clip-path="url(#p6fff24e22b)" style="fill: #2ecc71; opacity: 0.7"/>
   </g>
   <g id="patch_65">
    <path d="M 320.814033 306.016125 
L 324.815455 306.016125 
L 324.815455 296.606674 
L 320.814033 296.606674 
z
" clip-path="url(#p6fff24e22b)" style="fill: #2ecc71; opacity: 0.7"/>
   </g>
   <g id="patch_66">
    <path d="M 324.815455 306.016125 
L 328.816877 306.016125 
L 328.816877 296.955173 
L 324.815455 296.955173 
z
" clip-path="url(#p6fff24e22b)" style="fill: #2ecc71; opacity: 0.7"/>
   </g>
   <g id="patch_67">
    <path d="M 328.816877 306.016125 
L 332.818299 306.016125 
L 332.818299 297.652169 
L 328.816877 297.652169 
z
" clip-path="url(#p6fff24e22b)" style="fill: #2ecc71; opacity: 0.7"/>
   </g>
   <g id="patch_68">
    <path d="M 332.818299 306.016125 
L 336.819721 306.016125 
L 336.819721 297.652169 
L 332.818299 297.652169 
z
" clip-path="url(#p6fff24e22b)" style="fill: #2ecc71; opacity: 0.7"/>
   </g>
   <g id="patch_69">
    <path d="M 336.819721 306.016125 
L 340.821143 306.016125 
L 340.821143 298.000667 
L 336.819721 298.000667 
z
" clip-path="url(#p6fff24e22b)" style="fill: #2ecc71; opacity: 0.7"/>
   </g>
   <g id="patch_70">
    <path d="M 340.821143 306.016125 
L 344.822566 306.016125 
L 344.822566 298.000667 
L 340.821143 298.000667 
z
" clip-path="url(#p6fff24e22b)" style="fill: #2ecc71; opacity: 0.7"/>
   </g>
   <g id="patch_71">
    <path d="M 344.822566 306.016125 
L 348.823988 306.016125 
L 348.823988 298.349165 
L 344.822566 298.349165 
z
" clip-path="url(#p6fff24e22b)" style="fill: #2ecc71; opacity: 0.7"/>
   </g>
   <g id="patch_72">
    <path d="M 348.823988 306.016125 
L 352.82541 306.016125 
L 352.82541 298.349165 
L 348.823988 298.349165 
z
" clip-path="url(#p6fff24e22b)" style="fill: #2ecc71; opacity: 0.7"/>
   </g>
   <g id="patch_73">
    <path d="M 352.82541 306.016125 
L 356.826832 306.016125 
L 356.826832 298.349165 
L 352.82541 298.349165 
z
" clip-path="url(#p6fff24e22b)" style="fill: #2ecc71; opacity: 0.7"/>
   </g>
   <g id="patch_74">
    <path d="M 356.826832 306.016125 
L 360.828254 306.016125 
L 360.828254 298.349165 
L 356.826832 298.349165 
z
" clip-path="url(#p6fff24e22b)" style="fill: #2ecc71; opacity: 0.7"/>
   </g>
   <g id="patch_75">
    <path d="M 360.828254 306.016125 
L 364.829676 306.016125 
L 364.829676 298.697663 
L 360.828254 298.697663 
z
" clip-path="url(#p6fff24e22b)" style="fill: #2ecc71; opacity: 0.7"/>
   </g>
   <g id="patch_76">
    <path d="M 364.829676 306.016125 
L 368.831098 306.016125 
L 368.831098 298.697663 
L 364.829676 298.697663 
z
" clip-path="url(#p6fff24e22b)" style="fill: #2ecc71; opacity: 0.7"/>
   </g>
   <g id="patch_77">
    <path d="M 368.831098 306.016125 
L 372.83252 306.016125 
L 372.83252 298.697663 
L 368.831098 298.697663 
z
" clip-path="url(#p6fff24e22b)" style="fill: #2ecc71; opacity: 0.7"/>
   </g>
   <g id="patch_78">
    <path d="M 372.83252 306.016125 
L 376.833943 306.016125 
L 376.833943 298.697663 
L 372.83252 298.697663 
z
" clip-path="url(#p6fff24e22b)" style="fill: #2ecc71; opacity: 0.7"/>
   </g>
   <g id="patch_79">
    <path d="M 376.833943 306.016125 
L 380.835365 306.016125 
L 380.835365 298.697663 
L 376.833943 298.697663 
z
" clip-path="url(#p6fff24e22b)" style="fill: #2ecc71; opacity: 0.7"/>
   </g>
   <g id="patch_80">
    <path d="M 380.835365 306.016125 
L 384.836787 306.016125 
L 384.836787 299.046162 
L 380.835365 299.046162 
z
" clip-path="url(#p6fff24e22b)" style="fill: #2ecc71; opacity: 0.7"/>
   </g>
   <g id="patch_81">
    <path d="M 384.836787 306.016125 
L 388.838209 306.016125 
L 388.838209 299.046162 
L 384.836787 299.046162 
z
" clip-path="url(#p6fff24e22b)" style="fill: #2ecc71; opacity: 0.7"/>
   </g>
   <g id="patch_82">
    <path d="M 388.838209 306.016125 
L 392.839631 306.016125 
L 392.839631 299.743158 
L 388.838209 299.743158 
z
" clip-path="url(#p6fff24e22b)" style="fill: #2ecc71; opacity: 0.7"/>
   </g>
   <g id="patch_83">
    <path d="M 392.839631 306.016125 
L 396.841053 306.016125 
L 396.841053 299.743158 
L 392.839631 299.743158 
z
" clip-path="url(#p6fff24e22b)" style="fill: #2ecc71; opacity: 0.7"/>
   </g>
   <g id="patch_84">
    <path d="M 396.841053 306.016125 
L 400.842475 306.016125 
L 400.842475 299.743158 
L 396.841053 299.743158 
z
" clip-path="url(#p6fff24e22b)" style="fill: #2ecc71; opacity: 0.7"/>
   </g>
   <g id="patch_85">
    <path d="M 400.842475 306.016125 
L 404.843898 306.016125 
L 404.843898 300.091656 
L 400.842475 300.091656 
z
" clip-path="url(#p6fff24e22b)" style="fill: #2ecc71; opacity: 0.7"/>
   </g>
   <g id="patch_86">
    <path d="M 404.843898 306.016125 
L 408.84532 306.016125 
L 408.84532 300.091656 
L 404.843898 300.091656 
z
" clip-path="url(#p6fff24e22b)" style="fill: #2ecc71; opacity: 0.7"/>
   </g>
   <g id="patch_87">
    <path d="M 408.84532 306.016125 
L 412.846742 306.016125 
L 412.846742 300.091656 
L 408.84532 300.091656 
z
" clip-path="url(#p6fff24e22b)" style="fill: #2ecc71; opacity: 0.7"/>
   </g>
   <g id="patch_88">
    <path d="M 412.846742 306.016125 
L 416.848164 306.016125 
L 416.848164 300.091656 
L 412.846742 300.091656 
z
" clip-path="url(#p6fff24e22b)" style="fill: #2ecc71; opacity: 0.7"/>
   </g>
   <g id="patch_89">
    <path d="M 416.848164 306.016125 
L 420.849586 306.016125 
L 420.849586 300.091656 
L 416.848164 300.091656 
z
" clip-path="url(#p6fff24e22b)" style="fill: #2ecc71; opacity: 0.7"/>
   </g>
   <g id="patch_90">
    <path d="M 420.849586 306.016125 
L 424.851008 306.016125 
L 424.851008 300.440154 
L 420.849586 300.440154 
z
" clip-path="url(#p6fff24e22b)" style="fill: #2ecc71; opacity: 0.7"/>
   </g>
   <g id="patch_91">
    <path d="M 424.851008 306.016125 
L 428.85243 306.016125 
L 428.85243 300.440154 
L 424.851008 300.440154 
z
" clip-path="url(#p6fff24e22b)" style="fill: #2ecc71; opacity: 0.7"/>
   </g>
   <g id="patch_92">
    <path d="M 428.85243 306.016125 
L 432.853852 306.016125 
L 432.853852 300.440154 
L 428.85243 300.440154 
z
" clip-path="url(#p6fff24e22b)" style="fill: #2ecc71; opacity: 0.7"/>
   </g>
   <g id="patch_93">
    <path d="M 432.853852 306.016125 
L 436.855275 306.016125 
L 436.855275 300.440154 
L 432.853852 300.440154 
z
" clip-path="url(#p6fff24e22b)" style="fill: #2ecc71; opacity: 0.7"/>
   </g>
   <g id="patch_94">
    <path d="M 436.855275 306.016125 
L 440.856697 306.016125 
L 440.856697 300.440154 
L 436.855275 300.440154 
z
" clip-path="url(#p6fff24e22b)" style="fill: #2ecc71; opacity: 0.7"/>
   </g>
   <g id="patch_95">
    <path d="M 440.856697 306.016125 
L 444.858119 306.016125 
L 444.858119 300.788652 
L 440.856697 300.788652 
z
" clip-path="url(#p6fff24e22b)" style="fill: #2ecc71; opacity: 0.7"/>
   </g>
   <g id="patch_96">
    <path d="M 444.858119 306.016125 
L 448.859541 306.016125 
L 448.859541 301.137151 
L 444.858119 301.137151 
z
" clip-path="url(#p6fff24e22b)" style="fill: #2ecc71; opacity: 0.7"/>
   </g>
   <g id="patch_97">
    <path d="M 448.859541 306.016125 
L 452.860963 306.016125 
L 452.860963 301.137151 
L 448.859541 301.137151 
z
" clip-path="url(#p6fff24e22b)" style="fill: #2ecc71; opacity: 0.7"/>
   </g>
   <g id="patch_98">
    <path d="M 452.860963 306.016125 
L 456.862385 306.016125 
L 456.862385 301.485649 
L 452.860963 301.485649 
z
" clip-path="url(#p6fff24e22b)" style="fill: #2ecc71; opacity: 0.7"/>
   </g>
   <g id="patch_99">
    <path d="M 456.862385 306.016125 
L 460.863807 306.016125 
L 460.863807 301.485649 
L 456.862385 301.485649 
z
" clip-path="url(#p6fff24e22b)" style="fill: #2ecc71; opacity: 0.7"/>
   </g>
   <g id="patch_100">
    <path d="M 460.863807 306.016125 
L 464.865229 306.016125 
L 464.865229 301.834147 
L 460.863807 301.834147 
z
" clip-path="url(#p6fff24e22b)" style="fill: #2ecc71; opacity: 0.7"/>
   </g>
   <g id="patch_101">
    <path d="M 464.865229 306.016125 
L 468.866652 306.016125 
L 468.866652 301.834147 
L 464.865229 301.834147 
z
" clip-path="url(#p6fff24e22b)" style="fill: #2ecc71; opacity: 0.7"/>
   </g>
   <g id="patch_102">
    <path d="M 468.866652 306.016125 
L 472.868074 306.016125 
L 472.868074 302.182645 
L 468.866652 302.182645 
z
" clip-path="url(#p6fff24e22b)" style="fill: #2ecc71; opacity: 0.7"/>
   </g>
   <g id="matplotlib.axis_1">
    <g id="xtick_1">
     <g id="line2d_1">
      <defs>
       <path id="m010237088e" d="M 0 0 
L 0 3.5 
" style="stroke: #000000; stroke-width: 0.8"/>
      </defs>
      <g>
       <use xlink:href="#m010237088e" x="74.726572" y="306.016125" style="stroke: #000000; stroke-width: 0.8"/>
      </g>
     </g>
     <g id="text_1">
      <!-- 0 -->
      <g transform="translate(70.909072 322.13425) scale(0.12 -0.12)">
       <defs>
        <path id="DejaVuSans-30" d="M 2034 4250 
Q 1547 4250 1301 3770 
Q 1056 3291 1056 2328 
Q 1056 1369 1301 889 
Q 1547 409 2034 409 
Q 2525 409 2770 889 
Q 3016 1369 3016 2328 
Q 3016 3291 2770 3770 
Q 2525 4250 2034 4250 
z
M 2034 4750 
Q 2819 4750 3233 4129 
Q 3647 3509 3647 2328 
Q 3647 1150 3233 529 
Q 2819 -91 2034 -91 
Q 1250 -91 836 529 
Q 422 1150 422 2328 
Q 422 3509 836 4129 
Q 1250 4750 2034 4750 
z
" transform="scale(0.015625)"/>
       </defs>
       <use xlink:href="#DejaVuSans-30"/>
      </g>
     </g>
    </g>
    <g id="xtick_2">
     <g id="line2d_2">
      <g>
       <use xlink:href="#m010237088e" x="154.755014" y="306.016125" style="stroke: #000000; stroke-width: 0.8"/>
      </g>
     </g>
     <g id="text_2">
      <!-- 20 -->
      <g transform="translate(147.120014 322.13425) scale(0.12 -0.12)">
       <defs>
        <path id="DejaVuSans-32" d="M 1228 531 
L 3431 531 
L 3431 0 
L 469 0 
L 469 531 
Q 828 903 1448 1529 
Q 2069 2156 2228 2338 
Q 2531 2678 2651 2914 
Q 2772 3150 2772 3378 
Q 2772 3750 2511 3984 
Q 2250 4219 1831 4219 
Q 1534 4219 1204 4116 
Q 875 4013 500 3803 
L 500 4441 
Q 881 4594 1212 4672 
Q 1544 4750 1819 4750 
Q 2544 4750 2975 4387 
Q 3406 4025 3406 3419 
Q 3406 3131 3298 2873 
Q 3191 2616 2906 2266 
Q 2828 2175 2409 1742 
Q 1991 1309 1228 531 
z
" transform="scale(0.015625)"/>
       </defs>
       <use xlink:href="#DejaVuSans-32"/>
       <use xlink:href="#DejaVuSans-30" x="63.623047"/>
      </g>
     </g>
    </g>
    <g id="xtick_3">
     <g id="line2d_3">
      <g>
       <use xlink:href="#m010237088e" x="234.783457" y="306.016125" style="stroke: #000000; stroke-width: 0.8"/>
      </g>
     </g>
     <g id="text_3">
      <!-- 40 -->
      <g transform="translate(227.148457 322.13425) scale(0.12 -0.12)">
       <defs>
        <path id="DejaVuSans-34" d="M 2419 4116 
L 825 1625 
L 2419 1625 
L 2419 4116 
z
M 2253 4666 
L 3047 4666 
L 3047 1625 
L 3713 1625 
L 3713 1100 
L 3047 1100 
L 3047 0 
L 2419 0 
L 2419 1100 
L 313 1100 
L 313 1709 
L 2253 4666 
z
" transform="scale(0.015625)"/>
       </defs>
       <use xlink:href="#DejaVuSans-34"/>
       <use xlink:href="#DejaVuSans-30" x="63.623047"/>
      </g>
     </g>
    </g>
    <g id="xtick_4">
     <g id="line2d_4">
      <g>
       <use xlink:href="#m010237088e" x="314.8119" y="306.016125" style="stroke: #000000; stroke-width: 0.8"/>
      </g>
     </g>
     <g id="text_4">
      <!-- 60 -->
      <g transform="translate(307.1769 322.13425) scale(0.12 -0.12)">
       <defs>
        <path id="DejaVuSans-36" d="M 2113 2584 
Q 1688 2584 1439 2293 
Q 1191 2003 1191 1497 
Q 1191 994 1439 701 
Q 1688 409 2113 409 
Q 2538 409 2786 701 
Q 3034 994 3034 1497 
Q 3034 2003 2786 2293 
Q 2538 2584 2113 2584 
z
M 3366 4563 
L 3366 3988 
Q 3128 4100 2886 4159 
Q 2644 4219 2406 4219 
Q 1781 4219 1451 3797 
Q 1122 3375 1075 2522 
Q 1259 2794 1537 2939 
Q 1816 3084 2150 3084 
Q 2853 3084 3261 2657 
Q 3669 2231 3669 1497 
Q 3669 778 3244 343 
Q 2819 -91 2113 -91 
Q 1303 -91 875 529 
Q 447 1150 447 2328 
Q 447 3434 972 4092 
Q 1497 4750 2381 4750 
Q 2619 4750 2861 4703 
Q 3103 4656 3366 4563 
z
" transform="scale(0.015625)"/>
       </defs>
       <use xlink:href="#DejaVuSans-36"/>
       <use xlink:href="#DejaVuSans-30" x="63.623047"/>
      </g>
     </g>
    </g>
    <g id="xtick_5">
     <g id="line2d_5">
      <g>
       <use xlink:href="#m010237088e" x="394.840342" y="306.016125" style="stroke: #000000; stroke-width: 0.8"/>
      </g>
     </g>
     <g id="text_5">
      <!-- 80 -->
      <g transform="translate(387.205342 322.13425) scale(0.12 -0.12)">
       <defs>
        <path id="DejaVuSans-38" d="M 2034 2216 
Q 1584 2216 1326 1975 
Q 1069 1734 1069 1313 
Q 1069 891 1326 650 
Q 1584 409 2034 409 
Q 2484 409 2743 651 
Q 3003 894 3003 1313 
Q 3003 1734 2745 1975 
Q 2488 2216 2034 2216 
z
M 1403 2484 
Q 997 2584 770 2862 
Q 544 3141 544 3541 
Q 544 4100 942 4425 
Q 1341 4750 2034 4750 
Q 2731 4750 3128 4425 
Q 3525 4100 3525 3541 
Q 3525 3141 3298 2862 
Q 3072 2584 2669 2484 
Q 3125 2378 3379 2068 
Q 3634 1759 3634 1313 
Q 3634 634 3220 271 
Q 2806 -91 2034 -91 
Q 1263 -91 848 271 
Q 434 634 434 1313 
Q 434 1759 690 2068 
Q 947 2378 1403 2484 
z
M 1172 3481 
Q 1172 3119 1398 2916 
Q 1625 2713 2034 2713 
Q 2441 2713 2670 2916 
Q 2900 3119 2900 3481 
Q 2900 3844 2670 4047 
Q 2441 4250 2034 4250 
Q 1625 4250 1398 4047 
Q 1172 3844 1172 3481 
z
" transform="scale(0.015625)"/>
       </defs>
       <use xlink:href="#DejaVuSans-38"/>
       <use xlink:href="#DejaVuSans-30" x="63.623047"/>
      </g>
     </g>
    </g>
    <g id="xtick_6">
     <g id="line2d_6">
      <g>
       <use xlink:href="#m010237088e" x="474.868785" y="306.016125" style="stroke: #000000; stroke-width: 0.8"/>
      </g>
     </g>
     <g id="text_6">
      <!-- 100 -->
      <g transform="translate(463.416285 322.13425) scale(0.12 -0.12)">
       <defs>
        <path id="DejaVuSans-31" d="M 794 531 
L 1825 531 
L 1825 4091 
L 703 3866 
L 703 4441 
L 1819 4666 
L 2450 4666 
L 2450 531 
L 3481 531 
L 3481 0 
L 794 0 
L 794 531 
z
" transform="scale(0.015625)"/>
       </defs>
       <use xlink:href="#DejaVuSans-31"/>
       <use xlink:href="#DejaVuSans-30" x="63.623047"/>
       <use xlink:href="#DejaVuSans-30" x="127.246094"/>
      </g>
     </g>
    </g>
    <g id="text_7">
     <!-- Item Rank -->
     <g transform="translate(242.243842 337.748) scale(0.12 -0.12)">
      <defs>
       <path id="DejaVuSans-49" d="M 628 4666 
L 1259 4666 
L 1259 0 
L 628 0 
L 628 4666 
z
" transform="scale(0.015625)"/>
       <path id="DejaVuSans-74" d="M 1172 4494 
L 1172 3500 
L 2356 3500 
L 2356 3053 
L 1172 3053 
L 1172 1153 
Q 1172 725 1289 603 
Q 1406 481 1766 481 
L 2356 481 
L 2356 0 
L 1766 0 
Q 1100 0 847 248 
Q 594 497 594 1153 
L 594 3053 
L 172 3053 
L 172 3500 
L 594 3500 
L 594 4494 
L 1172 4494 
z
" transform="scale(0.015625)"/>
       <path id="DejaVuSans-65" d="M 3597 1894 
L 3597 1613 
L 953 1613 
Q 991 1019 1311 708 
Q 1631 397 2203 397 
Q 2534 397 2845 478 
Q 3156 559 3463 722 
L 3463 178 
Q 3153 47 2828 -22 
Q 2503 -91 2169 -91 
Q 1331 -91 842 396 
Q 353 884 353 1716 
Q 353 2575 817 3079 
Q 1281 3584 2069 3584 
Q 2775 3584 3186 3129 
Q 3597 2675 3597 1894 
z
M 3022 2063 
Q 3016 2534 2758 2815 
Q 2500 3097 2075 3097 
Q 1594 3097 1305 2825 
Q 1016 2553 972 2059 
L 3022 2063 
z
" transform="scale(0.015625)"/>
       <path id="DejaVuSans-6d" d="M 3328 2828 
Q 3544 3216 3844 3400 
Q 4144 3584 4550 3584 
Q 5097 3584 5394 3201 
Q 5691 2819 5691 2113 
L 5691 0 
L 5113 0 
L 5113 2094 
Q 5113 2597 4934 2840 
Q 4756 3084 4391 3084 
Q 3944 3084 3684 2787 
Q 3425 2491 3425 1978 
L 3425 0 
L 2847 0 
L 2847 2094 
Q 2847 2600 2669 2842 
Q 2491 3084 2119 3084 
Q 1678 3084 1418 2786 
Q 1159 2488 1159 1978 
L 1159 0 
L 581 0 
L 581 3500 
L 1159 3500 
L 1159 2956 
Q 1356 3278 1631 3431 
Q 1906 3584 2284 3584 
Q 2666 3584 2933 3390 
Q 3200 3197 3328 2828 
z
" transform="scale(0.015625)"/>
       <path id="DejaVuSans-20" transform="scale(0.015625)"/>
       <path id="DejaVuSans-52" d="M 2841 2188 
Q 3044 2119 3236 1894 
Q 3428 1669 3622 1275 
L 4263 0 
L 3584 0 
L 2988 1197 
Q 2756 1666 2539 1819 
Q 2322 1972 1947 1972 
L 1259 1972 
L 1259 0 
L 628 0 
L 628 4666 
L 2053 4666 
Q 2853 4666 3247 4331 
Q 3641 3997 3641 3322 
Q 3641 2881 3436 2590 
Q 3231 2300 2841 2188 
z
M 1259 4147 
L 1259 2491 
L 2053 2491 
Q 2509 2491 2742 2702 
Q 2975 2913 2975 3322 
Q 2975 3731 2742 3939 
Q 2509 4147 2053 4147 
L 1259 4147 
z
" transform="scale(0.015625)"/>
       <path id="DejaVuSans-61" d="M 2194 1759 
Q 1497 1759 1228 1600 
Q 959 1441 959 1056 
Q 959 750 1161 570 
Q 1363 391 1709 391 
Q 2188 391 2477 730 
Q 2766 1069 2766 1631 
L 2766 1759 
L 2194 1759 
z
M 3341 1997 
L 3341 0 
L 2766 0 
L 2766 531 
Q 2569 213 2275 61 
Q 1981 -91 1556 -91 
Q 1019 -91 701 211 
Q 384 513 384 1019 
Q 384 1609 779 1909 
Q 1175 2209 1959 2209 
L 2766 2209 
L 2766 2266 
Q 2766 2663 2505 2880 
Q 2244 3097 1772 3097 
Q 1472 3097 1187 3025 
Q 903 2953 641 2809 
L 641 3341 
Q 956 3463 1253 3523 
Q 1550 3584 1831 3584 
Q 2591 3584 2966 3190 
Q 3341 2797 3341 1997 
z
" transform="scale(0.015625)"/>
       <path id="DejaVuSans-6e" d="M 3513 2113 
L 3513 0 
L 2938 0 
L 2938 2094 
Q 2938 2591 2744 2837 
Q 2550 3084 2163 3084 
Q 1697 3084 1428 2787 
Q 1159 2491 1159 1978 
L 1159 0 
L 581 0 
L 581 3500 
L 1159 3500 
L 1159 2956 
Q 1366 3272 1645 3428 
Q 1925 3584 2291 3584 
Q 2894 3584 3203 3211 
Q 3513 2838 3513 2113 
z
" transform="scale(0.015625)"/>
       <path id="DejaVuSans-6b" d="M 581 4863 
L 1159 4863 
L 1159 1991 
L 2875 3500 
L 3609 3500 
L 1753 1863 
L 3688 0 
L 2938 0 
L 1159 1709 
L 1159 0 
L 581 0 
L 581 4863 
z
" transform="scale(0.015625)"/>
      </defs>
      <use xlink:href="#DejaVuSans-49"/>
      <use xlink:href="#DejaVuSans-74" x="29.492188"/>
      <use xlink:href="#DejaVuSans-65" x="68.701172"/>
      <use xlink:href="#DejaVuSans-6d" x="130.224609"/>
      <use xlink:href="#DejaVuSans-20" x="227.636719"/>
      <use xlink:href="#DejaVuSans-52" x="259.423828"/>
      <use xlink:href="#DejaVuSans-61" x="326.65625"/>
      <use xlink:href="#DejaVuSans-6e" x="387.935547"/>
      <use xlink:href="#DejaVuSans-6b" x="451.314453"/>
     </g>
    </g>
   </g>
   <g id="matplotlib.axis_2">
    <g id="ytick_1">
     <g id="line2d_7">
      <defs>
       <path id="m1d6caa52c4" d="M 0 0 
L -3.5 0 
" style="stroke: #000000; stroke-width: 0.8"/>
      </defs>
      <g>
       <use xlink:href="#m1d6caa52c4" x="52.71875" y="306.016125" style="stroke: #000000; stroke-width: 0.8"/>
      </g>
     </g>
     <g id="text_8">
      <!-- 0 -->
      <g transform="translate(38.08375 310.575187) scale(0.12 -0.12)">
       <use xlink:href="#DejaVuSans-30"/>
      </g>
     </g>
    </g>
    <g id="ytick_2">
     <g id="line2d_8">
      <g>
       <use xlink:href="#m1d6caa52c4" x="52.71875" y="271.166308" style="stroke: #000000; stroke-width: 0.8"/>
      </g>
     </g>
     <g id="text_9">
      <!-- 100 -->
      <g transform="translate(22.81375 275.725371) scale(0.12 -0.12)">
       <use xlink:href="#DejaVuSans-31"/>
       <use xlink:href="#DejaVuSans-30" x="63.623047"/>
       <use xlink:href="#DejaVuSans-30" x="127.246094"/>
      </g>
     </g>
    </g>
    <g id="ytick_3">
     <g id="line2d_9">
      <g>
       <use xlink:href="#m1d6caa52c4" x="52.71875" y="236.316491" style="stroke: #000000; stroke-width: 0.8"/>
      </g>
     </g>
     <g id="text_10">
      <!-- 200 -->
      <g transform="translate(22.81375 240.875554) scale(0.12 -0.12)">
       <use xlink:href="#DejaVuSans-32"/>
       <use xlink:href="#DejaVuSans-30" x="63.623047"/>
       <use xlink:href="#DejaVuSans-30" x="127.246094"/>
      </g>
     </g>
    </g>
    <g id="ytick_4">
     <g id="line2d_10">
      <g>
       <use xlink:href="#m1d6caa52c4" x="52.71875" y="201.466674" style="stroke: #000000; stroke-width: 0.8"/>
      </g>
     </g>
     <g id="text_11">
      <!-- 300 -->
      <g transform="translate(22.81375 206.025737) scale(0.12 -0.12)">
       <defs>
        <path id="DejaVuSans-33" d="M 2597 2516 
Q 3050 2419 3304 2112 
Q 3559 1806 3559 1356 
Q 3559 666 3084 287 
Q 2609 -91 1734 -91 
Q 1441 -91 1130 -33 
Q 819 25 488 141 
L 488 750 
Q 750 597 1062 519 
Q 1375 441 1716 441 
Q 2309 441 2620 675 
Q 2931 909 2931 1356 
Q 2931 1769 2642 2001 
Q 2353 2234 1838 2234 
L 1294 2234 
L 1294 2753 
L 1863 2753 
Q 2328 2753 2575 2939 
Q 2822 3125 2822 3475 
Q 2822 3834 2567 4026 
Q 2313 4219 1838 4219 
Q 1578 4219 1281 4162 
Q 984 4106 628 3988 
L 628 4550 
Q 988 4650 1302 4700 
Q 1616 4750 1894 4750 
Q 2613 4750 3031 4423 
Q 3450 4097 3450 3541 
Q 3450 3153 3228 2886 
Q 3006 2619 2597 2516 
z
" transform="scale(0.015625)"/>
       </defs>
       <use xlink:href="#DejaVuSans-33"/>
       <use xlink:href="#DejaVuSans-30" x="63.623047"/>
       <use xlink:href="#DejaVuSans-30" x="127.246094"/>
      </g>
     </g>
    </g>
    <g id="ytick_5">
     <g id="line2d_11">
      <g>
       <use xlink:href="#m1d6caa52c4" x="52.71875" y="166.616858" style="stroke: #000000; stroke-width: 0.8"/>
      </g>
     </g>
     <g id="text_12">
      <!-- 400 -->
      <g transform="translate(22.81375 171.17592) scale(0.12 -0.12)">
       <use xlink:href="#DejaVuSans-34"/>
       <use xlink:href="#DejaVuSans-30" x="63.623047"/>
       <use xlink:href="#DejaVuSans-30" x="127.246094"/>
      </g>
     </g>
    </g>
    <g id="ytick_6">
     <g id="line2d_12">
      <g>
       <use xlink:href="#m1d6caa52c4" x="52.71875" y="131.767041" style="stroke: #000000; stroke-width: 0.8"/>
      </g>
     </g>
     <g id="text_13">
      <!-- 500 -->
      <g transform="translate(22.81375 136.326103) scale(0.12 -0.12)">
       <defs>
        <path id="DejaVuSans-35" d="M 691 4666 
L 3169 4666 
L 3169 4134 
L 1269 4134 
L 1269 2991 
Q 1406 3038 1543 3061 
Q 1681 3084 1819 3084 
Q 2600 3084 3056 2656 
Q 3513 2228 3513 1497 
Q 3513 744 3044 326 
Q 2575 -91 1722 -91 
Q 1428 -91 1123 -41 
Q 819 9 494 109 
L 494 744 
Q 775 591 1075 516 
Q 1375 441 1709 441 
Q 2250 441 2565 725 
Q 2881 1009 2881 1497 
Q 2881 1984 2565 2268 
Q 2250 2553 1709 2553 
Q 1456 2553 1204 2497 
Q 953 2441 691 2322 
L 691 4666 
z
" transform="scale(0.015625)"/>
       </defs>
       <use xlink:href="#DejaVuSans-35"/>
       <use xlink:href="#DejaVuSans-30" x="63.623047"/>
       <use xlink:href="#DejaVuSans-30" x="127.246094"/>
      </g>
     </g>
    </g>
    <g id="ytick_7">
     <g id="line2d_13">
      <g>
       <use xlink:href="#m1d6caa52c4" x="52.71875" y="96.917224" style="stroke: #000000; stroke-width: 0.8"/>
      </g>
     </g>
     <g id="text_14">
      <!-- 600 -->
      <g transform="translate(22.81375 101.476286) scale(0.12 -0.12)">
       <use xlink:href="#DejaVuSans-36"/>
       <use xlink:href="#DejaVuSans-30" x="63.623047"/>
       <use xlink:href="#DejaVuSans-30" x="127.246094"/>
      </g>
     </g>
    </g>
    <g id="ytick_8">
     <g id="line2d_14">
      <g>
       <use xlink:href="#m1d6caa52c4" x="52.71875" y="62.067407" style="stroke: #000000; stroke-width: 0.8"/>
      </g>
     </g>
     <g id="text_15">
      <!-- 700 -->
      <g transform="translate(22.81375 66.62647) scale(0.12 -0.12)">
       <defs>
        <path id="DejaVuSans-37" d="M 525 4666 
L 3525 4666 
L 3525 4397 
L 1831 0 
L 1172 0 
L 2766 4134 
L 525 4134 
L 525 4666 
z
" transform="scale(0.015625)"/>
       </defs>
       <use xlink:href="#DejaVuSans-37"/>
       <use xlink:href="#DejaVuSans-30" x="63.623047"/>
       <use xlink:href="#DejaVuSans-30" x="127.246094"/>
      </g>
     </g>
    </g>
    <g id="text_16">
     <!-- Number of Interactions -->
     <g transform="translate(16.318125 242.197937) rotate(-90) scale(0.12 -0.12)">
      <defs>
       <path id="DejaVuSans-4e" d="M 628 4666 
L 1478 4666 
L 3547 763 
L 3547 4666 
L 4159 4666 
L 4159 0 
L 3309 0 
L 1241 3903 
L 1241 0 
L 628 0 
L 628 4666 
z
" transform="scale(0.015625)"/>
       <path id="DejaVuSans-75" d="M 544 1381 
L 544 3500 
L 1119 3500 
L 1119 1403 
Q 1119 906 1312 657 
Q 1506 409 1894 409 
Q 2359 409 2629 706 
Q 2900 1003 2900 1516 
L 2900 3500 
L 3475 3500 
L 3475 0 
L 2900 0 
L 2900 538 
Q 2691 219 2414 64 
Q 2138 -91 1772 -91 
Q 1169 -91 856 284 
Q 544 659 544 1381 
z
M 1991 3584 
L 1991 3584 
z
" transform="scale(0.015625)"/>
       <path id="DejaVuSans-62" d="M 3116 1747 
Q 3116 2381 2855 2742 
Q 2594 3103 2138 3103 
Q 1681 3103 1420 2742 
Q 1159 2381 1159 1747 
Q 1159 1113 1420 752 
Q 1681 391 2138 391 
Q 2594 391 2855 752 
Q 3116 1113 3116 1747 
z
M 1159 2969 
Q 1341 3281 1617 3432 
Q 1894 3584 2278 3584 
Q 2916 3584 3314 3078 
Q 3713 2572 3713 1747 
Q 3713 922 3314 415 
Q 2916 -91 2278 -91 
Q 1894 -91 1617 61 
Q 1341 213 1159 525 
L 1159 0 
L 581 0 
L 581 4863 
L 1159 4863 
L 1159 2969 
z
" transform="scale(0.015625)"/>
       <path id="DejaVuSans-72" d="M 2631 2963 
Q 2534 3019 2420 3045 
Q 2306 3072 2169 3072 
Q 1681 3072 1420 2755 
Q 1159 2438 1159 1844 
L 1159 0 
L 581 0 
L 581 3500 
L 1159 3500 
L 1159 2956 
Q 1341 3275 1631 3429 
Q 1922 3584 2338 3584 
Q 2397 3584 2469 3576 
Q 2541 3569 2628 3553 
L 2631 2963 
z
" transform="scale(0.015625)"/>
       <path id="DejaVuSans-6f" d="M 1959 3097 
Q 1497 3097 1228 2736 
Q 959 2375 959 1747 
Q 959 1119 1226 758 
Q 1494 397 1959 397 
Q 2419 397 2687 759 
Q 2956 1122 2956 1747 
Q 2956 2369 2687 2733 
Q 2419 3097 1959 3097 
z
M 1959 3584 
Q 2709 3584 3137 3096 
Q 3566 2609 3566 1747 
Q 3566 888 3137 398 
Q 2709 -91 1959 -91 
Q 1206 -91 779 398 
Q 353 888 353 1747 
Q 353 2609 779 3096 
Q 1206 3584 1959 3584 
z
" transform="scale(0.015625)"/>
       <path id="DejaVuSans-66" d="M 2375 4863 
L 2375 4384 
L 1825 4384 
Q 1516 4384 1395 4259 
Q 1275 4134 1275 3809 
L 1275 3500 
L 2222 3500 
L 2222 3053 
L 1275 3053 
L 1275 0 
L 697 0 
L 697 3053 
L 147 3053 
L 147 3500 
L 697 3500 
L 697 3744 
Q 697 4328 969 4595 
Q 1241 4863 1831 4863 
L 2375 4863 
z
" transform="scale(0.015625)"/>
       <path id="DejaVuSans-63" d="M 3122 3366 
L 3122 2828 
Q 2878 2963 2633 3030 
Q 2388 3097 2138 3097 
Q 1578 3097 1268 2742 
Q 959 2388 959 1747 
Q 959 1106 1268 751 
Q 1578 397 2138 397 
Q 2388 397 2633 464 
Q 2878 531 3122 666 
L 3122 134 
Q 2881 22 2623 -34 
Q 2366 -91 2075 -91 
Q 1284 -91 818 406 
Q 353 903 353 1747 
Q 353 2603 823 3093 
Q 1294 3584 2113 3584 
Q 2378 3584 2631 3529 
Q 2884 3475 3122 3366 
z
" transform="scale(0.015625)"/>
       <path id="DejaVuSans-69" d="M 603 3500 
L 1178 3500 
L 1178 0 
L 603 0 
L 603 3500 
z
M 603 4863 
L 1178 4863 
L 1178 4134 
L 603 4134 
L 603 4863 
z
" transform="scale(0.015625)"/>
       <path id="DejaVuSans-73" d="M 2834 3397 
L 2834 2853 
Q 2591 2978 2328 3040 
Q 2066 3103 1784 3103 
Q 1356 3103 1142 2972 
Q 928 2841 928 2578 
Q 928 2378 1081 2264 
Q 1234 2150 1697 2047 
L 1894 2003 
Q 2506 1872 2764 1633 
Q 3022 1394 3022 966 
Q 3022 478 2636 193 
Q 2250 -91 1575 -91 
Q 1294 -91 989 -36 
Q 684 19 347 128 
L 347 722 
Q 666 556 975 473 
Q 1284 391 1588 391 
Q 1994 391 2212 530 
Q 2431 669 2431 922 
Q 2431 1156 2273 1281 
Q 2116 1406 1581 1522 
L 1381 1569 
Q 847 1681 609 1914 
Q 372 2147 372 2553 
Q 372 3047 722 3315 
Q 1072 3584 1716 3584 
Q 2034 3584 2315 3537 
Q 2597 3491 2834 3397 
z
" transform="scale(0.015625)"/>
      </defs>
      <use xlink:href="#DejaVuSans-4e"/>
      <use xlink:href="#DejaVuSans-75" x="74.804688"/>
      <use xlink:href="#DejaVuSans-6d" x="138.183594"/>
      <use xlink:href="#DejaVuSans-62" x="235.595703"/>
      <use xlink:href="#DejaVuSans-65" x="299.072266"/>
      <use xlink:href="#DejaVuSans-72" x="360.595703"/>
      <use xlink:href="#DejaVuSans-20" x="401.708984"/>
      <use xlink:href="#DejaVuSans-6f" x="433.496094"/>
      <use xlink:href="#DejaVuSans-66" x="494.677734"/>
      <use xlink:href="#DejaVuSans-20" x="529.882812"/>
      <use xlink:href="#DejaVuSans-49" x="561.669922"/>
      <use xlink:href="#DejaVuSans-6e" x="591.162109"/>
      <use xlink:href="#DejaVuSans-74" x="654.541016"/>
      <use xlink:href="#DejaVuSans-65" x="693.75"/>
      <use xlink:href="#DejaVuSans-72" x="755.273438"/>
      <use xlink:href="#DejaVuSans-61" x="796.386719"/>
      <use xlink:href="#DejaVuSans-63" x="857.666016"/>
      <use xlink:href="#DejaVuSans-74" x="912.646484"/>
      <use xlink:href="#DejaVuSans-69" x="951.855469"/>
      <use xlink:href="#DejaVuSans-6f" x="979.638672"/>
      <use xlink:href="#DejaVuSans-6e" x="1040.820312"/>
      <use xlink:href="#DejaVuSans-73" x="1104.199219"/>
     </g>
    </g>
   </g>
   <g id="line2d_15">
    <path d="M 154.755014 306.016125 
L 154.755014 39.624125 
" clip-path="url(#p6fff24e22b)" style="fill: none; stroke-dasharray: 7.4,3.2; stroke-dashoffset: 0; stroke: #e74c3c; stroke-width: 2"/>
   </g>
   <g id="patch_103">
    <path d="M 52.71875 306.016125 
L 52.71875 39.624125 
" style="fill: none; stroke: #000000; stroke-width: 0.8; stroke-linejoin: miter; stroke-linecap: square"/>
   </g>
   <g id="patch_104">
    <path d="M 52.71875 306.016125 
L 492.875184 306.016125 
" style="fill: none; stroke: #000000; stroke-width: 0.8; stroke-linejoin: miter; stroke-linecap: square"/>
   </g>
   <g id="patch_105">
    <path d="M 190.779601 99.866174 
Q 173.763349 101.370432 157.860787 102.776238 
" style="fill: none; stroke: #e74c3c; stroke-linecap: round"/>
    <path d="M 162.021365 104.416237 
L 157.860787 102.776238 
L 161.669133 100.431775 
" style="fill: none; stroke: #e74c3c; stroke-linecap: round"/>
   </g>
   <g id="text_17">
    <!-- Top 20% items -->
    <g style="fill: #e74c3c" transform="translate(194.769236 91.852979) scale(0.1 -0.1)">
     <defs>
      <path id="DejaVuSans-54" d="M -19 4666 
L 3928 4666 
L 3928 4134 
L 2272 4134 
L 2272 0 
L 1638 0 
L 1638 4134 
L -19 4134 
L -19 4666 
z
" transform="scale(0.015625)"/>
      <path id="DejaVuSans-70" d="M 1159 525 
L 1159 -1331 
L 581 -1331 
L 581 3500 
L 1159 3500 
L 1159 2969 
Q 1341 3281 1617 3432 
Q 1894 3584 2278 3584 
Q 2916 3584 3314 3078 
Q 3713 2572 3713 1747 
Q 3713 922 3314 415 
Q 2916 -91 2278 -91 
Q 1894 -91 1617 61 
Q 1341 213 1159 525 
z
M 3116 1747 
Q 3116 2381 2855 2742 
Q 2594 3103 2138 3103 
Q 1681 3103 1420 2742 
Q 1159 2381 1159 1747 
Q 1159 1113 1420 752 
Q 1681 391 2138 391 
Q 2594 391 2855 752 
Q 3116 1113 3116 1747 
z
" transform="scale(0.015625)"/>
      <path id="DejaVuSans-25" d="M 4653 2053 
Q 4381 2053 4226 1822 
Q 4072 1591 4072 1178 
Q 4072 772 4226 539 
Q 4381 306 4653 306 
Q 4919 306 5073 539 
Q 5228 772 5228 1178 
Q 5228 1588 5073 1820 
Q 4919 2053 4653 2053 
z
M 4653 2450 
Q 5147 2450 5437 2106 
Q 5728 1763 5728 1178 
Q 5728 594 5436 251 
Q 5144 -91 4653 -91 
Q 4153 -91 3862 251 
Q 3572 594 3572 1178 
Q 3572 1766 3864 2108 
Q 4156 2450 4653 2450 
z
M 1428 4353 
Q 1159 4353 1004 4120 
Q 850 3888 850 3481 
Q 850 3069 1003 2837 
Q 1156 2606 1428 2606 
Q 1700 2606 1854 2837 
Q 2009 3069 2009 3481 
Q 2009 3884 1853 4118 
Q 1697 4353 1428 4353 
z
M 4250 4750 
L 4750 4750 
L 1831 -91 
L 1331 -91 
L 4250 4750 
z
M 1428 4750 
Q 1922 4750 2215 4408 
Q 2509 4066 2509 3481 
Q 2509 2891 2217 2550 
Q 1925 2209 1428 2209 
Q 931 2209 642 2551 
Q 353 2894 353 3481 
Q 353 4063 643 4406 
Q 934 4750 1428 4750 
z
" transform="scale(0.015625)"/>
     </defs>
     <use xlink:href="#DejaVuSans-54"/>
     <use xlink:href="#DejaVuSans-6f" x="44.083984"/>
     <use xlink:href="#DejaVuSans-70" x="105.265625"/>
     <use xlink:href="#DejaVuSans-20" x="168.742188"/>
     <use xlink:href="#DejaVuSans-32" x="200.529297"/>
     <use xlink:href="#DejaVuSans-30" x="264.152344"/>
     <use xlink:href="#DejaVuSans-25" x="327.775391"/>
     <use xlink:href="#DejaVuSans-20" x="422.794922"/>
     <use xlink:href="#DejaVuSans-69" x="454.582031"/>
     <use xlink:href="#DejaVuSans-74" x="482.365234"/>
     <use xlink:href="#DejaVuSans-65" x="521.574219"/>
     <use xlink:href="#DejaVuSans-6d" x="583.097656"/>
     <use xlink:href="#DejaVuSans-73" x="680.509766"/>
    </g>
    <!-- = 58% of interactions -->
    <g style="fill: #e74c3c" transform="translate(194.769236 103.050792) scale(0.1 -0.1)">
     <defs>
      <path id="DejaVuSans-3d" d="M 678 2906 
L 4684 2906 
L 4684 2381 
L 678 2381 
L 678 2906 
z
M 678 1631 
L 4684 1631 
L 4684 1100 
L 678 1100 
L 678 1631 
z
" transform="scale(0.015625)"/>
     </defs>
     <use xlink:href="#DejaVuSans-3d"/>
     <use xlink:href="#DejaVuSans-20" x="83.789062"/>
     <use xlink:href="#DejaVuSans-35" x="115.576172"/>
     <use xlink:href="#DejaVuSans-38" x="179.199219"/>
     <use xlink:href="#DejaVuSans-25" x="242.822266"/>
     <use xlink:href="#DejaVuSans-20" x="337.841797"/>
     <use xlink:href="#DejaVuSans-6f" x="369.628906"/>
     <use xlink:href="#DejaVuSans-66" x="430.810547"/>
     <use xlink:href="#DejaVuSans-20" x="466.015625"/>
     <use xlink:href="#DejaVuSans-69" x="497.802734"/>
     <use xlink:href="#DejaVuSans-6e" x="525.585938"/>
     <use xlink:href="#DejaVuSans-74" x="588.964844"/>
     <use xlink:href="#DejaVuSans-65" x="628.173828"/>
     <use xlink:href="#DejaVuSans-72" x="689.697266"/>
     <use xlink:href="#DejaVuSans-61" x="730.810547"/>
     <use xlink:href="#DejaVuSans-63" x="792.089844"/>
     <use xlink:href="#DejaVuSans-74" x="847.070312"/>
     <use xlink:href="#DejaVuSans-69" x="886.279297"/>
     <use xlink:href="#DejaVuSans-6f" x="914.0625"/>
     <use xlink:href="#DejaVuSans-6e" x="975.244141"/>
     <use xlink:href="#DejaVuSans-73" x="1038.623047"/>
    </g>
   </g>
   <g id="text_18">
    <!-- Item Popularity Distribution -->
    <g transform="translate(162.007748 17.837812) scale(0.14 -0.14)">
     <defs>
      <path id="DejaVuSans-Bold-49" d="M 588 4666 
L 1791 4666 
L 1791 0 
L 588 0 
L 588 4666 
z
" transform="scale(0.015625)"/>
      <path id="DejaVuSans-Bold-74" d="M 1759 4494 
L 1759 3500 
L 2913 3500 
L 2913 2700 
L 1759 2700 
L 1759 1216 
Q 1759 972 1856 886 
Q 1953 800 2241 800 
L 2816 800 
L 2816 0 
L 1856 0 
Q 1194 0 917 276 
Q 641 553 641 1216 
L 641 2700 
L 84 2700 
L 84 3500 
L 641 3500 
L 641 4494 
L 1759 4494 
z
" transform="scale(0.015625)"/>
      <path id="DejaVuSans-Bold-65" d="M 4031 1759 
L 4031 1441 
L 1416 1441 
Q 1456 1047 1700 850 
Q 1944 653 2381 653 
Q 2734 653 3104 758 
Q 3475 863 3866 1075 
L 3866 213 
Q 3469 63 3072 -14 
Q 2675 -91 2278 -91 
Q 1328 -91 801 392 
Q 275 875 275 1747 
Q 275 2603 792 3093 
Q 1309 3584 2216 3584 
Q 3041 3584 3536 3087 
Q 4031 2591 4031 1759 
z
M 2881 2131 
Q 2881 2450 2695 2645 
Q 2509 2841 2209 2841 
Q 1884 2841 1681 2658 
Q 1478 2475 1428 2131 
L 2881 2131 
z
" transform="scale(0.015625)"/>
      <path id="DejaVuSans-Bold-6d" d="M 3781 2919 
Q 3994 3244 4286 3414 
Q 4578 3584 4928 3584 
Q 5531 3584 5847 3212 
Q 6163 2841 6163 2131 
L 6163 0 
L 5038 0 
L 5038 1825 
Q 5041 1866 5042 1909 
Q 5044 1953 5044 2034 
Q 5044 2406 4934 2573 
Q 4825 2741 4581 2741 
Q 4263 2741 4089 2478 
Q 3916 2216 3909 1719 
L 3909 0 
L 2784 0 
L 2784 1825 
Q 2784 2406 2684 2573 
Q 2584 2741 2328 2741 
Q 2006 2741 1831 2477 
Q 1656 2213 1656 1722 
L 1656 0 
L 531 0 
L 531 3500 
L 1656 3500 
L 1656 2988 
Q 1863 3284 2130 3434 
Q 2397 3584 2719 3584 
Q 3081 3584 3359 3409 
Q 3638 3234 3781 2919 
z
" transform="scale(0.015625)"/>
      <path id="DejaVuSans-Bold-20" transform="scale(0.015625)"/>
      <path id="DejaVuSans-Bold-50" d="M 588 4666 
L 2584 4666 
Q 3475 4666 3951 4270 
Q 4428 3875 4428 3144 
Q 4428 2409 3951 2014 
Q 3475 1619 2584 1619 
L 1791 1619 
L 1791 0 
L 588 0 
L 588 4666 
z
M 1791 3794 
L 1791 2491 
L 2456 2491 
Q 2806 2491 2997 2661 
Q 3188 2831 3188 3144 
Q 3188 3456 2997 3625 
Q 2806 3794 2456 3794 
L 1791 3794 
z
" transform="scale(0.015625)"/>
      <path id="DejaVuSans-Bold-6f" d="M 2203 2784 
Q 1831 2784 1636 2517 
Q 1441 2250 1441 1747 
Q 1441 1244 1636 976 
Q 1831 709 2203 709 
Q 2569 709 2762 976 
Q 2956 1244 2956 1747 
Q 2956 2250 2762 2517 
Q 2569 2784 2203 2784 
z
M 2203 3584 
Q 3106 3584 3614 3096 
Q 4122 2609 4122 1747 
Q 4122 884 3614 396 
Q 3106 -91 2203 -91 
Q 1297 -91 786 396 
Q 275 884 275 1747 
Q 275 2609 786 3096 
Q 1297 3584 2203 3584 
z
" transform="scale(0.015625)"/>
      <path id="DejaVuSans-Bold-70" d="M 1656 506 
L 1656 -1331 
L 538 -1331 
L 538 3500 
L 1656 3500 
L 1656 2988 
Q 1888 3294 2169 3439 
Q 2450 3584 2816 3584 
Q 3463 3584 3878 3070 
Q 4294 2556 4294 1747 
Q 4294 938 3878 423 
Q 3463 -91 2816 -91 
Q 2450 -91 2169 54 
Q 1888 200 1656 506 
z
M 2400 2772 
Q 2041 2772 1848 2508 
Q 1656 2244 1656 1747 
Q 1656 1250 1848 986 
Q 2041 722 2400 722 
Q 2759 722 2948 984 
Q 3138 1247 3138 1747 
Q 3138 2247 2948 2509 
Q 2759 2772 2400 2772 
z
" transform="scale(0.015625)"/>
      <path id="DejaVuSans-Bold-75" d="M 500 1363 
L 500 3500 
L 1625 3500 
L 1625 3150 
Q 1625 2866 1622 2436 
Q 1619 2006 1619 1863 
Q 1619 1441 1641 1255 
Q 1663 1069 1716 984 
Q 1784 875 1895 815 
Q 2006 756 2150 756 
Q 2500 756 2700 1025 
Q 2900 1294 2900 1772 
L 2900 3500 
L 4019 3500 
L 4019 0 
L 2900 0 
L 2900 506 
Q 2647 200 2364 54 
Q 2081 -91 1741 -91 
Q 1134 -91 817 281 
Q 500 653 500 1363 
z
" transform="scale(0.015625)"/>
      <path id="DejaVuSans-Bold-6c" d="M 538 4863 
L 1656 4863 
L 1656 0 
L 538 0 
L 538 4863 
z
" transform="scale(0.015625)"/>
      <path id="DejaVuSans-Bold-61" d="M 2106 1575 
Q 1756 1575 1579 1456 
Q 1403 1338 1403 1106 
Q 1403 894 1545 773 
Q 1688 653 1941 653 
Q 2256 653 2472 879 
Q 2688 1106 2688 1447 
L 2688 1575 
L 2106 1575 
z
M 3816 1997 
L 3816 0 
L 2688 0 
L 2688 519 
Q 2463 200 2181 54 
Q 1900 -91 1497 -91 
Q 953 -91 614 226 
Q 275 544 275 1050 
Q 275 1666 698 1953 
Q 1122 2241 2028 2241 
L 2688 2241 
L 2688 2328 
Q 2688 2594 2478 2717 
Q 2269 2841 1825 2841 
Q 1466 2841 1156 2769 
Q 847 2697 581 2553 
L 581 3406 
Q 941 3494 1303 3539 
Q 1666 3584 2028 3584 
Q 2975 3584 3395 3211 
Q 3816 2838 3816 1997 
z
" transform="scale(0.015625)"/>
      <path id="DejaVuSans-Bold-72" d="M 3138 2547 
Q 2991 2616 2845 2648 
Q 2700 2681 2553 2681 
Q 2122 2681 1889 2404 
Q 1656 2128 1656 1613 
L 1656 0 
L 538 0 
L 538 3500 
L 1656 3500 
L 1656 2925 
Q 1872 3269 2151 3426 
Q 2431 3584 2822 3584 
Q 2878 3584 2943 3579 
Q 3009 3575 3134 3559 
L 3138 2547 
z
" transform="scale(0.015625)"/>
      <path id="DejaVuSans-Bold-69" d="M 538 3500 
L 1656 3500 
L 1656 0 
L 538 0 
L 538 3500 
z
M 538 4863 
L 1656 4863 
L 1656 3950 
L 538 3950 
L 538 4863 
z
" transform="scale(0.015625)"/>
      <path id="DejaVuSans-Bold-79" d="M 78 3500 
L 1197 3500 
L 2138 1125 
L 2938 3500 
L 4056 3500 
L 2584 -331 
Q 2363 -916 2067 -1148 
Q 1772 -1381 1288 -1381 
L 641 -1381 
L 641 -647 
L 991 -647 
Q 1275 -647 1404 -556 
Q 1534 -466 1606 -231 
L 1638 -134 
L 78 3500 
z
" transform="scale(0.015625)"/>
      <path id="DejaVuSans-Bold-44" d="M 1791 3756 
L 1791 909 
L 2222 909 
Q 2959 909 3348 1275 
Q 3738 1641 3738 2338 
Q 3738 3031 3350 3393 
Q 2963 3756 2222 3756 
L 1791 3756 
z
M 588 4666 
L 1856 4666 
Q 2919 4666 3439 4514 
Q 3959 4363 4331 4000 
Q 4659 3684 4818 3271 
Q 4978 2859 4978 2338 
Q 4978 1809 4818 1395 
Q 4659 981 4331 666 
Q 3956 303 3431 151 
Q 2906 0 1856 0 
L 588 0 
L 588 4666 
z
" transform="scale(0.015625)"/>
      <path id="DejaVuSans-Bold-73" d="M 3272 3391 
L 3272 2541 
Q 2913 2691 2578 2766 
Q 2244 2841 1947 2841 
Q 1628 2841 1473 2761 
Q 1319 2681 1319 2516 
Q 1319 2381 1436 2309 
Q 1553 2238 1856 2203 
L 2053 2175 
Q 2913 2066 3209 1816 
Q 3506 1566 3506 1031 
Q 3506 472 3093 190 
Q 2681 -91 1863 -91 
Q 1516 -91 1145 -36 
Q 775 19 384 128 
L 384 978 
Q 719 816 1070 734 
Q 1422 653 1784 653 
Q 2113 653 2278 743 
Q 2444 834 2444 1013 
Q 2444 1163 2330 1236 
Q 2216 1309 1875 1350 
L 1678 1375 
Q 931 1469 631 1722 
Q 331 1975 331 2491 
Q 331 3047 712 3315 
Q 1094 3584 1881 3584 
Q 2191 3584 2531 3537 
Q 2872 3491 3272 3391 
z
" transform="scale(0.015625)"/>
      <path id="DejaVuSans-Bold-62" d="M 2400 722 
Q 2759 722 2948 984 
Q 3138 1247 3138 1747 
Q 3138 2247 2948 2509 
Q 2759 2772 2400 2772 
Q 2041 2772 1848 2508 
Q 1656 2244 1656 1747 
Q 1656 1250 1848 986 
Q 2041 722 2400 722 
z
M 1656 2988 
Q 1888 3294 2169 3439 
Q 2450 3584 2816 3584 
Q 3463 3584 3878 3070 
Q 4294 2556 4294 1747 
Q 4294 938 3878 423 
Q 3463 -91 2816 -91 
Q 2450 -91 2169 54 
Q 1888 200 1656 506 
L 1656 0 
L 538 0 
L 538 4863 
L 1656 4863 
L 1656 2988 
z
" transform="scale(0.015625)"/>
      <path id="DejaVuSans-Bold-6e" d="M 4056 2131 
L 4056 0 
L 2931 0 
L 2931 347 
L 2931 1631 
Q 2931 2084 2911 2256 
Q 2891 2428 2841 2509 
Q 2775 2619 2662 2680 
Q 2550 2741 2406 2741 
Q 2056 2741 1856 2470 
Q 1656 2200 1656 1722 
L 1656 0 
L 538 0 
L 538 3500 
L 1656 3500 
L 1656 2988 
Q 1909 3294 2193 3439 
Q 2478 3584 2822 3584 
Q 3428 3584 3742 3212 
Q 4056 2841 4056 2131 
z
" transform="scale(0.015625)"/>
     </defs>
     <use xlink:href="#DejaVuSans-Bold-49"/>
     <use xlink:href="#DejaVuSans-Bold-74" x="37.207031"/>
     <use xlink:href="#DejaVuSans-Bold-65" x="85.009766"/>
     <use xlink:href="#DejaVuSans-Bold-6d" x="152.832031"/>
     <use xlink:href="#DejaVuSans-Bold-20" x="257.03125"/>
     <use xlink:href="#DejaVuSans-Bold-50" x="291.845703"/>
     <use xlink:href="#DejaVuSans-Bold-6f" x="365.136719"/>
     <use xlink:href="#DejaVuSans-Bold-70" x="433.837891"/>
     <use xlink:href="#DejaVuSans-Bold-75" x="505.419922"/>
     <use xlink:href="#DejaVuSans-Bold-6c" x="576.611328"/>
     <use xlink:href="#DejaVuSans-Bold-61" x="610.888672"/>
     <use xlink:href="#DejaVuSans-Bold-72" x="678.369141"/>
     <use xlink:href="#DejaVuSans-Bold-69" x="727.685547"/>
     <use xlink:href="#DejaVuSans-Bold-74" x="761.962891"/>
     <use xlink:href="#DejaVuSans-Bold-79" x="809.765625"/>
     <use xlink:href="#DejaVuSans-Bold-20" x="874.951172"/>
     <use xlink:href="#DejaVuSans-Bold-44" x="909.765625"/>
     <use xlink:href="#DejaVuSans-Bold-69" x="992.773438"/>
     <use xlink:href="#DejaVuSans-Bold-73" x="1027.050781"/>
     <use xlink:href="#DejaVuSans-Bold-74" x="1086.572266"/>
     <use xlink:href="#DejaVuSans-Bold-72" x="1134.375"/>
     <use xlink:href="#DejaVuSans-Bold-69" x="1183.691406"/>
     <use xlink:href="#DejaVuSans-Bold-62" x="1217.96875"/>
     <use xlink:href="#DejaVuSans-Bold-75" x="1289.550781"/>
     <use xlink:href="#DejaVuSans-Bold-74" x="1360.742188"/>
     <use xlink:href="#DejaVuSans-Bold-69" x="1408.544922"/>
     <use xlink:href="#DejaVuSans-Bold-6f" x="1442.822266"/>
     <use xlink:href="#DejaVuSans-Bold-6e" x="1511.523438"/>
    </g>
    <!-- (Linear Scale) -->
    <g transform="translate(218.132436 33.624125) scale(0.14 -0.14)">
     <defs>
      <path id="DejaVuSans-Bold-28" d="M 2413 -844 
L 1484 -844 
Q 1006 -72 778 623 
Q 550 1319 550 2003 
Q 550 2688 779 3389 
Q 1009 4091 1484 4856 
L 2413 4856 
Q 2013 4116 1813 3408 
Q 1613 2700 1613 2009 
Q 1613 1319 1811 609 
Q 2009 -100 2413 -844 
z
" transform="scale(0.015625)"/>
      <path id="DejaVuSans-Bold-4c" d="M 588 4666 
L 1791 4666 
L 1791 909 
L 3903 909 
L 3903 0 
L 588 0 
L 588 4666 
z
" transform="scale(0.015625)"/>
      <path id="DejaVuSans-Bold-53" d="M 3834 4519 
L 3834 3531 
Q 3450 3703 3084 3790 
Q 2719 3878 2394 3878 
Q 1963 3878 1756 3759 
Q 1550 3641 1550 3391 
Q 1550 3203 1689 3098 
Q 1828 2994 2194 2919 
L 2706 2816 
Q 3484 2659 3812 2340 
Q 4141 2022 4141 1434 
Q 4141 663 3683 286 
Q 3225 -91 2284 -91 
Q 1841 -91 1394 -6 
Q 947 78 500 244 
L 500 1259 
Q 947 1022 1364 901 
Q 1781 781 2169 781 
Q 2563 781 2772 912 
Q 2981 1044 2981 1288 
Q 2981 1506 2839 1625 
Q 2697 1744 2272 1838 
L 1806 1941 
Q 1106 2091 782 2419 
Q 459 2747 459 3303 
Q 459 4000 909 4375 
Q 1359 4750 2203 4750 
Q 2588 4750 2994 4692 
Q 3400 4634 3834 4519 
z
" transform="scale(0.015625)"/>
      <path id="DejaVuSans-Bold-63" d="M 3366 3391 
L 3366 2478 
Q 3138 2634 2908 2709 
Q 2678 2784 2431 2784 
Q 1963 2784 1702 2511 
Q 1441 2238 1441 1747 
Q 1441 1256 1702 982 
Q 1963 709 2431 709 
Q 2694 709 2930 787 
Q 3166 866 3366 1019 
L 3366 103 
Q 3103 6 2833 -42 
Q 2563 -91 2291 -91 
Q 1344 -91 809 395 
Q 275 881 275 1747 
Q 275 2613 809 3098 
Q 1344 3584 2291 3584 
Q 2566 3584 2833 3536 
Q 3100 3488 3366 3391 
z
" transform="scale(0.015625)"/>
      <path id="DejaVuSans-Bold-29" d="M 513 -844 
Q 913 -100 1113 609 
Q 1313 1319 1313 2009 
Q 1313 2700 1113 3408 
Q 913 4116 513 4856 
L 1441 4856 
Q 1916 4091 2145 3389 
Q 2375 2688 2375 2003 
Q 2375 1319 2147 623 
Q 1919 -72 1441 -844 
L 513 -844 
z
" transform="scale(0.015625)"/>
     </defs>
     <use xlink:href="#DejaVuSans-Bold-28"/>
     <use xlink:href="#DejaVuSans-Bold-4c" x="45.703125"/>
     <use xlink:href="#DejaVuSans-Bold-69" x="109.423828"/>
     <use xlink:href="#DejaVuSans-Bold-6e" x="143.701172"/>
     <use xlink:href="#DejaVuSans-Bold-65" x="214.892578"/>
     <use xlink:href="#DejaVuSans-Bold-61" x="282.714844"/>
     <use xlink:href="#DejaVuSans-Bold-72" x="350.195312"/>
     <use xlink:href="#DejaVuSans-Bold-20" x="399.511719"/>
     <use xlink:href="#DejaVuSans-Bold-53" x="434.326172"/>
     <use xlink:href="#DejaVuSans-Bold-63" x="506.347656"/>
     <use xlink:href="#DejaVuSans-Bold-61" x="565.625"/>
     <use xlink:href="#DejaVuSans-Bold-6c" x="633.105469"/>
     <use xlink:href="#DejaVuSans-Bold-65" x="667.382812"/>
     <use xlink:href="#DejaVuSans-Bold-29" x="735.205078"/>
    </g>
   </g>
  </g>
  <g id="axes_2">
   <g id="patch_106">
    <path d="M 549.262316 306.016125 
L 989.41875 306.016125 
L 989.41875 39.624125 
L 549.262316 39.624125 
z
" style="fill: #ffffff"/>
   </g>
   <g id="matplotlib.axis_3">
    <g id="xtick_7">
     <g id="line2d_16">
      <path d="M 569.269426 306.016125 
L 569.269426 39.624125 
" clip-path="url(#p9103628b68)" style="fill: none; stroke: #b0b0b0; stroke-opacity: 0.3; stroke-width: 0.8; stroke-linecap: square"/>
     </g>
     <g id="line2d_17">
      <g>
       <use xlink:href="#m010237088e" x="569.269426" y="306.016125" style="stroke: #000000; stroke-width: 0.8"/>
      </g>
     </g>
     <g id="text_19">
      <!-- $\mathdefault{10^{0}}$ -->
      <g transform="translate(558.709426 322.13425) scale(0.12 -0.12)">
       <use xlink:href="#DejaVuSans-31" transform="translate(0 0.765625)"/>
       <use xlink:href="#DejaVuSans-30" transform="translate(63.623047 0.765625)"/>
       <use xlink:href="#DejaVuSans-30" transform="translate(128.203125 39.046875) scale(0.7)"/>
      </g>
     </g>
    </g>
    <g id="xtick_8">
     <g id="line2d_18">
      <path d="M 769.340533 306.016125 
L 769.340533 39.624125 
" clip-path="url(#p9103628b68)" style="fill: none; stroke: #b0b0b0; stroke-opacity: 0.3; stroke-width: 0.8; stroke-linecap: square"/>
     </g>
     <g id="line2d_19">
      <g>
       <use xlink:href="#m010237088e" x="769.340533" y="306.016125" style="stroke: #000000; stroke-width: 0.8"/>
      </g>
     </g>
     <g id="text_20">
      <!-- $\mathdefault{10^{1}}$ -->
      <g transform="translate(758.780533 322.13425) scale(0.12 -0.12)">
       <use xlink:href="#DejaVuSans-31" transform="translate(0 0.684375)"/>
       <use xlink:href="#DejaVuSans-30" transform="translate(63.623047 0.684375)"/>
       <use xlink:href="#DejaVuSans-31" transform="translate(128.203125 38.965625) scale(0.7)"/>
      </g>
     </g>
    </g>
    <g id="xtick_9">
     <g id="line2d_20">
      <path d="M 969.411639 306.016125 
L 969.411639 39.624125 
" clip-path="url(#p9103628b68)" style="fill: none; stroke: #b0b0b0; stroke-opacity: 0.3; stroke-width: 0.8; stroke-linecap: square"/>
     </g>
     <g id="line2d_21">
      <g>
       <use xlink:href="#m010237088e" x="969.411639" y="306.016125" style="stroke: #000000; stroke-width: 0.8"/>
      </g>
     </g>
     <g id="text_21">
      <!-- $\mathdefault{10^{2}}$ -->
      <g transform="translate(958.851639 322.13425) scale(0.12 -0.12)">
       <use xlink:href="#DejaVuSans-31" transform="translate(0 0.765625)"/>
       <use xlink:href="#DejaVuSans-30" transform="translate(63.623047 0.765625)"/>
       <use xlink:href="#DejaVuSans-32" transform="translate(128.203125 39.046875) scale(0.7)"/>
      </g>
     </g>
    </g>
    <g id="xtick_10">
     <g id="line2d_22">
      <defs>
       <path id="m39a30a25b8" d="M 0 0 
L 0 2 
" style="stroke: #000000; stroke-width: 0.6"/>
      </defs>
      <g>
       <use xlink:href="#m39a30a25b8" x="549.880533" y="306.016125" style="stroke: #000000; stroke-width: 0.6"/>
      </g>
     </g>
    </g>
    <g id="xtick_11">
     <g id="line2d_23">
      <g>
       <use xlink:href="#m39a30a25b8" x="560.114675" y="306.016125" style="stroke: #000000; stroke-width: 0.6"/>
      </g>
     </g>
    </g>
    <g id="xtick_12">
     <g id="line2d_24">
      <g>
       <use xlink:href="#m39a30a25b8" x="629.496831" y="306.016125" style="stroke: #000000; stroke-width: 0.6"/>
      </g>
     </g>
    </g>
    <g id="xtick_13">
     <g id="line2d_25">
      <g>
       <use xlink:href="#m39a30a25b8" x="664.727604" y="306.016125" style="stroke: #000000; stroke-width: 0.6"/>
      </g>
     </g>
    </g>
    <g id="xtick_14">
     <g id="line2d_26">
      <g>
       <use xlink:href="#m39a30a25b8" x="689.724235" y="306.016125" style="stroke: #000000; stroke-width: 0.6"/>
      </g>
     </g>
    </g>
    <g id="xtick_15">
     <g id="line2d_27">
      <g>
       <use xlink:href="#m39a30a25b8" x="709.113128" y="306.016125" style="stroke: #000000; stroke-width: 0.6"/>
      </g>
     </g>
    </g>
    <g id="xtick_16">
     <g id="line2d_28">
      <g>
       <use xlink:href="#m39a30a25b8" x="724.955008" y="306.016125" style="stroke: #000000; stroke-width: 0.6"/>
      </g>
     </g>
    </g>
    <g id="xtick_17">
     <g id="line2d_29">
      <g>
       <use xlink:href="#m39a30a25b8" x="738.349126" y="306.016125" style="stroke: #000000; stroke-width: 0.6"/>
      </g>
     </g>
    </g>
    <g id="xtick_18">
     <g id="line2d_30">
      <g>
       <use xlink:href="#m39a30a25b8" x="749.951639" y="306.016125" style="stroke: #000000; stroke-width: 0.6"/>
      </g>
     </g>
    </g>
    <g id="xtick_19">
     <g id="line2d_31">
      <g>
       <use xlink:href="#m39a30a25b8" x="760.185781" y="306.016125" style="stroke: #000000; stroke-width: 0.6"/>
      </g>
     </g>
    </g>
    <g id="xtick_20">
     <g id="line2d_32">
      <g>
       <use xlink:href="#m39a30a25b8" x="829.567937" y="306.016125" style="stroke: #000000; stroke-width: 0.6"/>
      </g>
     </g>
    </g>
    <g id="xtick_21">
     <g id="line2d_33">
      <g>
       <use xlink:href="#m39a30a25b8" x="864.79871" y="306.016125" style="stroke: #000000; stroke-width: 0.6"/>
      </g>
     </g>
    </g>
    <g id="xtick_22">
     <g id="line2d_34">
      <g>
       <use xlink:href="#m39a30a25b8" x="889.795341" y="306.016125" style="stroke: #000000; stroke-width: 0.6"/>
      </g>
     </g>
    </g>
    <g id="xtick_23">
     <g id="line2d_35">
      <g>
       <use xlink:href="#m39a30a25b8" x="909.184235" y="306.016125" style="stroke: #000000; stroke-width: 0.6"/>
      </g>
     </g>
    </g>
    <g id="xtick_24">
     <g id="line2d_36">
      <g>
       <use xlink:href="#m39a30a25b8" x="925.026115" y="306.016125" style="stroke: #000000; stroke-width: 0.6"/>
      </g>
     </g>
    </g>
    <g id="xtick_25">
     <g id="line2d_37">
      <g>
       <use xlink:href="#m39a30a25b8" x="938.420233" y="306.016125" style="stroke: #000000; stroke-width: 0.6"/>
      </g>
     </g>
    </g>
    <g id="xtick_26">
     <g id="line2d_38">
      <g>
       <use xlink:href="#m39a30a25b8" x="950.022746" y="306.016125" style="stroke: #000000; stroke-width: 0.6"/>
      </g>
     </g>
    </g>
    <g id="xtick_27">
     <g id="line2d_39">
      <g>
       <use xlink:href="#m39a30a25b8" x="960.256888" y="306.016125" style="stroke: #000000; stroke-width: 0.6"/>
      </g>
     </g>
    </g>
    <g id="text_22">
     <!-- Item Rank (log) -->
     <g transform="translate(723.05147 337.748) scale(0.12 -0.12)">
      <defs>
       <path id="DejaVuSans-28" d="M 1984 4856 
Q 1566 4138 1362 3434 
Q 1159 2731 1159 2009 
Q 1159 1288 1364 580 
Q 1569 -128 1984 -844 
L 1484 -844 
Q 1016 -109 783 600 
Q 550 1309 550 2009 
Q 550 2706 781 3412 
Q 1013 4119 1484 4856 
L 1984 4856 
z
" transform="scale(0.015625)"/>
       <path id="DejaVuSans-6c" d="M 603 4863 
L 1178 4863 
L 1178 0 
L 603 0 
L 603 4863 
z
" transform="scale(0.015625)"/>
       <path id="DejaVuSans-67" d="M 2906 1791 
Q 2906 2416 2648 2759 
Q 2391 3103 1925 3103 
Q 1463 3103 1205 2759 
Q 947 2416 947 1791 
Q 947 1169 1205 825 
Q 1463 481 1925 481 
Q 2391 481 2648 825 
Q 2906 1169 2906 1791 
z
M 3481 434 
Q 3481 -459 3084 -895 
Q 2688 -1331 1869 -1331 
Q 1566 -1331 1297 -1286 
Q 1028 -1241 775 -1147 
L 775 -588 
Q 1028 -725 1275 -790 
Q 1522 -856 1778 -856 
Q 2344 -856 2625 -561 
Q 2906 -266 2906 331 
L 2906 616 
Q 2728 306 2450 153 
Q 2172 0 1784 0 
Q 1141 0 747 490 
Q 353 981 353 1791 
Q 353 2603 747 3093 
Q 1141 3584 1784 3584 
Q 2172 3584 2450 3431 
Q 2728 3278 2906 2969 
L 2906 3500 
L 3481 3500 
L 3481 434 
z
" transform="scale(0.015625)"/>
       <path id="DejaVuSans-29" d="M 513 4856 
L 1013 4856 
Q 1481 4119 1714 3412 
Q 1947 2706 1947 2009 
Q 1947 1309 1714 600 
Q 1481 -109 1013 -844 
L 513 -844 
Q 928 -128 1133 580 
Q 1338 1288 1338 2009 
Q 1338 2731 1133 3434 
Q 928 4138 513 4856 
z
" transform="scale(0.015625)"/>
      </defs>
      <use xlink:href="#DejaVuSans-49"/>
      <use xlink:href="#DejaVuSans-74" x="29.492188"/>
      <use xlink:href="#DejaVuSans-65" x="68.701172"/>
      <use xlink:href="#DejaVuSans-6d" x="130.224609"/>
      <use xlink:href="#DejaVuSans-20" x="227.636719"/>
      <use xlink:href="#DejaVuSans-52" x="259.423828"/>
      <use xlink:href="#DejaVuSans-61" x="326.65625"/>
      <use xlink:href="#DejaVuSans-6e" x="387.935547"/>
      <use xlink:href="#DejaVuSans-6b" x="451.314453"/>
      <use xlink:href="#DejaVuSans-20" x="509.224609"/>
      <use xlink:href="#DejaVuSans-28" x="541.011719"/>
      <use xlink:href="#DejaVuSans-6c" x="580.025391"/>
      <use xlink:href="#DejaVuSans-6f" x="607.808594"/>
      <use xlink:href="#DejaVuSans-67" x="668.990234"/>
      <use xlink:href="#DejaVuSans-29" x="732.466797"/>
     </g>
    </g>
   </g>
   <g id="matplotlib.axis_4">
    <g id="ytick_9">
     <g id="line2d_40">
      <path d="M 549.262316 299.412995 
L 989.41875 299.412995 
" clip-path="url(#p9103628b68)" style="fill: none; stroke: #b0b0b0; stroke-opacity: 0.3; stroke-width: 0.8; stroke-linecap: square"/>
     </g>
     <g id="line2d_41">
      <g>
       <use xlink:href="#m1d6caa52c4" x="549.262316" y="299.412995" style="stroke: #000000; stroke-width: 0.8"/>
      </g>
     </g>
     <g id="text_23">
      <!-- $\mathdefault{10^{1}}$ -->
      <g transform="translate(521.142316 303.972058) scale(0.12 -0.12)">
       <use xlink:href="#DejaVuSans-31" transform="translate(0 0.684375)"/>
       <use xlink:href="#DejaVuSans-30" transform="translate(63.623047 0.684375)"/>
       <use xlink:href="#DejaVuSans-31" transform="translate(128.203125 38.965625) scale(0.7)"/>
      </g>
     </g>
    </g>
    <g id="ytick_10">
     <g id="line2d_42">
      <path d="M 549.262316 166.404043 
L 989.41875 166.404043 
" clip-path="url(#p9103628b68)" style="fill: none; stroke: #b0b0b0; stroke-opacity: 0.3; stroke-width: 0.8; stroke-linecap: square"/>
     </g>
     <g id="line2d_43">
      <g>
       <use xlink:href="#m1d6caa52c4" x="549.262316" y="166.404043" style="stroke: #000000; stroke-width: 0.8"/>
      </g>
     </g>
     <g id="text_24">
      <!-- $\mathdefault{10^{2}}$ -->
      <g transform="translate(521.142316 170.963106) scale(0.12 -0.12)">
       <use xlink:href="#DejaVuSans-31" transform="translate(0 0.765625)"/>
       <use xlink:href="#DejaVuSans-30" transform="translate(63.623047 0.765625)"/>
       <use xlink:href="#DejaVuSans-32" transform="translate(128.203125 39.046875) scale(0.7)"/>
      </g>
     </g>
    </g>
    <g id="ytick_11">
     <g id="line2d_44">
      <defs>
       <path id="m3f1a83dc35" d="M 0 0 
L -2 0 
" style="stroke: #000000; stroke-width: 0.6"/>
      </defs>
      <g>
       <use xlink:href="#m3f1a83dc35" x="549.262316" y="305.499151" style="stroke: #000000; stroke-width: 0.6"/>
      </g>
     </g>
    </g>
    <g id="ytick_12">
     <g id="line2d_45">
      <g>
       <use xlink:href="#m3f1a83dc35" x="549.262316" y="259.373311" style="stroke: #000000; stroke-width: 0.6"/>
      </g>
     </g>
    </g>
    <g id="ytick_13">
     <g id="line2d_46">
      <g>
       <use xlink:href="#m3f1a83dc35" x="549.262316" y="235.951597" style="stroke: #000000; stroke-width: 0.6"/>
      </g>
     </g>
    </g>
    <g id="ytick_14">
     <g id="line2d_47">
      <g>
       <use xlink:href="#m3f1a83dc35" x="549.262316" y="219.333627" style="stroke: #000000; stroke-width: 0.6"/>
      </g>
     </g>
    </g>
    <g id="ytick_15">
     <g id="line2d_48">
      <g>
       <use xlink:href="#m3f1a83dc35" x="549.262316" y="206.443728" style="stroke: #000000; stroke-width: 0.6"/>
      </g>
     </g>
    </g>
    <g id="ytick_16">
     <g id="line2d_49">
      <g>
       <use xlink:href="#m3f1a83dc35" x="549.262316" y="195.911913" style="stroke: #000000; stroke-width: 0.6"/>
      </g>
     </g>
    </g>
    <g id="ytick_17">
     <g id="line2d_50">
      <g>
       <use xlink:href="#m3f1a83dc35" x="549.262316" y="187.007391" style="stroke: #000000; stroke-width: 0.6"/>
      </g>
     </g>
    </g>
    <g id="ytick_18">
     <g id="line2d_51">
      <g>
       <use xlink:href="#m3f1a83dc35" x="549.262316" y="179.293943" style="stroke: #000000; stroke-width: 0.6"/>
      </g>
     </g>
    </g>
    <g id="ytick_19">
     <g id="line2d_52">
      <g>
       <use xlink:href="#m3f1a83dc35" x="549.262316" y="172.490199" style="stroke: #000000; stroke-width: 0.6"/>
      </g>
     </g>
    </g>
    <g id="ytick_20">
     <g id="line2d_53">
      <g>
       <use xlink:href="#m3f1a83dc35" x="549.262316" y="126.364359" style="stroke: #000000; stroke-width: 0.6"/>
      </g>
     </g>
    </g>
    <g id="ytick_21">
     <g id="line2d_54">
      <g>
       <use xlink:href="#m3f1a83dc35" x="549.262316" y="102.942645" style="stroke: #000000; stroke-width: 0.6"/>
      </g>
     </g>
    </g>
    <g id="ytick_22">
     <g id="line2d_55">
      <g>
       <use xlink:href="#m3f1a83dc35" x="549.262316" y="86.324675" style="stroke: #000000; stroke-width: 0.6"/>
      </g>
     </g>
    </g>
    <g id="ytick_23">
     <g id="line2d_56">
      <g>
       <use xlink:href="#m3f1a83dc35" x="549.262316" y="73.434776" style="stroke: #000000; stroke-width: 0.6"/>
      </g>
     </g>
    </g>
    <g id="ytick_24">
     <g id="line2d_57">
      <g>
       <use xlink:href="#m3f1a83dc35" x="549.262316" y="62.902961" style="stroke: #000000; stroke-width: 0.6"/>
      </g>
     </g>
    </g>
    <g id="ytick_25">
     <g id="line2d_58">
      <g>
       <use xlink:href="#m3f1a83dc35" x="549.262316" y="53.998439" style="stroke: #000000; stroke-width: 0.6"/>
      </g>
     </g>
    </g>
    <g id="ytick_26">
     <g id="line2d_59">
      <g>
       <use xlink:href="#m3f1a83dc35" x="549.262316" y="46.284991" style="stroke: #000000; stroke-width: 0.6"/>
      </g>
     </g>
    </g>
    <g id="text_25">
     <!-- Number of Interactions (log) -->
     <g transform="translate(514.646691 257.933875) rotate(-90) scale(0.12 -0.12)">
      <use xlink:href="#DejaVuSans-4e"/>
      <use xlink:href="#DejaVuSans-75" x="74.804688"/>
      <use xlink:href="#DejaVuSans-6d" x="138.183594"/>
      <use xlink:href="#DejaVuSans-62" x="235.595703"/>
      <use xlink:href="#DejaVuSans-65" x="299.072266"/>
      <use xlink:href="#DejaVuSans-72" x="360.595703"/>
      <use xlink:href="#DejaVuSans-20" x="401.708984"/>
      <use xlink:href="#DejaVuSans-6f" x="433.496094"/>
      <use xlink:href="#DejaVuSans-66" x="494.677734"/>
      <use xlink:href="#DejaVuSans-20" x="529.882812"/>
      <use xlink:href="#DejaVuSans-49" x="561.669922"/>
      <use xlink:href="#DejaVuSans-6e" x="591.162109"/>
      <use xlink:href="#DejaVuSans-74" x="654.541016"/>
      <use xlink:href="#DejaVuSans-65" x="693.75"/>
      <use xlink:href="#DejaVuSans-72" x="755.273438"/>
      <use xlink:href="#DejaVuSans-61" x="796.386719"/>
      <use xlink:href="#DejaVuSans-63" x="857.666016"/>
      <use xlink:href="#DejaVuSans-74" x="912.646484"/>
      <use xlink:href="#DejaVuSans-69" x="951.855469"/>
      <use xlink:href="#DejaVuSans-6f" x="979.638672"/>
      <use xlink:href="#DejaVuSans-6e" x="1040.820312"/>
      <use xlink:href="#DejaVuSans-73" x="1104.199219"/>
      <use xlink:href="#DejaVuSans-20" x="1156.298828"/>
      <use xlink:href="#DejaVuSans-28" x="1188.085938"/>
      <use xlink:href="#DejaVuSans-6c" x="1227.099609"/>
      <use xlink:href="#DejaVuSans-6f" x="1254.882812"/>
      <use xlink:href="#DejaVuSans-67" x="1316.064453"/>
      <use xlink:href="#DejaVuSans-29" x="1379.541016"/>
     </g>
    </g>
   </g>
   <g id="line2d_60">
    <defs>
     <path id="m589f6cb27d" d="M 0 2 
C 0.530406 2 1.03916 1.789267 1.414214 1.414214 
C 1.789267 1.03916 2 0.530406 2 0 
C 2 -0.530406 1.789267 -1.03916 1.414214 -1.414214 
C 1.03916 -1.789267 0.530406 -2 0 -2 
C -0.530406 -2 -1.03916 -1.789267 -1.414214 -1.414214 
C -1.789267 -1.03916 -2 -0.530406 -2 0 
C -2 0.530406 -1.789267 1.03916 -1.414214 1.414214 
C -1.03916 1.789267 -0.530406 2 0 2 
z
" style="stroke: #3498db; stroke-opacity: 0.5"/>
    </defs>
    <g clip-path="url(#p9103628b68)">
     <use xlink:href="#m589f6cb27d" x="569.269426" y="51.732852" style="fill: #3498db; fill-opacity: 0.5; stroke: #3498db; stroke-opacity: 0.5"/>
     <use xlink:href="#m589f6cb27d" x="629.496831" y="87.344513" style="fill: #3498db; fill-opacity: 0.5; stroke: #3498db; stroke-opacity: 0.5"/>
     <use xlink:href="#m589f6cb27d" x="664.727604" y="108.1793" style="fill: #3498db; fill-opacity: 0.5; stroke: #3498db; stroke-opacity: 0.5"/>
     <use xlink:href="#m589f6cb27d" x="689.724235" y="124.098773" style="fill: #3498db; fill-opacity: 0.5; stroke: #3498db; stroke-opacity: 0.5"/>
     <use xlink:href="#m589f6cb27d" x="709.113128" y="128.422365" style="fill: #3498db; fill-opacity: 0.5; stroke: #3498db; stroke-opacity: 0.5"/>
     <use xlink:href="#m589f6cb27d" x="724.955008" y="136.780759" style="fill: #3498db; fill-opacity: 0.5; stroke: #3498db; stroke-opacity: 0.5"/>
     <use xlink:href="#m589f6cb27d" x="738.349126" y="151.248558" style="fill: #3498db; fill-opacity: 0.5; stroke: #3498db; stroke-opacity: 0.5"/>
     <use xlink:href="#m589f6cb27d" x="749.951639" y="153.978123" style="fill: #3498db; fill-opacity: 0.5; stroke: #3498db; stroke-opacity: 0.5"/>
     <use xlink:href="#m589f6cb27d" x="760.185781" y="155.392848" style="fill: #3498db; fill-opacity: 0.5; stroke: #3498db; stroke-opacity: 0.5"/>
     <use xlink:href="#m589f6cb27d" x="769.340533" y="159.857606" style="fill: #3498db; fill-opacity: 0.5; stroke: #3498db; stroke-opacity: 0.5"/>
     <use xlink:href="#m589f6cb27d" x="777.622013" y="171.851905" style="fill: #3498db; fill-opacity: 0.5; stroke: #3498db; stroke-opacity: 0.5"/>
     <use xlink:href="#m589f6cb27d" x="785.182412" y="173.788345" style="fill: #3498db; fill-opacity: 0.5; stroke: #3498db; stroke-opacity: 0.5"/>
     <use xlink:href="#m589f6cb27d" x="792.137305" y="178.576355" style="fill: #3498db; fill-opacity: 0.5; stroke: #3498db; stroke-opacity: 0.5"/>
     <use xlink:href="#m589f6cb27d" x="798.576531" y="180.756427" style="fill: #3498db; fill-opacity: 0.5; stroke: #3498db; stroke-opacity: 0.5"/>
     <use xlink:href="#m589f6cb27d" x="804.571306" y="181.501793" style="fill: #3498db; fill-opacity: 0.5; stroke: #3498db; stroke-opacity: 0.5"/>
     <use xlink:href="#m589f6cb27d" x="810.179044" y="184.583327" style="fill: #3498db; fill-opacity: 0.5; stroke: #3498db; stroke-opacity: 0.5"/>
     <use xlink:href="#m589f6cb27d" x="815.446704" y="189.537652" style="fill: #3498db; fill-opacity: 0.5; stroke: #3498db; stroke-opacity: 0.5"/>
     <use xlink:href="#m589f6cb27d" x="820.413185" y="189.537652" style="fill: #3498db; fill-opacity: 0.5; stroke: #3498db; stroke-opacity: 0.5"/>
     <use xlink:href="#m589f6cb27d" x="825.111074" y="189.537652" style="fill: #3498db; fill-opacity: 0.5; stroke: #3498db; stroke-opacity: 0.5"/>
     <use xlink:href="#m589f6cb27d" x="829.567937" y="191.288242" style="fill: #3498db; fill-opacity: 0.5; stroke: #3498db; stroke-opacity: 0.5"/>
     <use xlink:href="#m589f6cb27d" x="833.807304" y="193.093547" style="fill: #3498db; fill-opacity: 0.5; stroke: #3498db; stroke-opacity: 0.5"/>
     <use xlink:href="#m589f6cb27d" x="837.849417" y="193.093547" style="fill: #3498db; fill-opacity: 0.5; stroke: #3498db; stroke-opacity: 0.5"/>
     <use xlink:href="#m589f6cb27d" x="841.711821" y="200.93813" style="fill: #3498db; fill-opacity: 0.5; stroke: #3498db; stroke-opacity: 0.5"/>
     <use xlink:href="#m589f6cb27d" x="845.409817" y="203.077821" style="fill: #3498db; fill-opacity: 0.5; stroke: #3498db; stroke-opacity: 0.5"/>
     <use xlink:href="#m589f6cb27d" x="848.956831" y="203.077821" style="fill: #3498db; fill-opacity: 0.5; stroke: #3498db; stroke-opacity: 0.5"/>
     <use xlink:href="#m589f6cb27d" x="852.36471" y="204.178141" style="fill: #3498db; fill-opacity: 0.5; stroke: #3498db; stroke-opacity: 0.5"/>
     <use xlink:href="#m589f6cb27d" x="855.643958" y="206.443728" style="fill: #3498db; fill-opacity: 0.5; stroke: #3498db; stroke-opacity: 0.5"/>
     <use xlink:href="#m589f6cb27d" x="858.803935" y="212.529884" style="fill: #3498db; fill-opacity: 0.5; stroke: #3498db; stroke-opacity: 0.5"/>
     <use xlink:href="#m589f6cb27d" x="861.853012" y="213.828029" style="fill: #3498db; fill-opacity: 0.5; stroke: #3498db; stroke-opacity: 0.5"/>
     <use xlink:href="#m589f6cb27d" x="864.79871" y="215.15602" style="fill: #3498db; fill-opacity: 0.5; stroke: #3498db; stroke-opacity: 0.5"/>
     <use xlink:href="#m589f6cb27d" x="867.647811" y="215.15602" style="fill: #3498db; fill-opacity: 0.5; stroke: #3498db; stroke-opacity: 0.5"/>
     <use xlink:href="#m589f6cb27d" x="870.406448" y="216.51526" style="fill: #3498db; fill-opacity: 0.5; stroke: #3498db; stroke-opacity: 0.5"/>
     <use xlink:href="#m589f6cb27d" x="873.080191" y="219.333627" style="fill: #3498db; fill-opacity: 0.5; stroke: #3498db; stroke-opacity: 0.5"/>
     <use xlink:href="#m589f6cb27d" x="875.674108" y="219.333627" style="fill: #3498db; fill-opacity: 0.5; stroke: #3498db; stroke-opacity: 0.5"/>
     <use xlink:href="#m589f6cb27d" x="878.192828" y="219.333627" style="fill: #3498db; fill-opacity: 0.5; stroke: #3498db; stroke-opacity: 0.5"/>
     <use xlink:href="#m589f6cb27d" x="880.64059" y="222.296587" style="fill: #3498db; fill-opacity: 0.5; stroke: #3498db; stroke-opacity: 0.5"/>
     <use xlink:href="#m589f6cb27d" x="883.02128" y="225.419783" style="fill: #3498db; fill-opacity: 0.5; stroke: #3498db; stroke-opacity: 0.5"/>
     <use xlink:href="#m589f6cb27d" x="885.338479" y="225.419783" style="fill: #3498db; fill-opacity: 0.5; stroke: #3498db; stroke-opacity: 0.5"/>
     <use xlink:href="#m589f6cb27d" x="887.595483" y="227.047075" style="fill: #3498db; fill-opacity: 0.5; stroke: #3498db; stroke-opacity: 0.5"/>
     <use xlink:href="#m589f6cb27d" x="889.795341" y="227.047075" style="fill: #3498db; fill-opacity: 0.5; stroke: #3498db; stroke-opacity: 0.5"/>
     <use xlink:href="#m589f6cb27d" x="891.940877" y="227.047075" style="fill: #3498db; fill-opacity: 0.5; stroke: #3498db; stroke-opacity: 0.5"/>
     <use xlink:href="#m589f6cb27d" x="894.034708" y="228.721542" style="fill: #3498db; fill-opacity: 0.5; stroke: #3498db; stroke-opacity: 0.5"/>
     <use xlink:href="#m589f6cb27d" x="896.079268" y="228.721542" style="fill: #3498db; fill-opacity: 0.5; stroke: #3498db; stroke-opacity: 0.5"/>
     <use xlink:href="#m589f6cb27d" x="898.076822" y="232.223526" style="fill: #3498db; fill-opacity: 0.5; stroke: #3498db; stroke-opacity: 0.5"/>
     <use xlink:href="#m589f6cb27d" x="900.029483" y="232.223526" style="fill: #3498db; fill-opacity: 0.5; stroke: #3498db; stroke-opacity: 0.5"/>
     <use xlink:href="#m589f6cb27d" x="901.939226" y="232.223526" style="fill: #3498db; fill-opacity: 0.5; stroke: #3498db; stroke-opacity: 0.5"/>
     <use xlink:href="#m589f6cb27d" x="903.807895" y="234.057491" style="fill: #3498db; fill-opacity: 0.5; stroke: #3498db; stroke-opacity: 0.5"/>
     <use xlink:href="#m589f6cb27d" x="905.637221" y="234.057491" style="fill: #3498db; fill-opacity: 0.5; stroke: #3498db; stroke-opacity: 0.5"/>
     <use xlink:href="#m589f6cb27d" x="907.428826" y="234.057491" style="fill: #3498db; fill-opacity: 0.5; stroke: #3498db; stroke-opacity: 0.5"/>
     <use xlink:href="#m589f6cb27d" x="909.184235" y="235.951597" style="fill: #3498db; fill-opacity: 0.5; stroke: #3498db; stroke-opacity: 0.5"/>
     <use xlink:href="#m589f6cb27d" x="910.904881" y="235.951597" style="fill: #3498db; fill-opacity: 0.5; stroke: #3498db; stroke-opacity: 0.5"/>
     <use xlink:href="#m589f6cb27d" x="912.592114" y="235.951597" style="fill: #3498db; fill-opacity: 0.5; stroke: #3498db; stroke-opacity: 0.5"/>
     <use xlink:href="#m589f6cb27d" x="914.247207" y="235.951597" style="fill: #3498db; fill-opacity: 0.5; stroke: #3498db; stroke-opacity: 0.5"/>
     <use xlink:href="#m589f6cb27d" x="915.871363" y="235.951597" style="fill: #3498db; fill-opacity: 0.5; stroke: #3498db; stroke-opacity: 0.5"/>
     <use xlink:href="#m589f6cb27d" x="917.465715" y="235.951597" style="fill: #3498db; fill-opacity: 0.5; stroke: #3498db; stroke-opacity: 0.5"/>
     <use xlink:href="#m589f6cb27d" x="919.031339" y="237.909922" style="fill: #3498db; fill-opacity: 0.5; stroke: #3498db; stroke-opacity: 0.5"/>
     <use xlink:href="#m589f6cb27d" x="920.569252" y="237.909922" style="fill: #3498db; fill-opacity: 0.5; stroke: #3498db; stroke-opacity: 0.5"/>
     <use xlink:href="#m589f6cb27d" x="922.080416" y="237.909922" style="fill: #3498db; fill-opacity: 0.5; stroke: #3498db; stroke-opacity: 0.5"/>
     <use xlink:href="#m589f6cb27d" x="923.565748" y="242.037753" style="fill: #3498db; fill-opacity: 0.5; stroke: #3498db; stroke-opacity: 0.5"/>
     <use xlink:href="#m589f6cb27d" x="925.026115" y="242.037753" style="fill: #3498db; fill-opacity: 0.5; stroke: #3498db; stroke-opacity: 0.5"/>
     <use xlink:href="#m589f6cb27d" x="926.462342" y="242.037753" style="fill: #3498db; fill-opacity: 0.5; stroke: #3498db; stroke-opacity: 0.5"/>
     <use xlink:href="#m589f6cb27d" x="927.875215" y="242.037753" style="fill: #3498db; fill-opacity: 0.5; stroke: #3498db; stroke-opacity: 0.5"/>
     <use xlink:href="#m589f6cb27d" x="929.265481" y="242.037753" style="fill: #3498db; fill-opacity: 0.5; stroke: #3498db; stroke-opacity: 0.5"/>
     <use xlink:href="#m589f6cb27d" x="930.633852" y="244.217825" style="fill: #3498db; fill-opacity: 0.5; stroke: #3498db; stroke-opacity: 0.5"/>
     <use xlink:href="#m589f6cb27d" x="931.981008" y="248.841497" style="fill: #3498db; fill-opacity: 0.5; stroke: #3498db; stroke-opacity: 0.5"/>
     <use xlink:href="#m589f6cb27d" x="933.307595" y="248.841497" style="fill: #3498db; fill-opacity: 0.5; stroke: #3498db; stroke-opacity: 0.5"/>
     <use xlink:href="#m589f6cb27d" x="934.614233" y="251.299955" style="fill: #3498db; fill-opacity: 0.5; stroke: #3498db; stroke-opacity: 0.5"/>
     <use xlink:href="#m589f6cb27d" x="935.901512" y="251.299955" style="fill: #3498db; fill-opacity: 0.5; stroke: #3498db; stroke-opacity: 0.5"/>
     <use xlink:href="#m589f6cb27d" x="937.169999" y="253.867714" style="fill: #3498db; fill-opacity: 0.5; stroke: #3498db; stroke-opacity: 0.5"/>
     <use xlink:href="#m589f6cb27d" x="938.420233" y="253.867714" style="fill: #3498db; fill-opacity: 0.5; stroke: #3498db; stroke-opacity: 0.5"/>
     <use xlink:href="#m589f6cb27d" x="939.652733" y="253.867714" style="fill: #3498db; fill-opacity: 0.5; stroke: #3498db; stroke-opacity: 0.5"/>
     <use xlink:href="#m589f6cb27d" x="940.867994" y="253.867714" style="fill: #3498db; fill-opacity: 0.5; stroke: #3498db; stroke-opacity: 0.5"/>
     <use xlink:href="#m589f6cb27d" x="942.066493" y="256.554945" style="fill: #3498db; fill-opacity: 0.5; stroke: #3498db; stroke-opacity: 0.5"/>
     <use xlink:href="#m589f6cb27d" x="943.248685" y="256.554945" style="fill: #3498db; fill-opacity: 0.5; stroke: #3498db; stroke-opacity: 0.5"/>
     <use xlink:href="#m589f6cb27d" x="944.415008" y="256.554945" style="fill: #3498db; fill-opacity: 0.5; stroke: #3498db; stroke-opacity: 0.5"/>
     <use xlink:href="#m589f6cb27d" x="945.565883" y="256.554945" style="fill: #3498db; fill-opacity: 0.5; stroke: #3498db; stroke-opacity: 0.5"/>
     <use xlink:href="#m589f6cb27d" x="946.701713" y="256.554945" style="fill: #3498db; fill-opacity: 0.5; stroke: #3498db; stroke-opacity: 0.5"/>
     <use xlink:href="#m589f6cb27d" x="947.822887" y="259.373311" style="fill: #3498db; fill-opacity: 0.5; stroke: #3498db; stroke-opacity: 0.5"/>
     <use xlink:href="#m589f6cb27d" x="948.929778" y="259.373311" style="fill: #3498db; fill-opacity: 0.5; stroke: #3498db; stroke-opacity: 0.5"/>
     <use xlink:href="#m589f6cb27d" x="950.022746" y="265.459467" style="fill: #3498db; fill-opacity: 0.5; stroke: #3498db; stroke-opacity: 0.5"/>
     <use xlink:href="#m589f6cb27d" x="951.102136" y="265.459467" style="fill: #3498db; fill-opacity: 0.5; stroke: #3498db; stroke-opacity: 0.5"/>
     <use xlink:href="#m589f6cb27d" x="952.168281" y="265.459467" style="fill: #3498db; fill-opacity: 0.5; stroke: #3498db; stroke-opacity: 0.5"/>
     <use xlink:href="#m589f6cb27d" x="953.221504" y="268.761226" style="fill: #3498db; fill-opacity: 0.5; stroke: #3498db; stroke-opacity: 0.5"/>
     <use xlink:href="#m589f6cb27d" x="954.262112" y="268.761226" style="fill: #3498db; fill-opacity: 0.5; stroke: #3498db; stroke-opacity: 0.5"/>
     <use xlink:href="#m589f6cb27d" x="955.290406" y="268.761226" style="fill: #3498db; fill-opacity: 0.5; stroke: #3498db; stroke-opacity: 0.5"/>
     <use xlink:href="#m589f6cb27d" x="956.306672" y="268.761226" style="fill: #3498db; fill-opacity: 0.5; stroke: #3498db; stroke-opacity: 0.5"/>
     <use xlink:href="#m589f6cb27d" x="957.311189" y="268.761226" style="fill: #3498db; fill-opacity: 0.5; stroke: #3498db; stroke-opacity: 0.5"/>
     <use xlink:href="#m589f6cb27d" x="958.304226" y="272.26321" style="fill: #3498db; fill-opacity: 0.5; stroke: #3498db; stroke-opacity: 0.5"/>
     <use xlink:href="#m589f6cb27d" x="959.286042" y="272.26321" style="fill: #3498db; fill-opacity: 0.5; stroke: #3498db; stroke-opacity: 0.5"/>
     <use xlink:href="#m589f6cb27d" x="960.256888" y="272.26321" style="fill: #3498db; fill-opacity: 0.5; stroke: #3498db; stroke-opacity: 0.5"/>
     <use xlink:href="#m589f6cb27d" x="961.217005" y="272.26321" style="fill: #3498db; fill-opacity: 0.5; stroke: #3498db; stroke-opacity: 0.5"/>
     <use xlink:href="#m589f6cb27d" x="962.16663" y="272.26321" style="fill: #3498db; fill-opacity: 0.5; stroke: #3498db; stroke-opacity: 0.5"/>
     <use xlink:href="#m589f6cb27d" x="963.105988" y="275.991282" style="fill: #3498db; fill-opacity: 0.5; stroke: #3498db; stroke-opacity: 0.5"/>
     <use xlink:href="#m589f6cb27d" x="964.035299" y="279.976659" style="fill: #3498db; fill-opacity: 0.5; stroke: #3498db; stroke-opacity: 0.5"/>
     <use xlink:href="#m589f6cb27d" x="964.954776" y="279.976659" style="fill: #3498db; fill-opacity: 0.5; stroke: #3498db; stroke-opacity: 0.5"/>
     <use xlink:href="#m589f6cb27d" x="965.864625" y="284.25751" style="fill: #3498db; fill-opacity: 0.5; stroke: #3498db; stroke-opacity: 0.5"/>
     <use xlink:href="#m589f6cb27d" x="966.765046" y="284.25751" style="fill: #3498db; fill-opacity: 0.5; stroke: #3498db; stroke-opacity: 0.5"/>
     <use xlink:href="#m589f6cb27d" x="967.656231" y="288.881181" style="fill: #3498db; fill-opacity: 0.5; stroke: #3498db; stroke-opacity: 0.5"/>
     <use xlink:href="#m589f6cb27d" x="968.538368" y="288.881181" style="fill: #3498db; fill-opacity: 0.5; stroke: #3498db; stroke-opacity: 0.5"/>
     <use xlink:href="#m589f6cb27d" x="969.411639" y="293.907398" style="fill: #3498db; fill-opacity: 0.5; stroke: #3498db; stroke-opacity: 0.5"/>
    </g>
   </g>
   <g id="patch_107">
    <path d="M 549.262316 306.016125 
L 549.262316 39.624125 
" style="fill: none; stroke: #000000; stroke-width: 0.8; stroke-linejoin: miter; stroke-linecap: square"/>
   </g>
   <g id="patch_108">
    <path d="M 549.262316 306.016125 
L 989.41875 306.016125 
" style="fill: none; stroke: #000000; stroke-width: 0.8; stroke-linejoin: miter; stroke-linecap: square"/>
   </g>
   <g id="text_26">
    <!-- Long-Tail Distribution -->
    <g transform="translate(685.265064 17.837812) scale(0.14 -0.14)">
     <defs>
      <path id="DejaVuSans-Bold-67" d="M 2919 594 
Q 2688 288 2409 144 
Q 2131 0 1766 0 
Q 1125 0 706 504 
Q 288 1009 288 1791 
Q 288 2575 706 3076 
Q 1125 3578 1766 3578 
Q 2131 3578 2409 3434 
Q 2688 3291 2919 2981 
L 2919 3500 
L 4044 3500 
L 4044 353 
Q 4044 -491 3511 -936 
Q 2978 -1381 1966 -1381 
Q 1638 -1381 1331 -1331 
Q 1025 -1281 716 -1178 
L 716 -306 
Q 1009 -475 1290 -558 
Q 1572 -641 1856 -641 
Q 2406 -641 2662 -400 
Q 2919 -159 2919 353 
L 2919 594 
z
M 2181 2772 
Q 1834 2772 1640 2515 
Q 1447 2259 1447 1791 
Q 1447 1309 1634 1061 
Q 1822 813 2181 813 
Q 2531 813 2725 1069 
Q 2919 1325 2919 1791 
Q 2919 2259 2725 2515 
Q 2531 2772 2181 2772 
z
" transform="scale(0.015625)"/>
      <path id="DejaVuSans-Bold-2d" d="M 347 2297 
L 2309 2297 
L 2309 1388 
L 347 1388 
L 347 2297 
z
" transform="scale(0.015625)"/>
      <path id="DejaVuSans-Bold-54" d="M 31 4666 
L 4331 4666 
L 4331 3756 
L 2784 3756 
L 2784 0 
L 1581 0 
L 1581 3756 
L 31 3756 
L 31 4666 
z
" transform="scale(0.015625)"/>
     </defs>
     <use xlink:href="#DejaVuSans-Bold-4c"/>
     <use xlink:href="#DejaVuSans-Bold-6f" x="63.720703"/>
     <use xlink:href="#DejaVuSans-Bold-6e" x="132.421875"/>
     <use xlink:href="#DejaVuSans-Bold-67" x="203.613281"/>
     <use xlink:href="#DejaVuSans-Bold-2d" x="275.195312"/>
     <use xlink:href="#DejaVuSans-Bold-54" x="301.949219"/>
     <use xlink:href="#DejaVuSans-Bold-61" x="357.287109"/>
     <use xlink:href="#DejaVuSans-Bold-69" x="424.767578"/>
     <use xlink:href="#DejaVuSans-Bold-6c" x="459.044922"/>
     <use xlink:href="#DejaVuSans-Bold-20" x="493.322266"/>
     <use xlink:href="#DejaVuSans-Bold-44" x="528.136719"/>
     <use xlink:href="#DejaVuSans-Bold-69" x="611.144531"/>
     <use xlink:href="#DejaVuSans-Bold-73" x="645.421875"/>
     <use xlink:href="#DejaVuSans-Bold-74" x="704.943359"/>
     <use xlink:href="#DejaVuSans-Bold-72" x="752.746094"/>
     <use xlink:href="#DejaVuSans-Bold-69" x="802.0625"/>
     <use xlink:href="#DejaVuSans-Bold-62" x="836.339844"/>
     <use xlink:href="#DejaVuSans-Bold-75" x="907.921875"/>
     <use xlink:href="#DejaVuSans-Bold-74" x="979.113281"/>
     <use xlink:href="#DejaVuSans-Bold-69" x="1026.916016"/>
     <use xlink:href="#DejaVuSans-Bold-6f" x="1061.193359"/>
     <use xlink:href="#DejaVuSans-Bold-6e" x="1129.894531"/>
    </g>
    <!-- (Log-Log Scale) -->
    <g transform="translate(707.977877 33.624125) scale(0.14 -0.14)">
     <use xlink:href="#DejaVuSans-Bold-28"/>
     <use xlink:href="#DejaVuSans-Bold-4c" x="45.703125"/>
     <use xlink:href="#DejaVuSans-Bold-6f" x="109.423828"/>
     <use xlink:href="#DejaVuSans-Bold-67" x="178.125"/>
     <use xlink:href="#DejaVuSans-Bold-2d" x="249.707031"/>
     <use xlink:href="#DejaVuSans-Bold-4c" x="291.210938"/>
     <use xlink:href="#DejaVuSans-Bold-6f" x="354.931641"/>
     <use xlink:href="#DejaVuSans-Bold-67" x="423.632812"/>
     <use xlink:href="#DejaVuSans-Bold-20" x="495.214844"/>
     <use xlink:href="#DejaVuSans-Bold-53" x="530.029297"/>
     <use xlink:href="#DejaVuSans-Bold-63" x="602.050781"/>
     <use xlink:href="#DejaVuSans-Bold-61" x="661.328125"/>
     <use xlink:href="#DejaVuSans-Bold-6c" x="728.808594"/>
     <use xlink:href="#DejaVuSans-Bold-65" x="763.085938"/>
     <use xlink:href="#DejaVuSans-Bold-29" x="830.908203"/>
    </g>
   </g>
  </g>
 </g>
 <defs>
  <clipPath id="p6fff24e22b">
   <rect x="52.71875" y="39.624125" width="440.156434" height="266.392"/>
  </clipPath>
  <clipPath id="p9103628b68">
   <rect x="549.262316" y="39.624125" width="440.156434" height="266.392"/>
  </clipPath>
 </defs>
</svg>
