<?xml version="1.0" encoding="utf-8" standalone="no"?>
<!DOCTYPE svg PUBLIC "-//W3C//DTD SVG 1.1//EN"
  "http://www.w3.org/Graphics/SVG/1.1/DTD/svg11.dtd">
<svg xmlns:xlink="http://www.w3.org/1999/xlink" width="684pt" height="402.48pt" viewBox="0 0 684 402.48" xmlns="http://www.w3.org/2000/svg" version="1.1">
 <metadata>
  <rdf:RDF xmlns:dc="http://purl.org/dc/elements/1.1/" xmlns:cc="http://creativecommons.org/ns#" xmlns:rdf="http://www.w3.org/1999/02/22-rdf-syntax-ns#">
   <cc:Work>
    <dc:type rdf:resource="http://purl.org/dc/dcmitype/StillImage"/>
    <dc:date>2025-12-31T19:26:44.610284</dc:date>
    <dc:format>image/svg+xml</dc:format>
    <dc:creator>
     <cc:Agent>
      <dc:title>Matplotlib v3.9.1, https://matplotlib.org/</dc:title>
     </cc:Agent>
    </dc:creator>
   </cc:Work>
  </rdf:RDF>
 </metadata>
 <defs>
  <style type="text/css">*{stroke-linejoin: round; stroke-linecap: butt}</style>
 </defs>
 <g id="figure_1">
  <g id="patch_1">
   <path d="M 0 402.48 
L 684 402.48 
L 684 -0 
L 0 -0 
z
" style="fill: #ffffff"/>
  </g>
  <g id="axes_1">
   <g id="patch_2">
    <path d="M 74.16 174.0744 
C 79.4874 174.0744 84.59732 172.847683 88.364361 170.66442 
C 92.131402 168.481157 94.248 165.519601 94.248 162.432 
C 94.248 159.344399 92.131402 156.382843 88.364361 154.19958 
C 84.59732 152.016317 79.4874 150.7896 74.16 150.7896 
C 68.8326 150.7896 63.72268 152.016317 59.955639 154.19958 
C 56.188598 156.382843 54.072 159.344399 54.072 162.432 
C 54.072 165.519601 56.188598 168.481157 59.955639 170.66442 
C 63.72268 172.847683 68.8326 174.0744 74.16 174.0744 
z
" clip-path="url(#p1534979eaa)" style="fill: #95a5a6; opacity: 0.7; stroke: #95a5a6; stroke-linejoin: miter"/>
   </g>
   <g id="patch_3">
    <path d="M 127.728 174.0744 
C 133.0554 174.0744 138.16532 172.847683 141.932361 170.66442 
C 145.699402 168.481157 147.816 165.519601 147.816 162.432 
C 147.816 159.344399 145.699402 156.382843 141.932361 154.19958 
C 138.16532 152.016317 133.0554 150.7896 127.728 150.7896 
C 122.4006 150.7896 117.29068 152.016317 113.523639 154.19958 
C 109.756598 156.382843 107.64 159.344399 107.64 162.432 
C 107.64 165.519601 109.756598 168.481157 113.523639 170.66442 
C 117.29068 172.847683 122.4006 174.0744 127.728 174.0744 
z
" clip-path="url(#p1534979eaa)" style="fill: #95a5a6; opacity: 0.7; stroke: #95a5a6; stroke-linejoin: miter"/>
   </g>
   <g id="patch_4">
    <path d="M 181.296 174.0744 
C 186.6234 174.0744 191.73332 172.847683 195.500361 170.66442 
C 199.267402 168.481157 201.384 165.519601 201.384 162.432 
C 201.384 159.344399 199.267402 156.382843 195.500361 154.19958 
C 191.73332 152.016317 186.6234 150.7896 181.296 150.7896 
C 175.9686 150.7896 170.85868 152.016317 167.091639 154.19958 
C 163.324598 156.382843 161.208 159.344399 161.208 162.432 
C 161.208 165.519601 163.324598 168.481157 167.091639 170.66442 
C 170.85868 172.847683 175.9686 174.0744 181.296 174.0744 
z
" clip-path="url(#p1534979eaa)" style="fill: #95a5a6; opacity: 0.7; stroke: #95a5a6; stroke-linejoin: miter"/>
   </g>
   <g id="patch_5">
    <path d="M 234.864 174.0744 
C 240.1914 174.0744 245.30132 172.847683 249.068361 170.66442 
C 252.835402 168.481157 254.952 165.519601 254.952 162.432 
C 254.952 159.344399 252.835402 156.382843 249.068361 154.19958 
C 245.30132 152.016317 240.1914 150.7896 234.864 150.7896 
C 229.5366 150.7896 224.42668 152.016317 220.659639 154.19958 
C 216.892598 156.382843 214.776 159.344399 214.776 162.432 
C 214.776 165.519601 216.892598 168.481157 220.659639 170.66442 
C 224.42668 172.847683 229.5366 174.0744 234.864 174.0744 
z
" clip-path="url(#p1534979eaa)" style="fill: #95a5a6; opacity: 0.7; stroke: #95a5a6; stroke-linejoin: miter"/>
   </g>
   <g id="patch_6">
    <path d="M 74.16 143.028 
C 79.4874 143.028 84.59732 141.801283 88.364361 139.61802 
C 92.131402 137.434757 94.248 134.473201 94.248 131.3856 
C 94.248 128.297999 92.131402 125.336443 88.364361 123.15318 
C 84.59732 120.969917 79.4874 119.7432 74.16 119.7432 
C 68.8326 119.7432 63.72268 120.969917 59.955639 123.15318 
C 56.188598 125.336443 54.072 128.297999 54.072 131.3856 
C 54.072 134.473201 56.188598 137.434757 59.955639 139.61802 
C 63.72268 141.801283 68.8326 143.028 74.16 143.028 
z
" clip-path="url(#p1534979eaa)" style="fill: #95a5a6; opacity: 0.7; stroke: #95a5a6; stroke-linejoin: miter"/>
   </g>
   <g id="patch_7">
    <path d="M 127.728 143.028 
C 133.0554 143.028 138.16532 141.801283 141.932361 139.61802 
C 145.699402 137.434757 147.816 134.473201 147.816 131.3856 
C 147.816 128.297999 145.699402 125.336443 141.932361 123.15318 
C 138.16532 120.969917 133.0554 119.7432 127.728 119.7432 
C 122.4006 119.7432 117.29068 120.969917 113.523639 123.15318 
C 109.756598 125.336443 107.64 128.297999 107.64 131.3856 
C 107.64 134.473201 109.756598 137.434757 113.523639 139.61802 
C 117.29068 141.801283 122.4006 143.028 127.728 143.028 
z
" clip-path="url(#p1534979eaa)" style="fill: #95a5a6; opacity: 0.7; stroke: #95a5a6; stroke-linejoin: miter"/>
   </g>
   <g id="patch_8">
    <path d="M 181.296 143.028 
C 186.6234 143.028 191.73332 141.801283 195.500361 139.61802 
C 199.267402 137.434757 201.384 134.473201 201.384 131.3856 
C 201.384 128.297999 199.267402 125.336443 195.500361 123.15318 
C 191.73332 120.969917 186.6234 119.7432 181.296 119.7432 
C 175.9686 119.7432 170.85868 120.969917 167.091639 123.15318 
C 163.324598 125.336443 161.208 128.297999 161.208 131.3856 
C 161.208 134.473201 163.324598 137.434757 167.091639 139.61802 
C 170.85868 141.801283 175.9686 143.028 181.296 143.028 
z
" clip-path="url(#p1534979eaa)" style="fill: #95a5a6; opacity: 0.7; stroke: #95a5a6; stroke-linejoin: miter"/>
   </g>
   <g id="patch_9">
    <path d="M 234.864 143.028 
C 240.1914 143.028 245.30132 141.801283 249.068361 139.61802 
C 252.835402 137.434757 254.952 134.473201 254.952 131.3856 
C 254.952 128.297999 252.835402 125.336443 249.068361 123.15318 
C 245.30132 120.969917 240.1914 119.7432 234.864 119.7432 
C 229.5366 119.7432 224.42668 120.969917 220.659639 123.15318 
C 216.892598 125.336443 214.776 128.297999 214.776 131.3856 
C 214.776 134.473201 216.892598 137.434757 220.659639 139.61802 
C 224.42668 141.801283 229.5366 143.028 234.864 143.028 
z
" clip-path="url(#p1534979eaa)" style="fill: #95a5a6; opacity: 0.7; stroke: #95a5a6; stroke-linejoin: miter"/>
   </g>
   <g id="patch_10">
    <path d="M 74.16 111.9816 
C 79.4874 111.9816 84.59732 110.754883 88.364361 108.57162 
C 92.131402 106.388357 94.248 103.426801 94.248 100.3392 
C 94.248 97.251599 92.131402 94.290043 88.364361 92.10678 
C 84.59732 89.923517 79.4874 88.6968 74.16 88.6968 
C 68.8326 88.6968 63.72268 89.923517 59.955639 92.10678 
C 56.188598 94.290043 54.072 97.251599 54.072 100.3392 
C 54.072 103.426801 56.188598 106.388357 59.955639 108.57162 
C 63.72268 110.754883 68.8326 111.9816 74.16 111.9816 
z
" clip-path="url(#p1534979eaa)" style="fill: #95a5a6; opacity: 0.7; stroke: #95a5a6; stroke-linejoin: miter"/>
   </g>
   <g id="patch_11">
    <path d="M 127.728 111.9816 
C 133.0554 111.9816 138.16532 110.754883 141.932361 108.57162 
C 145.699402 106.388357 147.816 103.426801 147.816 100.3392 
C 147.816 97.251599 145.699402 94.290043 141.932361 92.10678 
C 138.16532 89.923517 133.0554 88.6968 127.728 88.6968 
C 122.4006 88.6968 117.29068 89.923517 113.523639 92.10678 
C 109.756598 94.290043 107.64 97.251599 107.64 100.3392 
C 107.64 103.426801 109.756598 106.388357 113.523639 108.57162 
C 117.29068 110.754883 122.4006 111.9816 127.728 111.9816 
z
" clip-path="url(#p1534979eaa)" style="fill: #95a5a6; opacity: 0.7; stroke: #95a5a6; stroke-linejoin: miter"/>
   </g>
   <g id="patch_12">
    <path d="M 181.296 111.9816 
C 186.6234 111.9816 191.73332 110.754883 195.500361 108.57162 
C 199.267402 106.388357 201.384 103.426801 201.384 100.3392 
C 201.384 97.251599 199.267402 94.290043 195.500361 92.10678 
C 191.73332 89.923517 186.6234 88.6968 181.296 88.6968 
C 175.9686 88.6968 170.85868 89.923517 167.091639 92.10678 
C 163.324598 94.290043 161.208 97.251599 161.208 100.3392 
C 161.208 103.426801 163.324598 106.388357 167.091639 108.57162 
C 170.85868 110.754883 175.9686 111.9816 181.296 111.9816 
z
" clip-path="url(#p1534979eaa)" style="fill: #95a5a6; opacity: 0.7; stroke: #95a5a6; stroke-linejoin: miter"/>
   </g>
   <g id="patch_13">
    <path d="M 234.864 111.9816 
C 240.1914 111.9816 245.30132 110.754883 249.068361 108.57162 
C 252.835402 106.388357 254.952 103.426801 254.952 100.3392 
C 254.952 97.251599 252.835402 94.290043 249.068361 92.10678 
C 245.30132 89.923517 240.1914 88.6968 234.864 88.6968 
C 229.5366 88.6968 224.42668 89.923517 220.659639 92.10678 
C 216.892598 94.290043 214.776 97.251599 214.776 100.3392 
C 214.776 103.426801 216.892598 106.388357 220.659639 108.57162 
C 224.42668 110.754883 229.5366 111.9816 234.864 111.9816 
z
" clip-path="url(#p1534979eaa)" style="fill: #95a5a6; opacity: 0.7; stroke: #95a5a6; stroke-linejoin: miter"/>
   </g>
   <g id="patch_14">
    <path d="M 74.16 80.9352 
C 79.4874 80.9352 84.59732 79.708483 88.364361 77.52522 
C 92.131402 75.341957 94.248 72.380401 94.248 69.2928 
C 94.248 66.205199 92.131402 63.243643 88.364361 61.06038 
C 84.59732 58.877117 79.4874 57.6504 74.16 57.6504 
C 68.8326 57.6504 63.72268 58.877117 59.955639 61.06038 
C 56.188598 63.243643 54.072 66.205199 54.072 69.2928 
C 54.072 72.380401 56.188598 75.341957 59.955639 77.52522 
C 63.72268 79.708483 68.8326 80.9352 74.16 80.9352 
z
" clip-path="url(#p1534979eaa)" style="fill: #95a5a6; opacity: 0.7; stroke: #95a5a6; stroke-linejoin: miter"/>
   </g>
   <g id="patch_15">
    <path d="M 127.728 80.9352 
C 133.0554 80.9352 138.16532 79.708483 141.932361 77.52522 
C 145.699402 75.341957 147.816 72.380401 147.816 69.2928 
C 147.816 66.205199 145.699402 63.243643 141.932361 61.06038 
C 138.16532 58.877117 133.0554 57.6504 127.728 57.6504 
C 122.4006 57.6504 117.29068 58.877117 113.523639 61.06038 
C 109.756598 63.243643 107.64 66.205199 107.64 69.2928 
C 107.64 72.380401 109.756598 75.341957 113.523639 77.52522 
C 117.29068 79.708483 122.4006 80.9352 127.728 80.9352 
z
" clip-path="url(#p1534979eaa)" style="fill: #95a5a6; opacity: 0.7; stroke: #95a5a6; stroke-linejoin: miter"/>
   </g>
   <g id="patch_16">
    <path d="M 181.296 80.9352 
C 186.6234 80.9352 191.73332 79.708483 195.500361 77.52522 
C 199.267402 75.341957 201.384 72.380401 201.384 69.2928 
C 201.384 66.205199 199.267402 63.243643 195.500361 61.06038 
C 191.73332 58.877117 186.6234 57.6504 181.296 57.6504 
C 175.9686 57.6504 170.85868 58.877117 167.091639 61.06038 
C 163.324598 63.243643 161.208 66.205199 161.208 69.2928 
C 161.208 72.380401 163.324598 75.341957 167.091639 77.52522 
C 170.85868 79.708483 175.9686 80.9352 181.296 80.9352 
z
" clip-path="url(#p1534979eaa)" style="fill: #95a5a6; opacity: 0.7; stroke: #95a5a6; stroke-linejoin: miter"/>
   </g>
   <g id="patch_17">
    <path d="M 234.864 80.9352 
C 240.1914 80.9352 245.30132 79.708483 249.068361 77.52522 
C 252.835402 75.341957 254.952 72.380401 254.952 69.2928 
C 254.952 66.205199 252.835402 63.243643 249.068361 61.06038 
C 245.30132 58.877117 240.1914 57.6504 234.864 57.6504 
C 229.5366 57.6504 224.42668 58.877117 220.659639 61.06038 
C 216.892598 63.243643 214.776 66.205199 214.776 69.2928 
C 214.776 72.380401 216.892598 75.341957 220.659639 77.52522 
C 224.42668 79.708483 229.5366 80.9352 234.864 80.9352 
z
" clip-path="url(#p1534979eaa)" style="fill: #95a5a6; opacity: 0.7; stroke: #95a5a6; stroke-linejoin: miter"/>
   </g>
   <g id="patch_18">
    <path d="M 408.96 135.2664 
C 414.2874 135.2664 419.39732 134.039683 423.164361 131.85642 
C 426.931402 129.673157 429.048 126.711601 429.048 123.624 
C 429.048 120.536399 426.931402 117.574843 423.164361 115.39158 
C 419.39732 113.208317 414.2874 111.9816 408.96 111.9816 
C 403.6326 111.9816 398.52268 113.208317 394.755639 115.39158 
C 390.988598 117.574843 388.872 120.536399 388.872 123.624 
C 388.872 126.711601 390.988598 129.673157 394.755639 131.85642 
C 398.52268 134.039683 403.6326 135.2664 408.96 135.2664 
z
" clip-path="url(#p1534979eaa)" style="fill: #2ecc71; opacity: 0.9; stroke: #2ecc71; stroke-linejoin: miter"/>
   </g>
   <g id="patch_19">
    <path d="M 462.528 135.2664 
C 467.8554 135.2664 472.96532 134.039683 476.732361 131.85642 
C 480.499402 129.673157 482.616 126.711601 482.616 123.624 
C 482.616 120.536399 480.499402 117.574843 476.732361 115.39158 
C 472.96532 113.208317 467.8554 111.9816 462.528 111.9816 
C 457.2006 111.9816 452.09068 113.208317 448.323639 115.39158 
C 444.556598 117.574843 442.44 120.536399 442.44 123.624 
C 442.44 126.711601 444.556598 129.673157 448.323639 131.85642 
C 452.09068 134.039683 457.2006 135.2664 462.528 135.2664 
z
" clip-path="url(#p1534979eaa)" style="fill: #2ecc71; opacity: 0.9; stroke: #2ecc71; stroke-linejoin: miter"/>
   </g>
   <g id="patch_20">
    <path d="M 408.96 104.22 
C 414.2874 104.22 419.39732 102.993283 423.164361 100.81002 
C 426.931402 98.626757 429.048 95.665201 429.048 92.5776 
C 429.048 89.489999 426.931402 86.528443 423.164361 84.34518 
C 419.39732 82.161917 414.2874 80.9352 408.96 80.9352 
C 403.6326 80.9352 398.52268 82.161917 394.755639 84.34518 
C 390.988598 86.528443 388.872 89.489999 388.872 92.5776 
C 388.872 95.665201 390.988598 98.626757 394.755639 100.81002 
C 398.52268 102.993283 403.6326 104.22 408.96 104.22 
z
" clip-path="url(#p1534979eaa)" style="fill: #2ecc71; opacity: 0.9; stroke: #2ecc71; stroke-linejoin: miter"/>
   </g>
   <g id="patch_21">
    <path d="M 462.528 104.22 
C 467.8554 104.22 472.96532 102.993283 476.732361 100.81002 
C 480.499402 98.626757 482.616 95.665201 482.616 92.5776 
C 482.616 89.489999 480.499402 86.528443 476.732361 84.34518 
C 472.96532 82.161917 467.8554 80.9352 462.528 80.9352 
C 457.2006 80.9352 452.09068 82.161917 448.323639 84.34518 
C 444.556598 86.528443 442.44 89.489999 442.44 92.5776 
C 442.44 95.665201 444.556598 98.626757 448.323639 100.81002 
C 452.09068 102.993283 457.2006 104.22 462.528 104.22 
z
" clip-path="url(#p1534979eaa)" style="fill: #2ecc71; opacity: 0.9; stroke: #2ecc71; stroke-linejoin: miter"/>
   </g>
   <g id="patch_22">
    <path d="M 40.68 360.3528 
L 643.32 360.3528 
Q 650.016 360.3528 650.016 356.472 
L 650.016 259.452 
Q 650.016 255.5712 643.32 255.5712 
L 40.68 255.5712 
Q 33.984 255.5712 33.984 259.452 
L 33.984 356.472 
Q 33.984 360.3528 40.68 360.3528 
z
" clip-path="url(#p1534979eaa)" style="fill: #ecf0f1; stroke: #e74c3c; stroke-width: 2; stroke-linejoin: miter"/>
   </g>
   <g id="text_1">
    <!-- The Anonymous User Problem -->
    <g transform="translate(172.4 26.604) scale(0.2 -0.2)">
     <defs>
      <path id="DejaVuSans-Bold-54" d="M 31 4666 
L 4331 4666 
L 4331 3756 
L 2784 3756 
L 2784 0 
L 1581 0 
L 1581 3756 
L 31 3756 
L 31 4666 
z
" transform="scale(0.015625)"/>
      <path id="DejaVuSans-Bold-68" d="M 4056 2131 
L 4056 0 
L 2931 0 
L 2931 347 
L 2931 1625 
Q 2931 2084 2911 2256 
Q 2891 2428 2841 2509 
Q 2775 2619 2662 2680 
Q 2550 2741 2406 2741 
Q 2056 2741 1856 2470 
Q 1656 2200 1656 1722 
L 1656 0 
L 538 0 
L 538 4863 
L 1656 4863 
L 1656 2988 
Q 1909 3294 2193 3439 
Q 2478 3584 2822 3584 
Q 3428 3584 3742 3212 
Q 4056 2841 4056 2131 
z
" transform="scale(0.015625)"/>
      <path id="DejaVuSans-Bold-65" d="M 4031 1759 
L 4031 1441 
L 1416 1441 
Q 1456 1047 1700 850 
Q 1944 653 2381 653 
Q 2734 653 3104 758 
Q 3475 863 3866 1075 
L 3866 213 
Q 3469 63 3072 -14 
Q 2675 -91 2278 -91 
Q 1328 -91 801 392 
Q 275 875 275 1747 
Q 275 2603 792 3093 
Q 1309 3584 2216 3584 
Q 3041 3584 3536 3087 
Q 4031 2591 4031 1759 
z
M 2881 2131 
Q 2881 2450 2695 2645 
Q 2509 2841 2209 2841 
Q 1884 2841 1681 2658 
Q 1478 2475 1428 2131 
L 2881 2131 
z
" transform="scale(0.015625)"/>
      <path id="DejaVuSans-Bold-20" transform="scale(0.015625)"/>
      <path id="DejaVuSans-Bold-41" d="M 3419 850 
L 1538 850 
L 1241 0 
L 31 0 
L 1759 4666 
L 3194 4666 
L 4922 0 
L 3713 0 
L 3419 850 
z
M 1838 1716 
L 3116 1716 
L 2478 3572 
L 1838 1716 
z
" transform="scale(0.015625)"/>
      <path id="DejaVuSans-Bold-6e" d="M 4056 2131 
L 4056 0 
L 2931 0 
L 2931 347 
L 2931 1631 
Q 2931 2084 2911 2256 
Q 2891 2428 2841 2509 
Q 2775 2619 2662 2680 
Q 2550 2741 2406 2741 
Q 2056 2741 1856 2470 
Q 1656 2200 1656 1722 
L 1656 0 
L 538 0 
L 538 3500 
L 1656 3500 
L 1656 2988 
Q 1909 3294 2193 3439 
Q 2478 3584 2822 3584 
Q 3428 3584 3742 3212 
Q 4056 2841 4056 2131 
z
" transform="scale(0.015625)"/>
      <path id="DejaVuSans-Bold-6f" d="M 2203 2784 
Q 1831 2784 1636 2517 
Q 1441 2250 1441 1747 
Q 1441 1244 1636 976 
Q 1831 709 2203 709 
Q 2569 709 2762 976 
Q 2956 1244 2956 1747 
Q 2956 2250 2762 2517 
Q 2569 2784 2203 2784 
z
M 2203 3584 
Q 3106 3584 3614 3096 
Q 4122 2609 4122 1747 
Q 4122 884 3614 396 
Q 3106 -91 2203 -91 
Q 1297 -91 786 396 
Q 275 884 275 1747 
Q 275 2609 786 3096 
Q 1297 3584 2203 3584 
z
" transform="scale(0.015625)"/>
      <path id="DejaVuSans-Bold-79" d="M 78 3500 
L 1197 3500 
L 2138 1125 
L 2938 3500 
L 4056 3500 
L 2584 -331 
Q 2363 -916 2067 -1148 
Q 1772 -1381 1288 -1381 
L 641 -1381 
L 641 -647 
L 991 -647 
Q 1275 -647 1404 -556 
Q 1534 -466 1606 -231 
L 1638 -134 
L 78 3500 
z
" transform="scale(0.015625)"/>
      <path id="DejaVuSans-Bold-6d" d="M 3781 2919 
Q 3994 3244 4286 3414 
Q 4578 3584 4928 3584 
Q 5531 3584 5847 3212 
Q 6163 2841 6163 2131 
L 6163 0 
L 5038 0 
L 5038 1825 
Q 5041 1866 5042 1909 
Q 5044 1953 5044 2034 
Q 5044 2406 4934 2573 
Q 4825 2741 4581 2741 
Q 4263 2741 4089 2478 
Q 3916 2216 3909 1719 
L 3909 0 
L 2784 0 
L 2784 1825 
Q 2784 2406 2684 2573 
Q 2584 2741 2328 2741 
Q 2006 2741 1831 2477 
Q 1656 2213 1656 1722 
L 1656 0 
L 531 0 
L 531 3500 
L 1656 3500 
L 1656 2988 
Q 1863 3284 2130 3434 
Q 2397 3584 2719 3584 
Q 3081 3584 3359 3409 
Q 3638 3234 3781 2919 
z
" transform="scale(0.015625)"/>
      <path id="DejaVuSans-Bold-75" d="M 500 1363 
L 500 3500 
L 1625 3500 
L 1625 3150 
Q 1625 2866 1622 2436 
Q 1619 2006 1619 1863 
Q 1619 1441 1641 1255 
Q 1663 1069 1716 984 
Q 1784 875 1895 815 
Q 2006 756 2150 756 
Q 2500 756 2700 1025 
Q 2900 1294 2900 1772 
L 2900 3500 
L 4019 3500 
L 4019 0 
L 2900 0 
L 2900 506 
Q 2647 200 2364 54 
Q 2081 -91 1741 -91 
Q 1134 -91 817 281 
Q 500 653 500 1363 
z
" transform="scale(0.015625)"/>
      <path id="DejaVuSans-Bold-73" d="M 3272 3391 
L 3272 2541 
Q 2913 2691 2578 2766 
Q 2244 2841 1947 2841 
Q 1628 2841 1473 2761 
Q 1319 2681 1319 2516 
Q 1319 2381 1436 2309 
Q 1553 2238 1856 2203 
L 2053 2175 
Q 2913 2066 3209 1816 
Q 3506 1566 3506 1031 
Q 3506 472 3093 190 
Q 2681 -91 1863 -91 
Q 1516 -91 1145 -36 
Q 775 19 384 128 
L 384 978 
Q 719 816 1070 734 
Q 1422 653 1784 653 
Q 2113 653 2278 743 
Q 2444 834 2444 1013 
Q 2444 1163 2330 1236 
Q 2216 1309 1875 1350 
L 1678 1375 
Q 931 1469 631 1722 
Q 331 1975 331 2491 
Q 331 3047 712 3315 
Q 1094 3584 1881 3584 
Q 2191 3584 2531 3537 
Q 2872 3491 3272 3391 
z
" transform="scale(0.015625)"/>
      <path id="DejaVuSans-Bold-55" d="M 588 4666 
L 1791 4666 
L 1791 1869 
Q 1791 1291 1980 1042 
Q 2169 794 2597 794 
Q 3028 794 3217 1042 
Q 3406 1291 3406 1869 
L 3406 4666 
L 4609 4666 
L 4609 1869 
Q 4609 878 4112 393 
Q 3616 -91 2597 -91 
Q 1581 -91 1084 393 
Q 588 878 588 1869 
L 588 4666 
z
" transform="scale(0.015625)"/>
      <path id="DejaVuSans-Bold-72" d="M 3138 2547 
Q 2991 2616 2845 2648 
Q 2700 2681 2553 2681 
Q 2122 2681 1889 2404 
Q 1656 2128 1656 1613 
L 1656 0 
L 538 0 
L 538 3500 
L 1656 3500 
L 1656 2925 
Q 1872 3269 2151 3426 
Q 2431 3584 2822 3584 
Q 2878 3584 2943 3579 
Q 3009 3575 3134 3559 
L 3138 2547 
z
" transform="scale(0.015625)"/>
      <path id="DejaVuSans-Bold-50" d="M 588 4666 
L 2584 4666 
Q 3475 4666 3951 4270 
Q 4428 3875 4428 3144 
Q 4428 2409 3951 2014 
Q 3475 1619 2584 1619 
L 1791 1619 
L 1791 0 
L 588 0 
L 588 4666 
z
M 1791 3794 
L 1791 2491 
L 2456 2491 
Q 2806 2491 2997 2661 
Q 3188 2831 3188 3144 
Q 3188 3456 2997 3625 
Q 2806 3794 2456 3794 
L 1791 3794 
z
" transform="scale(0.015625)"/>
      <path id="DejaVuSans-Bold-62" d="M 2400 722 
Q 2759 722 2948 984 
Q 3138 1247 3138 1747 
Q 3138 2247 2948 2509 
Q 2759 2772 2400 2772 
Q 2041 2772 1848 2508 
Q 1656 2244 1656 1747 
Q 1656 1250 1848 986 
Q 2041 722 2400 722 
z
M 1656 2988 
Q 1888 3294 2169 3439 
Q 2450 3584 2816 3584 
Q 3463 3584 3878 3070 
Q 4294 2556 4294 1747 
Q 4294 938 3878 423 
Q 3463 -91 2816 -91 
Q 2450 -91 2169 54 
Q 1888 200 1656 506 
L 1656 0 
L 538 0 
L 538 4863 
L 1656 4863 
L 1656 2988 
z
" transform="scale(0.015625)"/>
      <path id="DejaVuSans-Bold-6c" d="M 538 4863 
L 1656 4863 
L 1656 0 
L 538 0 
L 538 4863 
z
" transform="scale(0.015625)"/>
     </defs>
     <use xlink:href="#DejaVuSans-Bold-54"/>
     <use xlink:href="#DejaVuSans-Bold-68" x="68.212891"/>
     <use xlink:href="#DejaVuSans-Bold-65" x="139.404297"/>
     <use xlink:href="#DejaVuSans-Bold-20" x="207.226562"/>
     <use xlink:href="#DejaVuSans-Bold-41" x="242.041016"/>
     <use xlink:href="#DejaVuSans-Bold-6e" x="319.433594"/>
     <use xlink:href="#DejaVuSans-Bold-6f" x="390.625"/>
     <use xlink:href="#DejaVuSans-Bold-6e" x="459.326172"/>
     <use xlink:href="#DejaVuSans-Bold-79" x="530.517578"/>
     <use xlink:href="#DejaVuSans-Bold-6d" x="595.703125"/>
     <use xlink:href="#DejaVuSans-Bold-6f" x="699.902344"/>
     <use xlink:href="#DejaVuSans-Bold-75" x="768.603516"/>
     <use xlink:href="#DejaVuSans-Bold-73" x="839.794922"/>
     <use xlink:href="#DejaVuSans-Bold-20" x="899.316406"/>
     <use xlink:href="#DejaVuSans-Bold-55" x="934.130859"/>
     <use xlink:href="#DejaVuSans-Bold-73" x="1015.332031"/>
     <use xlink:href="#DejaVuSans-Bold-65" x="1074.853516"/>
     <use xlink:href="#DejaVuSans-Bold-72" x="1142.675781"/>
     <use xlink:href="#DejaVuSans-Bold-20" x="1191.992188"/>
     <use xlink:href="#DejaVuSans-Bold-50" x="1226.806641"/>
     <use xlink:href="#DejaVuSans-Bold-72" x="1300.097656"/>
     <use xlink:href="#DejaVuSans-Bold-6f" x="1349.414062"/>
     <use xlink:href="#DejaVuSans-Bold-62" x="1418.115234"/>
     <use xlink:href="#DejaVuSans-Bold-6c" x="1489.697266"/>
     <use xlink:href="#DejaVuSans-Bold-65" x="1523.974609"/>
     <use xlink:href="#DejaVuSans-Bold-6d" x="1591.796875"/>
    </g>
   </g>
   <g id="text_2">
    <!-- ? -->
    <g style="fill: #ffffff" transform="translate(70.679063 165.74325) scale(0.12 -0.12)">
     <defs>
      <path id="DejaVuSans-Bold-3f" d="M 2216 1575 
L 1088 1575 
L 1088 1728 
Q 1088 1984 1191 2182 
Q 1294 2381 1625 2688 
L 1825 2869 
Q 2003 3031 2086 3175 
Q 2169 3319 2169 3463 
Q 2169 3681 2019 3804 
Q 1869 3928 1600 3928 
Q 1347 3928 1053 3823 
Q 759 3719 441 3513 
L 441 4494 
Q 819 4625 1131 4687 
Q 1444 4750 1734 4750 
Q 2497 4750 2897 4439 
Q 3297 4128 3297 3531 
Q 3297 3225 3175 2983 
Q 3053 2741 2759 2463 
L 2559 2284 
Q 2347 2091 2281 1973 
Q 2216 1856 2216 1716 
L 2216 1575 
z
M 1088 1113 
L 2216 1113 
L 2216 0 
L 1088 0 
L 1088 1113 
z
" transform="scale(0.015625)"/>
     </defs>
     <use xlink:href="#DejaVuSans-Bold-3f"/>
    </g>
   </g>
   <g id="text_3">
    <!-- ? -->
    <g style="fill: #ffffff" transform="translate(124.247063 165.74325) scale(0.12 -0.12)">
     <use xlink:href="#DejaVuSans-Bold-3f"/>
    </g>
   </g>
   <g id="text_4">
    <!-- ? -->
    <g style="fill: #ffffff" transform="translate(177.815063 165.74325) scale(0.12 -0.12)">
     <use xlink:href="#DejaVuSans-Bold-3f"/>
    </g>
   </g>
   <g id="text_5">
    <!-- ? -->
    <g style="fill: #ffffff" transform="translate(231.383063 165.74325) scale(0.12 -0.12)">
     <use xlink:href="#DejaVuSans-Bold-3f"/>
    </g>
   </g>
   <g id="text_6">
    <!-- ? -->
    <g style="fill: #ffffff" transform="translate(70.679063 134.69685) scale(0.12 -0.12)">
     <use xlink:href="#DejaVuSans-Bold-3f"/>
    </g>
   </g>
   <g id="text_7">
    <!-- ? -->
    <g style="fill: #ffffff" transform="translate(124.247063 134.69685) scale(0.12 -0.12)">
     <use xlink:href="#DejaVuSans-Bold-3f"/>
    </g>
   </g>
   <g id="text_8">
    <!-- ? -->
    <g style="fill: #ffffff" transform="translate(177.815063 134.69685) scale(0.12 -0.12)">
     <use xlink:href="#DejaVuSans-Bold-3f"/>
    </g>
   </g>
   <g id="text_9">
    <!-- ? -->
    <g style="fill: #ffffff" transform="translate(231.383063 134.69685) scale(0.12 -0.12)">
     <use xlink:href="#DejaVuSans-Bold-3f"/>
    </g>
   </g>
   <g id="text_10">
    <!-- ? -->
    <g style="fill: #ffffff" transform="translate(70.679063 103.65045) scale(0.12 -0.12)">
     <use xlink:href="#DejaVuSans-Bold-3f"/>
    </g>
   </g>
   <g id="text_11">
    <!-- ? -->
    <g style="fill: #ffffff" transform="translate(124.247063 103.65045) scale(0.12 -0.12)">
     <use xlink:href="#DejaVuSans-Bold-3f"/>
    </g>
   </g>
   <g id="text_12">
    <!-- ? -->
    <g style="fill: #ffffff" transform="translate(177.815063 103.65045) scale(0.12 -0.12)">
     <use xlink:href="#DejaVuSans-Bold-3f"/>
    </g>
   </g>
   <g id="text_13">
    <!-- ? -->
    <g style="fill: #ffffff" transform="translate(231.383063 103.65045) scale(0.12 -0.12)">
     <use xlink:href="#DejaVuSans-Bold-3f"/>
    </g>
   </g>
   <g id="text_14">
    <!-- ? -->
    <g style="fill: #ffffff" transform="translate(70.679063 72.60405) scale(0.12 -0.12)">
     <use xlink:href="#DejaVuSans-Bold-3f"/>
    </g>
   </g>
   <g id="text_15">
    <!-- ? -->
    <g style="fill: #ffffff" transform="translate(124.247063 72.60405) scale(0.12 -0.12)">
     <use xlink:href="#DejaVuSans-Bold-3f"/>
    </g>
   </g>
   <g id="text_16">
    <!-- ? -->
    <g style="fill: #ffffff" transform="translate(177.815063 72.60405) scale(0.12 -0.12)">
     <use xlink:href="#DejaVuSans-Bold-3f"/>
    </g>
   </g>
   <g id="text_17">
    <!-- ? -->
    <g style="fill: #ffffff" transform="translate(231.383063 72.60405) scale(0.12 -0.12)">
     <use xlink:href="#DejaVuSans-Bold-3f"/>
    </g>
   </g>
   <g id="text_18">
    <!-- ✓ -->
    <g style="fill: #ffffff" transform="translate(403.932188 126.93525) scale(0.12 -0.12)">
     <defs>
      <path id="DejaVuSans-Bold-2713" d="M 1416 2044 
Q 1538 2044 1600 1844 
Q 1725 1469 1778 1469 
Q 1819 1469 1863 1531 
Q 2741 2938 3488 3806 
Q 3681 4031 4103 4031 
Q 4203 4031 4237 4012 
Q 4272 3994 4272 3966 
Q 4272 3922 4169 3794 
Q 2963 2344 1931 731 
Q 1859 619 1638 619 
Q 1413 619 1372 638 
Q 1266 684 1122 1116 
Q 959 1594 959 1716 
Q 959 1847 1178 1969 
Q 1313 2044 1416 2044 
z
" transform="scale(0.015625)"/>
     </defs>
     <use xlink:href="#DejaVuSans-Bold-2713"/>
    </g>
   </g>
   <g id="text_19">
    <!-- ✓ -->
    <g style="fill: #ffffff" transform="translate(457.500188 126.93525) scale(0.12 -0.12)">
     <use xlink:href="#DejaVuSans-Bold-2713"/>
    </g>
   </g>
   <g id="text_20">
    <!-- ✓ -->
    <g style="fill: #ffffff" transform="translate(403.932188 95.88885) scale(0.12 -0.12)">
     <use xlink:href="#DejaVuSans-Bold-2713"/>
    </g>
   </g>
   <g id="text_21">
    <!-- ✓ -->
    <g style="fill: #ffffff" transform="translate(457.500188 95.88885) scale(0.12 -0.12)">
     <use xlink:href="#DejaVuSans-Bold-2713"/>
    </g>
   </g>
   <g id="text_22">
    <!-- 70-80% -->
    <g style="fill: #95a5a6" transform="translate(145.198906 185.563062) scale(0.14 -0.14)">
     <defs>
      <path id="DejaVuSans-Bold-37" d="M 428 4666 
L 3944 4666 
L 3944 3988 
L 2125 0 
L 953 0 
L 2675 3781 
L 428 3781 
L 428 4666 
z
" transform="scale(0.015625)"/>
      <path id="DejaVuSans-Bold-30" d="M 2944 2338 
Q 2944 3213 2780 3570 
Q 2616 3928 2228 3928 
Q 1841 3928 1675 3570 
Q 1509 3213 1509 2338 
Q 1509 1453 1675 1090 
Q 1841 728 2228 728 
Q 2613 728 2778 1090 
Q 2944 1453 2944 2338 
z
M 4147 2328 
Q 4147 1169 3647 539 
Q 3147 -91 2228 -91 
Q 1306 -91 806 539 
Q 306 1169 306 2328 
Q 306 3491 806 4120 
Q 1306 4750 2228 4750 
Q 3147 4750 3647 4120 
Q 4147 3491 4147 2328 
z
" transform="scale(0.015625)"/>
      <path id="DejaVuSans-Bold-2d" d="M 347 2297 
L 2309 2297 
L 2309 1388 
L 347 1388 
L 347 2297 
z
" transform="scale(0.015625)"/>
      <path id="DejaVuSans-Bold-38" d="M 2228 2088 
Q 1891 2088 1709 1903 
Q 1528 1719 1528 1375 
Q 1528 1031 1709 848 
Q 1891 666 2228 666 
Q 2563 666 2741 848 
Q 2919 1031 2919 1375 
Q 2919 1722 2741 1905 
Q 2563 2088 2228 2088 
z
M 1350 2484 
Q 925 2613 709 2878 
Q 494 3144 494 3541 
Q 494 4131 934 4440 
Q 1375 4750 2228 4750 
Q 3075 4750 3515 4442 
Q 3956 4134 3956 3541 
Q 3956 3144 3739 2878 
Q 3522 2613 3097 2484 
Q 3572 2353 3814 2058 
Q 4056 1763 4056 1313 
Q 4056 619 3595 264 
Q 3134 -91 2228 -91 
Q 1319 -91 855 264 
Q 391 619 391 1313 
Q 391 1763 633 2058 
Q 875 2353 1350 2484 
z
M 1631 3419 
Q 1631 3141 1786 2991 
Q 1941 2841 2228 2841 
Q 2509 2841 2662 2991 
Q 2816 3141 2816 3419 
Q 2816 3697 2662 3845 
Q 2509 3994 2228 3994 
Q 1941 3994 1786 3844 
Q 1631 3694 1631 3419 
z
" transform="scale(0.015625)"/>
      <path id="DejaVuSans-Bold-25" d="M 4959 1925 
Q 4738 1925 4616 1733 
Q 4494 1541 4494 1184 
Q 4494 825 4614 633 
Q 4734 441 4959 441 
Q 5184 441 5303 633 
Q 5422 825 5422 1184 
Q 5422 1541 5301 1733 
Q 5181 1925 4959 1925 
z
M 4959 2450 
Q 5541 2450 5875 2112 
Q 6209 1775 6209 1184 
Q 6209 594 5875 251 
Q 5541 -91 4959 -91 
Q 4378 -91 4042 251 
Q 3706 594 3706 1184 
Q 3706 1772 4042 2111 
Q 4378 2450 4959 2450 
z
M 2094 -91 
L 1403 -91 
L 4319 4750 
L 5013 4750 
L 2094 -91 
z
M 1453 4750 
Q 2034 4750 2367 4411 
Q 2700 4072 2700 3481 
Q 2700 2891 2367 2550 
Q 2034 2209 1453 2209 
Q 872 2209 539 2550 
Q 206 2891 206 3481 
Q 206 4072 539 4411 
Q 872 4750 1453 4750 
z
M 1453 4225 
Q 1228 4225 1106 4031 
Q 984 3838 984 3481 
Q 984 3122 1106 2926 
Q 1228 2731 1453 2731 
Q 1678 2731 1798 2926 
Q 1919 3122 1919 3481 
Q 1919 3838 1797 4031 
Q 1675 4225 1453 4225 
z
" transform="scale(0.015625)"/>
     </defs>
     <use xlink:href="#DejaVuSans-Bold-37"/>
     <use xlink:href="#DejaVuSans-Bold-30" x="69.580078"/>
     <use xlink:href="#DejaVuSans-Bold-2d" x="139.160156"/>
     <use xlink:href="#DejaVuSans-Bold-38" x="180.664062"/>
     <use xlink:href="#DejaVuSans-Bold-30" x="250.244141"/>
     <use xlink:href="#DejaVuSans-Bold-25" x="319.824219"/>
    </g>
    <!-- Anonymous -->
    <g style="fill: #95a5a6" transform="translate(128.591406 201.24) scale(0.14 -0.14)">
     <use xlink:href="#DejaVuSans-Bold-41"/>
     <use xlink:href="#DejaVuSans-Bold-6e" x="77.392578"/>
     <use xlink:href="#DejaVuSans-Bold-6f" x="148.583984"/>
     <use xlink:href="#DejaVuSans-Bold-6e" x="217.285156"/>
     <use xlink:href="#DejaVuSans-Bold-79" x="288.476562"/>
     <use xlink:href="#DejaVuSans-Bold-6d" x="353.662109"/>
     <use xlink:href="#DejaVuSans-Bold-6f" x="457.861328"/>
     <use xlink:href="#DejaVuSans-Bold-75" x="526.5625"/>
     <use xlink:href="#DejaVuSans-Bold-73" x="597.753906"/>
    </g>
   </g>
   <g id="text_23">
    <!-- 20-30% -->
    <g style="fill: #2ecc71" transform="translate(413.038906 185.563062) scale(0.14 -0.14)">
     <defs>
      <path id="DejaVuSans-Bold-32" d="M 1844 884 
L 3897 884 
L 3897 0 
L 506 0 
L 506 884 
L 2209 2388 
Q 2438 2594 2547 2791 
Q 2656 2988 2656 3200 
Q 2656 3528 2436 3728 
Q 2216 3928 1850 3928 
Q 1569 3928 1234 3808 
Q 900 3688 519 3450 
L 519 4475 
Q 925 4609 1322 4679 
Q 1719 4750 2100 4750 
Q 2938 4750 3402 4381 
Q 3866 4013 3866 3353 
Q 3866 2972 3669 2642 
Q 3472 2313 2841 1759 
L 1844 884 
z
" transform="scale(0.015625)"/>
      <path id="DejaVuSans-Bold-33" d="M 2981 2516 
Q 3453 2394 3698 2092 
Q 3944 1791 3944 1325 
Q 3944 631 3412 270 
Q 2881 -91 1863 -91 
Q 1503 -91 1142 -33 
Q 781 25 428 141 
L 428 1069 
Q 766 900 1098 814 
Q 1431 728 1753 728 
Q 2231 728 2486 893 
Q 2741 1059 2741 1369 
Q 2741 1688 2480 1852 
Q 2219 2016 1709 2016 
L 1228 2016 
L 1228 2791 
L 1734 2791 
Q 2188 2791 2409 2933 
Q 2631 3075 2631 3366 
Q 2631 3634 2415 3781 
Q 2200 3928 1806 3928 
Q 1516 3928 1219 3862 
Q 922 3797 628 3669 
L 628 4550 
Q 984 4650 1334 4700 
Q 1684 4750 2022 4750 
Q 2931 4750 3382 4451 
Q 3834 4153 3834 3553 
Q 3834 3144 3618 2883 
Q 3403 2622 2981 2516 
z
" transform="scale(0.015625)"/>
     </defs>
     <use xlink:href="#DejaVuSans-Bold-32"/>
     <use xlink:href="#DejaVuSans-Bold-30" x="69.580078"/>
     <use xlink:href="#DejaVuSans-Bold-2d" x="139.160156"/>
     <use xlink:href="#DejaVuSans-Bold-33" x="180.664062"/>
     <use xlink:href="#DejaVuSans-Bold-30" x="250.244141"/>
     <use xlink:href="#DejaVuSans-Bold-25" x="319.824219"/>
    </g>
    <!-- Known -->
    <g style="fill: #2ecc71" transform="translate(415.773281 201.24) scale(0.14 -0.14)">
     <defs>
      <path id="DejaVuSans-Bold-4b" d="M 588 4666 
L 1791 4666 
L 1791 2963 
L 3525 4666 
L 4922 4666 
L 2675 2456 
L 5153 0 
L 3647 0 
L 1791 1838 
L 1791 0 
L 588 0 
L 588 4666 
z
" transform="scale(0.015625)"/>
      <path id="DejaVuSans-Bold-77" d="M 225 3500 
L 1313 3500 
L 1900 1088 
L 2491 3500 
L 3425 3500 
L 4013 1113 
L 4603 3500 
L 5691 3500 
L 4769 0 
L 3547 0 
L 2956 2406 
L 2369 0 
L 1147 0 
L 225 3500 
z
" transform="scale(0.015625)"/>
     </defs>
     <use xlink:href="#DejaVuSans-Bold-4b"/>
     <use xlink:href="#DejaVuSans-Bold-6e" x="77.490234"/>
     <use xlink:href="#DejaVuSans-Bold-6f" x="148.681641"/>
     <use xlink:href="#DejaVuSans-Bold-77" x="217.382812"/>
     <use xlink:href="#DejaVuSans-Bold-6e" x="309.765625"/>
    </g>
   </g>
   <g id="text_24">
    <!-- Traditional recommenders FAIL for anonymous users: -->
    <g style="fill: #e74c3c" transform="translate(161.412188 286.6176) scale(0.12 -0.12)">
     <defs>
      <path id="DejaVuSans-Bold-61" d="M 2106 1575 
Q 1756 1575 1579 1456 
Q 1403 1338 1403 1106 
Q 1403 894 1545 773 
Q 1688 653 1941 653 
Q 2256 653 2472 879 
Q 2688 1106 2688 1447 
L 2688 1575 
L 2106 1575 
z
M 3816 1997 
L 3816 0 
L 2688 0 
L 2688 519 
Q 2463 200 2181 54 
Q 1900 -91 1497 -91 
Q 953 -91 614 226 
Q 275 544 275 1050 
Q 275 1666 698 1953 
Q 1122 2241 2028 2241 
L 2688 2241 
L 2688 2328 
Q 2688 2594 2478 2717 
Q 2269 2841 1825 2841 
Q 1466 2841 1156 2769 
Q 847 2697 581 2553 
L 581 3406 
Q 941 3494 1303 3539 
Q 1666 3584 2028 3584 
Q 2975 3584 3395 3211 
Q 3816 2838 3816 1997 
z
" transform="scale(0.015625)"/>
      <path id="DejaVuSans-Bold-64" d="M 2919 2988 
L 2919 4863 
L 4044 4863 
L 4044 0 
L 2919 0 
L 2919 506 
Q 2688 197 2409 53 
Q 2131 -91 1766 -91 
Q 1119 -91 703 423 
Q 288 938 288 1747 
Q 288 2556 703 3070 
Q 1119 3584 1766 3584 
Q 2128 3584 2408 3439 
Q 2688 3294 2919 2988 
z
M 2181 722 
Q 2541 722 2730 984 
Q 2919 1247 2919 1747 
Q 2919 2247 2730 2509 
Q 2541 2772 2181 2772 
Q 1825 2772 1636 2509 
Q 1447 2247 1447 1747 
Q 1447 1247 1636 984 
Q 1825 722 2181 722 
z
" transform="scale(0.015625)"/>
      <path id="DejaVuSans-Bold-69" d="M 538 3500 
L 1656 3500 
L 1656 0 
L 538 0 
L 538 3500 
z
M 538 4863 
L 1656 4863 
L 1656 3950 
L 538 3950 
L 538 4863 
z
" transform="scale(0.015625)"/>
      <path id="DejaVuSans-Bold-74" d="M 1759 4494 
L 1759 3500 
L 2913 3500 
L 2913 2700 
L 1759 2700 
L 1759 1216 
Q 1759 972 1856 886 
Q 1953 800 2241 800 
L 2816 800 
L 2816 0 
L 1856 0 
Q 1194 0 917 276 
Q 641 553 641 1216 
L 641 2700 
L 84 2700 
L 84 3500 
L 641 3500 
L 641 4494 
L 1759 4494 
z
" transform="scale(0.015625)"/>
      <path id="DejaVuSans-Bold-63" d="M 3366 3391 
L 3366 2478 
Q 3138 2634 2908 2709 
Q 2678 2784 2431 2784 
Q 1963 2784 1702 2511 
Q 1441 2238 1441 1747 
Q 1441 1256 1702 982 
Q 1963 709 2431 709 
Q 2694 709 2930 787 
Q 3166 866 3366 1019 
L 3366 103 
Q 3103 6 2833 -42 
Q 2563 -91 2291 -91 
Q 1344 -91 809 395 
Q 275 881 275 1747 
Q 275 2613 809 3098 
Q 1344 3584 2291 3584 
Q 2566 3584 2833 3536 
Q 3100 3488 3366 3391 
z
" transform="scale(0.015625)"/>
      <path id="DejaVuSans-Bold-46" d="M 588 4666 
L 3834 4666 
L 3834 3756 
L 1791 3756 
L 1791 2888 
L 3713 2888 
L 3713 1978 
L 1791 1978 
L 1791 0 
L 588 0 
L 588 4666 
z
" transform="scale(0.015625)"/>
      <path id="DejaVuSans-Bold-49" d="M 588 4666 
L 1791 4666 
L 1791 0 
L 588 0 
L 588 4666 
z
" transform="scale(0.015625)"/>
      <path id="DejaVuSans-Bold-4c" d="M 588 4666 
L 1791 4666 
L 1791 909 
L 3903 909 
L 3903 0 
L 588 0 
L 588 4666 
z
" transform="scale(0.015625)"/>
      <path id="DejaVuSans-Bold-66" d="M 2841 4863 
L 2841 4128 
L 2222 4128 
Q 1984 4128 1890 4042 
Q 1797 3956 1797 3744 
L 1797 3500 
L 2753 3500 
L 2753 2700 
L 1797 2700 
L 1797 0 
L 678 0 
L 678 2700 
L 122 2700 
L 122 3500 
L 678 3500 
L 678 3744 
Q 678 4316 997 4589 
Q 1316 4863 1984 4863 
L 2841 4863 
z
" transform="scale(0.015625)"/>
      <path id="DejaVuSans-Bold-3a" d="M 716 3500 
L 1844 3500 
L 1844 2291 
L 716 2291 
L 716 3500 
z
M 716 1209 
L 1844 1209 
L 1844 0 
L 716 0 
L 716 1209 
z
" transform="scale(0.015625)"/>
     </defs>
     <use xlink:href="#DejaVuSans-Bold-54"/>
     <use xlink:href="#DejaVuSans-Bold-72" x="57.212891"/>
     <use xlink:href="#DejaVuSans-Bold-61" x="106.529297"/>
     <use xlink:href="#DejaVuSans-Bold-64" x="174.009766"/>
     <use xlink:href="#DejaVuSans-Bold-69" x="245.591797"/>
     <use xlink:href="#DejaVuSans-Bold-74" x="279.869141"/>
     <use xlink:href="#DejaVuSans-Bold-69" x="327.671875"/>
     <use xlink:href="#DejaVuSans-Bold-6f" x="361.949219"/>
     <use xlink:href="#DejaVuSans-Bold-6e" x="430.650391"/>
     <use xlink:href="#DejaVuSans-Bold-61" x="501.841797"/>
     <use xlink:href="#DejaVuSans-Bold-6c" x="569.322266"/>
     <use xlink:href="#DejaVuSans-Bold-20" x="603.599609"/>
     <use xlink:href="#DejaVuSans-Bold-72" x="638.414062"/>
     <use xlink:href="#DejaVuSans-Bold-65" x="687.730469"/>
     <use xlink:href="#DejaVuSans-Bold-63" x="755.552734"/>
     <use xlink:href="#DejaVuSans-Bold-6f" x="814.830078"/>
     <use xlink:href="#DejaVuSans-Bold-6d" x="883.53125"/>
     <use xlink:href="#DejaVuSans-Bold-6d" x="987.730469"/>
     <use xlink:href="#DejaVuSans-Bold-65" x="1091.929688"/>
     <use xlink:href="#DejaVuSans-Bold-6e" x="1159.751953"/>
     <use xlink:href="#DejaVuSans-Bold-64" x="1230.943359"/>
     <use xlink:href="#DejaVuSans-Bold-65" x="1302.525391"/>
     <use xlink:href="#DejaVuSans-Bold-72" x="1370.347656"/>
     <use xlink:href="#DejaVuSans-Bold-73" x="1419.664062"/>
     <use xlink:href="#DejaVuSans-Bold-20" x="1479.185547"/>
     <use xlink:href="#DejaVuSans-Bold-46" x="1514"/>
     <use xlink:href="#DejaVuSans-Bold-41" x="1570.810547"/>
     <use xlink:href="#DejaVuSans-Bold-49" x="1648.203125"/>
     <use xlink:href="#DejaVuSans-Bold-4c" x="1685.410156"/>
     <use xlink:href="#DejaVuSans-Bold-20" x="1749.130859"/>
     <use xlink:href="#DejaVuSans-Bold-66" x="1783.945312"/>
     <use xlink:href="#DejaVuSans-Bold-6f" x="1827.451172"/>
     <use xlink:href="#DejaVuSans-Bold-72" x="1896.152344"/>
     <use xlink:href="#DejaVuSans-Bold-20" x="1945.46875"/>
     <use xlink:href="#DejaVuSans-Bold-61" x="1980.283203"/>
     <use xlink:href="#DejaVuSans-Bold-6e" x="2047.763672"/>
     <use xlink:href="#DejaVuSans-Bold-6f" x="2118.955078"/>
     <use xlink:href="#DejaVuSans-Bold-6e" x="2187.65625"/>
     <use xlink:href="#DejaVuSans-Bold-79" x="2258.847656"/>
     <use xlink:href="#DejaVuSans-Bold-6d" x="2324.033203"/>
     <use xlink:href="#DejaVuSans-Bold-6f" x="2428.232422"/>
     <use xlink:href="#DejaVuSans-Bold-75" x="2496.933594"/>
     <use xlink:href="#DejaVuSans-Bold-73" x="2568.125"/>
     <use xlink:href="#DejaVuSans-Bold-20" x="2627.646484"/>
     <use xlink:href="#DejaVuSans-Bold-75" x="2662.460938"/>
     <use xlink:href="#DejaVuSans-Bold-73" x="2733.652344"/>
     <use xlink:href="#DejaVuSans-Bold-65" x="2793.173828"/>
     <use xlink:href="#DejaVuSans-Bold-72" x="2860.996094"/>
     <use xlink:href="#DejaVuSans-Bold-73" x="2910.3125"/>
     <use xlink:href="#DejaVuSans-Bold-3a" x="2969.833984"/>
    </g>
   </g>
   <g id="text_25">
    <!-- ✗ Require weeks of user history    ✗ Need login/cookies    ✗ Depend on explicit ratings -->
    <g transform="translate(102.823047 317.664) scale(0.11 -0.11)">
     <defs>
      <path id="DejaVuSans-2717" d="M 3975 4688 
Q 4006 4688 4056 4638 
Q 4109 4588 4166 4506 
Q 4256 4666 4309 4666 
Q 4356 4666 4438 4581 
Q 4488 4528 4488 4463 
Q 4488 4378 4419 4306 
Q 3769 3600 3156 2753 
Q 3409 2134 3856 1388 
Q 3894 1325 3894 1288 
Q 3894 1216 3800 1138 
L 3700 1069 
Q 3713 1031 3713 969 
Q 3713 875 3644 825 
Q 3563 769 3525 769 
Q 3444 769 3381 850 
Q 3006 1331 2606 1981 
Q 2069 1281 1375 113 
Q 1275 -56 1038 -56 
Q 925 -56 913 75 
Q 753 163 753 353 
Q 753 603 788 700 
Q 803 744 888 875 
Q 1525 1869 2238 2700 
Q 1856 3606 1731 4097 
Q 1703 4206 1703 4238 
Q 1703 4281 1759 4363 
Q 1819 4444 1869 4444 
Q 1916 4444 1988 4353 
Q 2016 4406 2056 4444 
Q 2113 4494 2200 4494 
Q 2300 4494 2331 4400 
Q 2500 3875 2775 3400 
Q 3219 3975 3856 4613 
Q 3931 4688 3975 4688 
z
" transform="scale(0.015625)"/>
      <path id="DejaVuSans-20" transform="scale(0.015625)"/>
      <path id="DejaVuSans-52" d="M 2841 2188 
Q 3044 2119 3236 1894 
Q 3428 1669 3622 1275 
L 4263 0 
L 3584 0 
L 2988 1197 
Q 2756 1666 2539 1819 
Q 2322 1972 1947 1972 
L 1259 1972 
L 1259 0 
L 628 0 
L 628 4666 
L 2053 4666 
Q 2853 4666 3247 4331 
Q 3641 3997 3641 3322 
Q 3641 2881 3436 2590 
Q 3231 2300 2841 2188 
z
M 1259 4147 
L 1259 2491 
L 2053 2491 
Q 2509 2491 2742 2702 
Q 2975 2913 2975 3322 
Q 2975 3731 2742 3939 
Q 2509 4147 2053 4147 
L 1259 4147 
z
" transform="scale(0.015625)"/>
      <path id="DejaVuSans-65" d="M 3597 1894 
L 3597 1613 
L 953 1613 
Q 991 1019 1311 708 
Q 1631 397 2203 397 
Q 2534 397 2845 478 
Q 3156 559 3463 722 
L 3463 178 
Q 3153 47 2828 -22 
Q 2503 -91 2169 -91 
Q 1331 -91 842 396 
Q 353 884 353 1716 
Q 353 2575 817 3079 
Q 1281 3584 2069 3584 
Q 2775 3584 3186 3129 
Q 3597 2675 3597 1894 
z
M 3022 2063 
Q 3016 2534 2758 2815 
Q 2500 3097 2075 3097 
Q 1594 3097 1305 2825 
Q 1016 2553 972 2059 
L 3022 2063 
z
" transform="scale(0.015625)"/>
      <path id="DejaVuSans-71" d="M 947 1747 
Q 947 1113 1208 752 
Q 1469 391 1925 391 
Q 2381 391 2643 752 
Q 2906 1113 2906 1747 
Q 2906 2381 2643 2742 
Q 2381 3103 1925 3103 
Q 1469 3103 1208 2742 
Q 947 2381 947 1747 
z
M 2906 525 
Q 2725 213 2448 61 
Q 2172 -91 1784 -91 
Q 1150 -91 751 415 
Q 353 922 353 1747 
Q 353 2572 751 3078 
Q 1150 3584 1784 3584 
Q 2172 3584 2448 3432 
Q 2725 3281 2906 2969 
L 2906 3500 
L 3481 3500 
L 3481 -1331 
L 2906 -1331 
L 2906 525 
z
" transform="scale(0.015625)"/>
      <path id="DejaVuSans-75" d="M 544 1381 
L 544 3500 
L 1119 3500 
L 1119 1403 
Q 1119 906 1312 657 
Q 1506 409 1894 409 
Q 2359 409 2629 706 
Q 2900 1003 2900 1516 
L 2900 3500 
L 3475 3500 
L 3475 0 
L 2900 0 
L 2900 538 
Q 2691 219 2414 64 
Q 2138 -91 1772 -91 
Q 1169 -91 856 284 
Q 544 659 544 1381 
z
M 1991 3584 
L 1991 3584 
z
" transform="scale(0.015625)"/>
      <path id="DejaVuSans-69" d="M 603 3500 
L 1178 3500 
L 1178 0 
L 603 0 
L 603 3500 
z
M 603 4863 
L 1178 4863 
L 1178 4134 
L 603 4134 
L 603 4863 
z
" transform="scale(0.015625)"/>
      <path id="DejaVuSans-72" d="M 2631 2963 
Q 2534 3019 2420 3045 
Q 2306 3072 2169 3072 
Q 1681 3072 1420 2755 
Q 1159 2438 1159 1844 
L 1159 0 
L 581 0 
L 581 3500 
L 1159 3500 
L 1159 2956 
Q 1341 3275 1631 3429 
Q 1922 3584 2338 3584 
Q 2397 3584 2469 3576 
Q 2541 3569 2628 3553 
L 2631 2963 
z
" transform="scale(0.015625)"/>
      <path id="DejaVuSans-77" d="M 269 3500 
L 844 3500 
L 1563 769 
L 2278 3500 
L 2956 3500 
L 3675 769 
L 4391 3500 
L 4966 3500 
L 4050 0 
L 3372 0 
L 2619 2869 
L 1863 0 
L 1184 0 
L 269 3500 
z
" transform="scale(0.015625)"/>
      <path id="DejaVuSans-6b" d="M 581 4863 
L 1159 4863 
L 1159 1991 
L 2875 3500 
L 3609 3500 
L 1753 1863 
L 3688 0 
L 2938 0 
L 1159 1709 
L 1159 0 
L 581 0 
L 581 4863 
z
" transform="scale(0.015625)"/>
      <path id="DejaVuSans-73" d="M 2834 3397 
L 2834 2853 
Q 2591 2978 2328 3040 
Q 2066 3103 1784 3103 
Q 1356 3103 1142 2972 
Q 928 2841 928 2578 
Q 928 2378 1081 2264 
Q 1234 2150 1697 2047 
L 1894 2003 
Q 2506 1872 2764 1633 
Q 3022 1394 3022 966 
Q 3022 478 2636 193 
Q 2250 -91 1575 -91 
Q 1294 -91 989 -36 
Q 684 19 347 128 
L 347 722 
Q 666 556 975 473 
Q 1284 391 1588 391 
Q 1994 391 2212 530 
Q 2431 669 2431 922 
Q 2431 1156 2273 1281 
Q 2116 1406 1581 1522 
L 1381 1569 
Q 847 1681 609 1914 
Q 372 2147 372 2553 
Q 372 3047 722 3315 
Q 1072 3584 1716 3584 
Q 2034 3584 2315 3537 
Q 2597 3491 2834 3397 
z
" transform="scale(0.015625)"/>
      <path id="DejaVuSans-6f" d="M 1959 3097 
Q 1497 3097 1228 2736 
Q 959 2375 959 1747 
Q 959 1119 1226 758 
Q 1494 397 1959 397 
Q 2419 397 2687 759 
Q 2956 1122 2956 1747 
Q 2956 2369 2687 2733 
Q 2419 3097 1959 3097 
z
M 1959 3584 
Q 2709 3584 3137 3096 
Q 3566 2609 3566 1747 
Q 3566 888 3137 398 
Q 2709 -91 1959 -91 
Q 1206 -91 779 398 
Q 353 888 353 1747 
Q 353 2609 779 3096 
Q 1206 3584 1959 3584 
z
" transform="scale(0.015625)"/>
      <path id="DejaVuSans-66" d="M 2375 4863 
L 2375 4384 
L 1825 4384 
Q 1516 4384 1395 4259 
Q 1275 4134 1275 3809 
L 1275 3500 
L 2222 3500 
L 2222 3053 
L 1275 3053 
L 1275 0 
L 697 0 
L 697 3053 
L 147 3053 
L 147 3500 
L 697 3500 
L 697 3744 
Q 697 4328 969 4595 
Q 1241 4863 1831 4863 
L 2375 4863 
z
" transform="scale(0.015625)"/>
      <path id="DejaVuSans-68" d="M 3513 2113 
L 3513 0 
L 2938 0 
L 2938 2094 
Q 2938 2591 2744 2837 
Q 2550 3084 2163 3084 
Q 1697 3084 1428 2787 
Q 1159 2491 1159 1978 
L 1159 0 
L 581 0 
L 581 4863 
L 1159 4863 
L 1159 2956 
Q 1366 3272 1645 3428 
Q 1925 3584 2291 3584 
Q 2894 3584 3203 3211 
Q 3513 2838 3513 2113 
z
" transform="scale(0.015625)"/>
      <path id="DejaVuSans-74" d="M 1172 4494 
L 1172 3500 
L 2356 3500 
L 2356 3053 
L 1172 3053 
L 1172 1153 
Q 1172 725 1289 603 
Q 1406 481 1766 481 
L 2356 481 
L 2356 0 
L 1766 0 
Q 1100 0 847 248 
Q 594 497 594 1153 
L 594 3053 
L 172 3053 
L 172 3500 
L 594 3500 
L 594 4494 
L 1172 4494 
z
" transform="scale(0.015625)"/>
      <path id="DejaVuSans-79" d="M 2059 -325 
Q 1816 -950 1584 -1140 
Q 1353 -1331 966 -1331 
L 506 -1331 
L 506 -850 
L 844 -850 
Q 1081 -850 1212 -737 
Q 1344 -625 1503 -206 
L 1606 56 
L 191 3500 
L 800 3500 
L 1894 763 
L 2988 3500 
L 3597 3500 
L 2059 -325 
z
" transform="scale(0.015625)"/>
      <path id="DejaVuSans-4e" d="M 628 4666 
L 1478 4666 
L 3547 763 
L 3547 4666 
L 4159 4666 
L 4159 0 
L 3309 0 
L 1241 3903 
L 1241 0 
L 628 0 
L 628 4666 
z
" transform="scale(0.015625)"/>
      <path id="DejaVuSans-64" d="M 2906 2969 
L 2906 4863 
L 3481 4863 
L 3481 0 
L 2906 0 
L 2906 525 
Q 2725 213 2448 61 
Q 2172 -91 1784 -91 
Q 1150 -91 751 415 
Q 353 922 353 1747 
Q 353 2572 751 3078 
Q 1150 3584 1784 3584 
Q 2172 3584 2448 3432 
Q 2725 3281 2906 2969 
z
M 947 1747 
Q 947 1113 1208 752 
Q 1469 391 1925 391 
Q 2381 391 2643 752 
Q 2906 1113 2906 1747 
Q 2906 2381 2643 2742 
Q 2381 3103 1925 3103 
Q 1469 3103 1208 2742 
Q 947 2381 947 1747 
z
" transform="scale(0.015625)"/>
      <path id="DejaVuSans-6c" d="M 603 4863 
L 1178 4863 
L 1178 0 
L 603 0 
L 603 4863 
z
" transform="scale(0.015625)"/>
      <path id="DejaVuSans-67" d="M 2906 1791 
Q 2906 2416 2648 2759 
Q 2391 3103 1925 3103 
Q 1463 3103 1205 2759 
Q 947 2416 947 1791 
Q 947 1169 1205 825 
Q 1463 481 1925 481 
Q 2391 481 2648 825 
Q 2906 1169 2906 1791 
z
M 3481 434 
Q 3481 -459 3084 -895 
Q 2688 -1331 1869 -1331 
Q 1566 -1331 1297 -1286 
Q 1028 -1241 775 -1147 
L 775 -588 
Q 1028 -725 1275 -790 
Q 1522 -856 1778 -856 
Q 2344 -856 2625 -561 
Q 2906 -266 2906 331 
L 2906 616 
Q 2728 306 2450 153 
Q 2172 0 1784 0 
Q 1141 0 747 490 
Q 353 981 353 1791 
Q 353 2603 747 3093 
Q 1141 3584 1784 3584 
Q 2172 3584 2450 3431 
Q 2728 3278 2906 2969 
L 2906 3500 
L 3481 3500 
L 3481 434 
z
" transform="scale(0.015625)"/>
      <path id="DejaVuSans-6e" d="M 3513 2113 
L 3513 0 
L 2938 0 
L 2938 2094 
Q 2938 2591 2744 2837 
Q 2550 3084 2163 3084 
Q 1697 3084 1428 2787 
Q 1159 2491 1159 1978 
L 1159 0 
L 581 0 
L 581 3500 
L 1159 3500 
L 1159 2956 
Q 1366 3272 1645 3428 
Q 1925 3584 2291 3584 
Q 2894 3584 3203 3211 
Q 3513 2838 3513 2113 
z
" transform="scale(0.015625)"/>
      <path id="DejaVuSans-2f" d="M 1625 4666 
L 2156 4666 
L 531 -594 
L 0 -594 
L 1625 4666 
z
" transform="scale(0.015625)"/>
      <path id="DejaVuSans-63" d="M 3122 3366 
L 3122 2828 
Q 2878 2963 2633 3030 
Q 2388 3097 2138 3097 
Q 1578 3097 1268 2742 
Q 959 2388 959 1747 
Q 959 1106 1268 751 
Q 1578 397 2138 397 
Q 2388 397 2633 464 
Q 2878 531 3122 666 
L 3122 134 
Q 2881 22 2623 -34 
Q 2366 -91 2075 -91 
Q 1284 -91 818 406 
Q 353 903 353 1747 
Q 353 2603 823 3093 
Q 1294 3584 2113 3584 
Q 2378 3584 2631 3529 
Q 2884 3475 3122 3366 
z
" transform="scale(0.015625)"/>
      <path id="DejaVuSans-44" d="M 1259 4147 
L 1259 519 
L 2022 519 
Q 2988 519 3436 956 
Q 3884 1394 3884 2338 
Q 3884 3275 3436 3711 
Q 2988 4147 2022 4147 
L 1259 4147 
z
M 628 4666 
L 1925 4666 
Q 3281 4666 3915 4102 
Q 4550 3538 4550 2338 
Q 4550 1131 3912 565 
Q 3275 0 1925 0 
L 628 0 
L 628 4666 
z
" transform="scale(0.015625)"/>
      <path id="DejaVuSans-70" d="M 1159 525 
L 1159 -1331 
L 581 -1331 
L 581 3500 
L 1159 3500 
L 1159 2969 
Q 1341 3281 1617 3432 
Q 1894 3584 2278 3584 
Q 2916 3584 3314 3078 
Q 3713 2572 3713 1747 
Q 3713 922 3314 415 
Q 2916 -91 2278 -91 
Q 1894 -91 1617 61 
Q 1341 213 1159 525 
z
M 3116 1747 
Q 3116 2381 2855 2742 
Q 2594 3103 2138 3103 
Q 1681 3103 1420 2742 
Q 1159 2381 1159 1747 
Q 1159 1113 1420 752 
Q 1681 391 2138 391 
Q 2594 391 2855 752 
Q 3116 1113 3116 1747 
z
" transform="scale(0.015625)"/>
      <path id="DejaVuSans-78" d="M 3513 3500 
L 2247 1797 
L 3578 0 
L 2900 0 
L 1881 1375 
L 863 0 
L 184 0 
L 1544 1831 
L 300 3500 
L 978 3500 
L 1906 2253 
L 2834 3500 
L 3513 3500 
z
" transform="scale(0.015625)"/>
      <path id="DejaVuSans-61" d="M 2194 1759 
Q 1497 1759 1228 1600 
Q 959 1441 959 1056 
Q 959 750 1161 570 
Q 1363 391 1709 391 
Q 2188 391 2477 730 
Q 2766 1069 2766 1631 
L 2766 1759 
L 2194 1759 
z
M 3341 1997 
L 3341 0 
L 2766 0 
L 2766 531 
Q 2569 213 2275 61 
Q 1981 -91 1556 -91 
Q 1019 -91 701 211 
Q 384 513 384 1019 
Q 384 1609 779 1909 
Q 1175 2209 1959 2209 
L 2766 2209 
L 2766 2266 
Q 2766 2663 2505 2880 
Q 2244 3097 1772 3097 
Q 1472 3097 1187 3025 
Q 903 2953 641 2809 
L 641 3341 
Q 956 3463 1253 3523 
Q 1550 3584 1831 3584 
Q 2591 3584 2966 3190 
Q 3341 2797 3341 1997 
z
" transform="scale(0.015625)"/>
     </defs>
     <use xlink:href="#DejaVuSans-2717"/>
     <use xlink:href="#DejaVuSans-20" x="83.789062"/>
     <use xlink:href="#DejaVuSans-52" x="115.576172"/>
     <use xlink:href="#DejaVuSans-65" x="180.558594"/>
     <use xlink:href="#DejaVuSans-71" x="242.082031"/>
     <use xlink:href="#DejaVuSans-75" x="305.558594"/>
     <use xlink:href="#DejaVuSans-69" x="368.9375"/>
     <use xlink:href="#DejaVuSans-72" x="396.720703"/>
     <use xlink:href="#DejaVuSans-65" x="435.583984"/>
     <use xlink:href="#DejaVuSans-20" x="497.107422"/>
     <use xlink:href="#DejaVuSans-77" x="528.894531"/>
     <use xlink:href="#DejaVuSans-65" x="610.681641"/>
     <use xlink:href="#DejaVuSans-65" x="672.205078"/>
     <use xlink:href="#DejaVuSans-6b" x="733.728516"/>
     <use xlink:href="#DejaVuSans-73" x="791.638672"/>
     <use xlink:href="#DejaVuSans-20" x="843.738281"/>
     <use xlink:href="#DejaVuSans-6f" x="875.525391"/>
     <use xlink:href="#DejaVuSans-66" x="936.707031"/>
     <use xlink:href="#DejaVuSans-20" x="971.912109"/>
     <use xlink:href="#DejaVuSans-75" x="1003.699219"/>
     <use xlink:href="#DejaVuSans-73" x="1067.078125"/>
     <use xlink:href="#DejaVuSans-65" x="1119.177734"/>
     <use xlink:href="#DejaVuSans-72" x="1180.701172"/>
     <use xlink:href="#DejaVuSans-20" x="1221.814453"/>
     <use xlink:href="#DejaVuSans-68" x="1253.601562"/>
     <use xlink:href="#DejaVuSans-69" x="1316.980469"/>
     <use xlink:href="#DejaVuSans-73" x="1344.763672"/>
     <use xlink:href="#DejaVuSans-74" x="1396.863281"/>
     <use xlink:href="#DejaVuSans-6f" x="1436.072266"/>
     <use xlink:href="#DejaVuSans-72" x="1497.253906"/>
     <use xlink:href="#DejaVuSans-79" x="1538.367188"/>
     <use xlink:href="#DejaVuSans-20" x="1597.546875"/>
     <use xlink:href="#DejaVuSans-20" x="1629.333984"/>
     <use xlink:href="#DejaVuSans-20" x="1661.121094"/>
     <use xlink:href="#DejaVuSans-20" x="1692.908203"/>
     <use xlink:href="#DejaVuSans-2717" x="1724.695312"/>
     <use xlink:href="#DejaVuSans-20" x="1808.484375"/>
     <use xlink:href="#DejaVuSans-4e" x="1840.271484"/>
     <use xlink:href="#DejaVuSans-65" x="1915.076172"/>
     <use xlink:href="#DejaVuSans-65" x="1976.599609"/>
     <use xlink:href="#DejaVuSans-64" x="2038.123047"/>
     <use xlink:href="#DejaVuSans-20" x="2101.599609"/>
     <use xlink:href="#DejaVuSans-6c" x="2133.386719"/>
     <use xlink:href="#DejaVuSans-6f" x="2161.169922"/>
     <use xlink:href="#DejaVuSans-67" x="2222.351562"/>
     <use xlink:href="#DejaVuSans-69" x="2285.828125"/>
     <use xlink:href="#DejaVuSans-6e" x="2313.611328"/>
     <use xlink:href="#DejaVuSans-2f" x="2376.990234"/>
     <use xlink:href="#DejaVuSans-63" x="2410.681641"/>
     <use xlink:href="#DejaVuSans-6f" x="2465.662109"/>
     <use xlink:href="#DejaVuSans-6f" x="2526.84375"/>
     <use xlink:href="#DejaVuSans-6b" x="2588.025391"/>
     <use xlink:href="#DejaVuSans-69" x="2645.935547"/>
     <use xlink:href="#DejaVuSans-65" x="2673.71875"/>
     <use xlink:href="#DejaVuSans-73" x="2735.242188"/>
     <use xlink:href="#DejaVuSans-20" x="2787.341797"/>
     <use xlink:href="#DejaVuSans-20" x="2819.128906"/>
     <use xlink:href="#DejaVuSans-20" x="2850.916016"/>
     <use xlink:href="#DejaVuSans-20" x="2882.703125"/>
     <use xlink:href="#DejaVuSans-2717" x="2914.490234"/>
     <use xlink:href="#DejaVuSans-20" x="2998.279297"/>
     <use xlink:href="#DejaVuSans-44" x="3030.066406"/>
     <use xlink:href="#DejaVuSans-65" x="3107.068359"/>
     <use xlink:href="#DejaVuSans-70" x="3168.591797"/>
     <use xlink:href="#DejaVuSans-65" x="3232.068359"/>
     <use xlink:href="#DejaVuSans-6e" x="3293.591797"/>
     <use xlink:href="#DejaVuSans-64" x="3356.970703"/>
     <use xlink:href="#DejaVuSans-20" x="3420.447266"/>
     <use xlink:href="#DejaVuSans-6f" x="3452.234375"/>
     <use xlink:href="#DejaVuSans-6e" x="3513.416016"/>
     <use xlink:href="#DejaVuSans-20" x="3576.794922"/>
     <use xlink:href="#DejaVuSans-65" x="3608.582031"/>
     <use xlink:href="#DejaVuSans-78" x="3668.355469"/>
     <use xlink:href="#DejaVuSans-70" x="3727.535156"/>
     <use xlink:href="#DejaVuSans-6c" x="3791.011719"/>
     <use xlink:href="#DejaVuSans-69" x="3818.794922"/>
     <use xlink:href="#DejaVuSans-63" x="3846.578125"/>
     <use xlink:href="#DejaVuSans-69" x="3901.558594"/>
     <use xlink:href="#DejaVuSans-74" x="3929.341797"/>
     <use xlink:href="#DejaVuSans-20" x="3968.550781"/>
     <use xlink:href="#DejaVuSans-72" x="4000.337891"/>
     <use xlink:href="#DejaVuSans-61" x="4041.451172"/>
     <use xlink:href="#DejaVuSans-74" x="4102.730469"/>
     <use xlink:href="#DejaVuSans-69" x="4141.939453"/>
     <use xlink:href="#DejaVuSans-6e" x="4169.722656"/>
     <use xlink:href="#DejaVuSans-67" x="4233.101562"/>
     <use xlink:href="#DejaVuSans-73" x="4296.578125"/>
    </g>
   </g>
   <g id="text_26">
    <!-- → Lost revenue: 20-40% of potential conversions -->
    <g style="fill: #e74c3c" transform="translate(207.099609 344.8296) scale(0.11 -0.11)">
     <defs>
      <path id="DejaVuSans-Oblique-2192" d="M 5050 2147 
L 5050 1866 
L 3822 638 
L 3447 1013 
L 4175 1741 
L 366 1741 
L 366 2272 
L 4175 2272 
L 3447 3000 
L 3822 3375 
L 5050 2147 
z
" transform="scale(0.015625)"/>
      <path id="DejaVuSans-Oblique-20" transform="scale(0.015625)"/>
      <path id="DejaVuSans-Oblique-4c" d="M 1075 4666 
L 1709 4666 
L 909 525 
L 3181 525 
L 3078 0 
L 172 0 
L 1075 4666 
z
" transform="scale(0.015625)"/>
      <path id="DejaVuSans-Oblique-6f" d="M 1625 -91 
Q 1009 -91 651 289 
Q 294 669 294 1325 
Q 294 1706 417 2101 
Q 541 2497 738 2766 
Q 1047 3184 1428 3384 
Q 1809 3584 2291 3584 
Q 2888 3584 3255 3212 
Q 3622 2841 3622 2241 
Q 3622 1825 3500 1412 
Q 3378 1000 3181 728 
Q 2875 309 2494 109 
Q 2113 -91 1625 -91 
z
M 891 1344 
Q 891 869 1089 633 
Q 1288 397 1691 397 
Q 2269 397 2648 901 
Q 3028 1406 3028 2181 
Q 3028 2634 2825 2865 
Q 2622 3097 2228 3097 
Q 1903 3097 1650 2945 
Q 1397 2794 1197 2484 
Q 1050 2253 970 1956 
Q 891 1659 891 1344 
z
" transform="scale(0.015625)"/>
      <path id="DejaVuSans-Oblique-73" d="M 3200 3397 
L 3091 2853 
Q 2863 2978 2609 3040 
Q 2356 3103 2088 3103 
Q 1634 3103 1373 2948 
Q 1113 2794 1113 2528 
Q 1113 2219 1719 2053 
Q 1766 2041 1788 2034 
L 1972 1978 
Q 2547 1819 2739 1644 
Q 2931 1469 2931 1166 
Q 2931 609 2489 259 
Q 2047 -91 1331 -91 
Q 1053 -91 747 -37 
Q 441 16 72 128 
L 184 722 
Q 500 559 806 475 
Q 1113 391 1394 391 
Q 1816 391 2080 572 
Q 2344 753 2344 1031 
Q 2344 1331 1650 1516 
L 1591 1531 
L 1394 1581 
Q 956 1697 753 1886 
Q 550 2075 550 2369 
Q 550 2928 970 3256 
Q 1391 3584 2113 3584 
Q 2397 3584 2667 3537 
Q 2938 3491 3200 3397 
z
" transform="scale(0.015625)"/>
      <path id="DejaVuSans-Oblique-74" d="M 2706 3500 
L 2619 3053 
L 1472 3053 
L 1100 1153 
Q 1081 1047 1072 975 
Q 1063 903 1063 863 
Q 1063 663 1183 572 
Q 1303 481 1569 481 
L 2150 481 
L 2053 0 
L 1503 0 
Q 991 0 739 200 
Q 488 400 488 806 
Q 488 878 497 964 
Q 506 1050 525 1153 
L 897 3053 
L 409 3053 
L 500 3500 
L 978 3500 
L 1172 4494 
L 1747 4494 
L 1556 3500 
L 2706 3500 
z
" transform="scale(0.015625)"/>
      <path id="DejaVuSans-Oblique-72" d="M 2853 2969 
Q 2766 3016 2653 3041 
Q 2541 3066 2413 3066 
Q 1953 3066 1609 2717 
Q 1266 2369 1153 1784 
L 800 0 
L 225 0 
L 909 3500 
L 1484 3500 
L 1375 2956 
Q 1603 3259 1920 3421 
Q 2238 3584 2597 3584 
Q 2691 3584 2781 3573 
Q 2872 3563 2963 3538 
L 2853 2969 
z
" transform="scale(0.015625)"/>
      <path id="DejaVuSans-Oblique-65" d="M 3078 2063 
Q 3088 2113 3092 2166 
Q 3097 2219 3097 2272 
Q 3097 2653 2873 2875 
Q 2650 3097 2266 3097 
Q 1838 3097 1509 2826 
Q 1181 2556 1013 2059 
L 3078 2063 
z
M 3578 1613 
L 903 1613 
Q 884 1494 878 1425 
Q 872 1356 872 1306 
Q 872 872 1139 634 
Q 1406 397 1894 397 
Q 2269 397 2603 481 
Q 2938 566 3225 728 
L 3116 159 
Q 2806 34 2476 -28 
Q 2147 -91 1806 -91 
Q 1078 -91 686 257 
Q 294 606 294 1247 
Q 294 1794 489 2264 
Q 684 2734 1063 3103 
Q 1306 3334 1642 3459 
Q 1978 3584 2356 3584 
Q 2950 3584 3301 3228 
Q 3653 2872 3653 2272 
Q 3653 2128 3634 1964 
Q 3616 1800 3578 1613 
z
" transform="scale(0.015625)"/>
      <path id="DejaVuSans-Oblique-76" d="M 459 3500 
L 1069 3500 
L 1581 525 
L 3256 3500 
L 3866 3500 
L 1875 0 
L 1100 0 
L 459 3500 
z
" transform="scale(0.015625)"/>
      <path id="DejaVuSans-Oblique-6e" d="M 3566 2113 
L 3156 0 
L 2578 0 
L 2988 2091 
Q 3016 2238 3031 2350 
Q 3047 2463 3047 2528 
Q 3047 2791 2881 2937 
Q 2716 3084 2419 3084 
Q 1956 3084 1622 2776 
Q 1288 2469 1184 1941 
L 800 0 
L 225 0 
L 903 3500 
L 1478 3500 
L 1363 2950 
Q 1603 3253 1940 3418 
Q 2278 3584 2650 3584 
Q 3113 3584 3367 3334 
Q 3622 3084 3622 2631 
Q 3622 2519 3608 2391 
Q 3594 2263 3566 2113 
z
" transform="scale(0.015625)"/>
      <path id="DejaVuSans-Oblique-75" d="M 428 1388 
L 838 3500 
L 1416 3500 
L 1006 1409 
Q 975 1256 961 1147 
Q 947 1038 947 966 
Q 947 700 1109 554 
Q 1272 409 1569 409 
Q 2031 409 2368 721 
Q 2706 1034 2809 1563 
L 3194 3500 
L 3769 3500 
L 3091 0 
L 2516 0 
L 2631 550 
Q 2388 244 2052 76 
Q 1716 -91 1338 -91 
Q 878 -91 622 161 
Q 366 413 366 863 
Q 366 956 381 1097 
Q 397 1238 428 1388 
z
" transform="scale(0.015625)"/>
      <path id="DejaVuSans-Oblique-3a" d="M 978 3309 
L 1638 3309 
L 1484 2516 
L 825 2516 
L 978 3309 
z
M 488 794 
L 1147 794 
L 991 0 
L 331 0 
L 488 794 
z
" transform="scale(0.015625)"/>
      <path id="DejaVuSans-Oblique-32" d="M 2950 2253 
L 934 525 
L 3163 525 
L 3053 0 
L 25 0 
L 128 531 
L 2234 2338 
Q 2656 2703 2832 2979 
Q 3009 3256 3009 3547 
Q 3009 3850 2796 4040 
Q 2584 4231 2241 4231 
Q 1944 4231 1581 4125 
Q 1219 4019 806 3816 
L 922 4441 
Q 1309 4594 1662 4672 
Q 2016 4750 2316 4750 
Q 2928 4750 3301 4425 
Q 3675 4100 3675 3572 
Q 3675 3216 3497 2892 
Q 3319 2569 2950 2253 
z
" transform="scale(0.015625)"/>
      <path id="DejaVuSans-Oblique-30" d="M 2444 4750 
Q 3078 4750 3414 4328 
Q 3750 3906 3750 3116 
Q 3750 2516 3592 1923 
Q 3434 1331 3150 863 
Q 2859 394 2467 151 
Q 2075 -91 1600 -91 
Q 988 -91 653 334 
Q 319 759 319 1544 
Q 319 2138 480 2733 
Q 641 3328 928 3794 
Q 1216 4263 1602 4506 
Q 1988 4750 2444 4750 
z
M 2406 4250 
Q 2169 4250 1955 4123 
Q 1741 3997 1569 3750 
Q 1281 3338 1111 2720 
Q 941 2103 941 1453 
Q 941 938 1123 673 
Q 1306 409 1663 409 
Q 1913 409 2125 536 
Q 2338 663 2509 909 
Q 2794 1319 2961 1936 
Q 3128 2553 3128 3206 
Q 3128 3722 2945 3986 
Q 2763 4250 2406 4250 
z
" transform="scale(0.015625)"/>
      <path id="DejaVuSans-Oblique-2d" d="M 391 2009 
L 2075 2009 
L 1978 1497 
L 288 1497 
L 391 2009 
z
" transform="scale(0.015625)"/>
      <path id="DejaVuSans-Oblique-34" d="M 2753 4666 
L 3547 4666 
L 2950 1625 
L 3616 1625 
L 3513 1100 
L 2847 1100 
L 2638 0 
L 2009 0 
L 2222 1100 
L 116 1100 
L 238 1709 
L 2753 4666 
z
M 2809 4116 
L 728 1625 
L 2322 1625 
L 2809 4116 
z
" transform="scale(0.015625)"/>
      <path id="DejaVuSans-Oblique-25" d="M 1503 2209 
Q 1078 2209 829 2486 
Q 581 2763 581 3238 
Q 581 3913 943 4331 
Q 1306 4750 1888 4750 
Q 2313 4750 2561 4470 
Q 2809 4191 2809 3713 
Q 2809 3044 2446 2626 
Q 2084 2209 1503 2209 
z
M 2309 3694 
Q 2309 4022 2187 4187 
Q 2066 4353 1825 4353 
Q 1475 4353 1278 4050 
Q 1081 3747 1081 3206 
Q 1081 2919 1207 2762 
Q 1334 2606 1569 2606 
Q 1903 2606 2106 2903 
Q 2309 3200 2309 3694 
z
M 4997 1394 
Q 4997 1728 4878 1893 
Q 4759 2059 4519 2059 
Q 4172 2059 3973 1754 
Q 3775 1450 3775 909 
Q 3775 619 3901 462 
Q 4028 306 4263 306 
Q 4597 306 4797 603 
Q 4997 900 4997 1394 
z
M 4197 -91 
Q 3772 -91 3525 187 
Q 3278 466 3278 941 
Q 3278 1616 3639 2033 
Q 4000 2450 4581 2450 
Q 5006 2450 5251 2175 
Q 5497 1900 5497 1422 
Q 5497 750 5136 329 
Q 4775 -91 4197 -91 
z
M 5259 4750 
L 1403 -91 
L 903 -91 
L 4763 4750 
L 5259 4750 
z
" transform="scale(0.015625)"/>
      <path id="DejaVuSans-Oblique-66" d="M 3059 4863 
L 2969 4384 
L 2419 4384 
Q 2106 4384 1964 4261 
Q 1822 4138 1753 3809 
L 1691 3500 
L 2638 3500 
L 2553 3053 
L 1606 3053 
L 1013 0 
L 434 0 
L 1031 3053 
L 481 3053 
L 563 3500 
L 1113 3500 
L 1159 3744 
Q 1278 4363 1576 4613 
Q 1875 4863 2516 4863 
L 3059 4863 
z
" transform="scale(0.015625)"/>
      <path id="DejaVuSans-Oblique-70" d="M 3175 2156 
Q 3175 2616 2975 2859 
Q 2775 3103 2400 3103 
Q 2144 3103 1911 2972 
Q 1678 2841 1497 2591 
Q 1319 2344 1212 1994 
Q 1106 1644 1106 1300 
Q 1106 863 1306 627 
Q 1506 391 1875 391 
Q 2147 391 2380 519 
Q 2613 647 2778 891 
Q 2956 1147 3065 1494 
Q 3175 1841 3175 2156 
z
M 1394 2969 
Q 1625 3272 1939 3428 
Q 2253 3584 2638 3584 
Q 3175 3584 3472 3232 
Q 3769 2881 3769 2247 
Q 3769 1728 3584 1258 
Q 3400 788 3053 416 
Q 2822 169 2531 39 
Q 2241 -91 1919 -91 
Q 1547 -91 1294 64 
Q 1041 219 916 525 
L 556 -1331 
L -19 -1331 
L 922 3500 
L 1497 3500 
L 1394 2969 
z
" transform="scale(0.015625)"/>
      <path id="DejaVuSans-Oblique-69" d="M 1172 4863 
L 1747 4863 
L 1606 4134 
L 1031 4134 
L 1172 4863 
z
M 909 3500 
L 1484 3500 
L 800 0 
L 225 0 
L 909 3500 
z
" transform="scale(0.015625)"/>
      <path id="DejaVuSans-Oblique-61" d="M 3438 1997 
L 3047 0 
L 2472 0 
L 2578 531 
Q 2325 219 2001 64 
Q 1678 -91 1281 -91 
Q 834 -91 548 182 
Q 263 456 263 884 
Q 263 1497 752 1853 
Q 1241 2209 2100 2209 
L 2900 2209 
L 2931 2363 
Q 2938 2388 2941 2417 
Q 2944 2447 2944 2509 
Q 2944 2788 2717 2942 
Q 2491 3097 2081 3097 
Q 1800 3097 1504 3025 
Q 1209 2953 897 2809 
L 997 3341 
Q 1322 3463 1633 3523 
Q 1944 3584 2234 3584 
Q 2853 3584 3176 3315 
Q 3500 3047 3500 2534 
Q 3500 2431 3484 2292 
Q 3469 2153 3438 1997 
z
M 2816 1759 
L 2241 1759 
Q 1534 1759 1195 1570 
Q 856 1381 856 984 
Q 856 709 1029 553 
Q 1203 397 1509 397 
Q 1978 397 2328 733 
Q 2678 1069 2791 1631 
L 2816 1759 
z
" transform="scale(0.015625)"/>
      <path id="DejaVuSans-Oblique-6c" d="M 1172 4863 
L 1747 4863 
L 800 0 
L 225 0 
L 1172 4863 
z
" transform="scale(0.015625)"/>
      <path id="DejaVuSans-Oblique-63" d="M 3431 3366 
L 3316 2797 
Q 3109 2947 2876 3022 
Q 2644 3097 2394 3097 
Q 2119 3097 1870 3000 
Q 1622 2903 1453 2725 
Q 1184 2453 1037 2087 
Q 891 1722 891 1331 
Q 891 859 1127 628 
Q 1363 397 1844 397 
Q 2081 397 2348 469 
Q 2616 541 2906 684 
L 2797 116 
Q 2547 13 2283 -39 
Q 2019 -91 1741 -91 
Q 1044 -91 669 257 
Q 294 606 294 1253 
Q 294 1797 489 2255 
Q 684 2713 1069 3078 
Q 1331 3328 1684 3456 
Q 2038 3584 2456 3584 
Q 2700 3584 2940 3529 
Q 3181 3475 3431 3366 
z
" transform="scale(0.015625)"/>
     </defs>
     <use xlink:href="#DejaVuSans-Oblique-2192"/>
     <use xlink:href="#DejaVuSans-Oblique-20" x="83.789062"/>
     <use xlink:href="#DejaVuSans-Oblique-4c" x="115.576172"/>
     <use xlink:href="#DejaVuSans-Oblique-6f" x="171.289062"/>
     <use xlink:href="#DejaVuSans-Oblique-73" x="232.470703"/>
     <use xlink:href="#DejaVuSans-Oblique-74" x="284.570312"/>
     <use xlink:href="#DejaVuSans-Oblique-20" x="323.779297"/>
     <use xlink:href="#DejaVuSans-Oblique-72" x="355.566406"/>
     <use xlink:href="#DejaVuSans-Oblique-65" x="396.679688"/>
     <use xlink:href="#DejaVuSans-Oblique-76" x="458.203125"/>
     <use xlink:href="#DejaVuSans-Oblique-65" x="517.382812"/>
     <use xlink:href="#DejaVuSans-Oblique-6e" x="578.90625"/>
     <use xlink:href="#DejaVuSans-Oblique-75" x="642.285156"/>
     <use xlink:href="#DejaVuSans-Oblique-65" x="705.664062"/>
     <use xlink:href="#DejaVuSans-Oblique-3a" x="767.1875"/>
     <use xlink:href="#DejaVuSans-Oblique-20" x="800.878906"/>
     <use xlink:href="#DejaVuSans-Oblique-32" x="832.666016"/>
     <use xlink:href="#DejaVuSans-Oblique-30" x="896.289062"/>
     <use xlink:href="#DejaVuSans-Oblique-2d" x="959.912109"/>
     <use xlink:href="#DejaVuSans-Oblique-34" x="995.996094"/>
     <use xlink:href="#DejaVuSans-Oblique-30" x="1059.619141"/>
     <use xlink:href="#DejaVuSans-Oblique-25" x="1123.242188"/>
     <use xlink:href="#DejaVuSans-Oblique-20" x="1218.261719"/>
     <use xlink:href="#DejaVuSans-Oblique-6f" x="1250.048828"/>
     <use xlink:href="#DejaVuSans-Oblique-66" x="1311.230469"/>
     <use xlink:href="#DejaVuSans-Oblique-20" x="1346.435547"/>
     <use xlink:href="#DejaVuSans-Oblique-70" x="1378.222656"/>
     <use xlink:href="#DejaVuSans-Oblique-6f" x="1441.699219"/>
     <use xlink:href="#DejaVuSans-Oblique-74" x="1502.880859"/>
     <use xlink:href="#DejaVuSans-Oblique-65" x="1542.089844"/>
     <use xlink:href="#DejaVuSans-Oblique-6e" x="1603.613281"/>
     <use xlink:href="#DejaVuSans-Oblique-74" x="1666.992188"/>
     <use xlink:href="#DejaVuSans-Oblique-69" x="1706.201172"/>
     <use xlink:href="#DejaVuSans-Oblique-61" x="1733.984375"/>
     <use xlink:href="#DejaVuSans-Oblique-6c" x="1795.263672"/>
     <use xlink:href="#DejaVuSans-Oblique-20" x="1823.046875"/>
     <use xlink:href="#DejaVuSans-Oblique-63" x="1854.833984"/>
     <use xlink:href="#DejaVuSans-Oblique-6f" x="1909.814453"/>
     <use xlink:href="#DejaVuSans-Oblique-6e" x="1970.996094"/>
     <use xlink:href="#DejaVuSans-Oblique-76" x="2034.375"/>
     <use xlink:href="#DejaVuSans-Oblique-65" x="2093.554688"/>
     <use xlink:href="#DejaVuSans-Oblique-72" x="2155.078125"/>
     <use xlink:href="#DejaVuSans-Oblique-73" x="2196.191406"/>
     <use xlink:href="#DejaVuSans-Oblique-69" x="2248.291016"/>
     <use xlink:href="#DejaVuSans-Oblique-6f" x="2276.074219"/>
     <use xlink:href="#DejaVuSans-Oblique-6e" x="2337.255859"/>
     <use xlink:href="#DejaVuSans-Oblique-73" x="2400.634766"/>
    </g>
   </g>
  </g>
 </g>
 <defs>
  <clipPath id="p1534979eaa">
   <rect x="7.2" y="7.2" width="669.6" height="388.08"/>
  </clipPath>
 </defs>
</svg>
